<svg width="300" height="300" viewBox="0 0 300 300" fill="none" xmlns="http://www.w3.org/2000/svg">
<circle cx="150" cy="150" r="150" fill="#43444C" fill-opacity="0.2"/>
<path d="M150 0C120.333 -3.53778e-07 91.3318 8.79735 66.6645 25.2796C41.9971 41.7618 22.7712 65.1886 11.4181 92.5975C0.0649254 120.006 -2.90558 150.166 2.88221 179.264C8.66999 208.361 22.9561 235.088 43.934 256.066C64.9119 277.044 91.6393 291.33 120.736 297.118C149.834 302.906 179.994 299.935 207.403 288.582C234.811 277.229 258.238 258.003 274.72 233.336C291.203 208.668 300 179.667 300 150L292.5 150C292.5 178.184 284.143 205.735 268.484 229.169C252.826 252.603 230.571 270.867 204.532 281.653C178.494 292.438 149.842 295.26 122.2 289.762C94.5573 284.264 69.1663 270.692 49.2373 250.763C29.3083 230.834 15.7365 205.443 10.2381 177.8C4.7397 150.158 7.56168 121.506 18.3472 95.4676C29.1327 69.4291 47.3972 47.1737 70.8312 31.5156C94.2652 15.8575 121.816 7.5 150 7.5L150 0Z" fill="#43444C" fill-opacity="0.4"/>
</svg>
