<svg width="300" height="300" viewBox="0 0 300 300" fill="none" xmlns="http://www.w3.org/2000/svg">
<circle cx="150" cy="150" r="150" fill="white" fill-opacity="0.4"/>
<path d="M150 0C115.297 -4.13833e-07 81.667 12.0329 54.841 34.0484C28.015 56.064 9.65249 86.7 2.88221 120.736C-3.88807 154.773 1.35279 190.104 17.7118 220.71C34.0708 251.315 60.5358 275.302 92.5975 288.582C124.659 301.862 160.334 303.615 193.543 293.541C226.752 283.467 255.44 262.19 274.72 233.336C294.001 204.481 302.679 169.834 299.278 135.297C295.876 100.761 280.605 68.4729 256.066 43.934L250.763 49.2373C274.075 72.5493 288.582 103.223 291.814 136.033C295.045 168.842 286.801 201.757 268.484 229.169C250.168 256.581 222.914 276.794 191.366 286.364C159.817 295.934 125.926 294.269 95.4676 281.653C65.009 269.036 39.8673 246.249 24.3262 217.174C8.78515 188.099 3.80633 154.534 10.2381 122.2C16.6699 89.865 34.1143 60.7608 59.599 39.846C85.0837 18.9313 117.032 7.5 150 7.5L150 0Z" fill="white" fill-opacity="0.8"/>
</svg>
