<svg width="300" height="300" viewBox="0 0 300 300" fill="none" xmlns="http://www.w3.org/2000/svg">
<circle cx="150" cy="150" r="150" fill="white" fill-opacity="0.4"/>
<path d="M150 0C130.302 -2.349e-07 110.796 3.87986 92.5975 11.4181C74.3986 18.9563 57.8628 30.0052 43.934 43.934C30.0052 57.8628 18.9563 74.3986 11.4181 92.5975C3.87986 110.796 -6.2614e-07 130.302 0 150C6.2614e-07 169.698 3.87987 189.204 11.4181 207.403C18.9563 225.601 30.0052 242.137 43.934 256.066C57.8628 269.995 74.3987 281.044 92.5975 288.582C110.796 296.12 130.302 300 150 300L150 292.5C131.287 292.5 112.757 288.814 95.4676 281.653C78.1787 274.492 62.4696 263.995 49.2373 250.763C36.0049 237.53 25.5085 221.821 18.3472 204.532C11.1859 187.243 7.5 168.713 7.5 150C7.5 131.287 11.1859 112.757 18.3472 95.4676C25.5085 78.1787 36.0049 62.4696 49.2373 49.2373C62.4696 36.0049 78.1787 25.5085 95.4676 18.3472C112.757 11.1859 131.287 7.5 150 7.5L150 0Z" fill="white" fill-opacity="0.8"/>
</svg>
