<svg width="300" height="300" viewBox="0 0 300 300" fill="none" xmlns="http://www.w3.org/2000/svg">
<circle cx="150" cy="150" r="150" fill="white" fill-opacity="0.4"/>
<path d="M150 0C125.332 -2.94159e-07 101.045 6.08356 79.2905 17.7118C57.5356 29.3401 38.9842 46.1541 25.2796 66.6645C11.5749 87.1749 3.14014 110.749 0.722292 135.297C-1.69556 159.846 1.97817 184.613 11.4181 207.403C20.858 230.192 35.7727 250.303 54.841 265.952C73.9093 281.601 96.5428 292.305 120.736 297.118C144.93 301.93 169.937 300.702 193.543 293.541C217.148 286.38 238.623 273.509 256.066 256.066L250.763 250.763C234.192 267.333 213.791 279.561 191.366 286.364C168.94 293.167 145.184 294.334 122.2 289.762C99.2156 285.19 77.7139 275.021 59.599 260.154C41.484 245.287 27.3151 226.183 18.3472 204.532C9.37926 182.882 5.88922 159.354 8.18618 136.033C10.4831 112.711 18.4962 90.3161 31.5156 70.8312C44.535 51.3464 62.1588 35.3731 82.826 24.3262C103.493 13.2794 126.566 7.5 150 7.5L150 0Z" fill="white" fill-opacity="0.8"/>
</svg>
