<svg width="300" height="300" viewBox="0 0 300 300" fill="none" xmlns="http://www.w3.org/2000/svg">
<circle cx="150" cy="150" r="150" fill="white" fill-opacity="0.4"/>
<path d="M150 0C130.302 -2.349e-07 110.796 3.87986 92.5975 11.4181C74.3986 18.9563 57.8628 30.0052 43.934 43.934C30.0052 57.8628 18.9563 74.3987 11.4181 92.5975C3.87986 110.796 -2.97436e-06 130.302 0 150L7.5 150C7.5 131.287 11.1859 112.757 18.3472 95.4676C25.5085 78.1787 36.0049 62.4696 49.2373 49.2373C62.4696 36.0049 78.1787 25.5085 95.4676 18.3472C112.757 11.1859 131.287 7.5 150 7.5L150 0Z" fill="white" fill-opacity="0.8"/>
</svg>
