<svg xmlns="http://www.w3.org/2000/svg" viewBox="0 0 233.9 69.8" width="233.9" height="69.8"><path fill="#74787d" d="M212.58.528h-30.633l-7.916 32.01c0-1.033 0-2.065-.344-3.442-.344-1.377-.689-3.442-1.033-4.819-.344-1.72-1.032-2.753-1.377-4.13-.688-1.377-1.376-2.754-2.409-4.475-1.032-1.72-2.753-3.442-3.786-4.818-1.377-1.377-2.41-2.41-3.786-3.442-1.377-1.033-3.442-2.41-5.507-3.442-2.065-1.033-3.786-1.721-5.507-2.065-1.721-.345-2.754-.689-4.13-1.033-1.377-.344-2.754-.344-3.787-.344h-25.47v38.205c-.344-1.032-1.032-2.065-1.72-3.442-1.033-1.72-2.066-3.098-3.443-4.474-1.376-1.377-2.753-2.41-4.818-3.442-2.065-1.033-4.819-2.065-7.228-2.754-2.754-.688-5.507-1.032-7.917-1.376l-4.13-.345c-.688 0-1.377-.344-2.065-.344-.688-.344-1.377-.688-1.721-1.377-.344-.344-.688-.688-.688-1.376-.345-1.033 0-2.066.688-2.754l1.033-1.033c.344-.344 1.032-.344 2.065-.688 1.032 0 2.753-.344 4.13-.344 1.721 0 3.442.344 5.163.688 1.72.344 3.786 1.033 5.507 1.377 1.72.344 2.753 1.033 3.786 1.377l7.916-14.456c-1.032-.689-2.065-1.033-3.786-1.721-1.72-.689-4.13-1.377-6.883-2.065-2.754.344-5.852 0-8.95-.344-3.097 0-6.195.344-8.604.344-2.41.344-4.13.688-6.196 1.376-2.065.689-4.818 2.066-6.883 3.442-2.066 1.377-3.787 3.098-4.82 4.13-1.032 1.033-1.376 1.722-2.064 2.41-.689 1.033-1.377 2.065-1.721 3.442-.689 1.377-1.033 2.41-1.033 3.786-.688 2.41-.688 4.819 0 7.572 0 1.721.344 3.098 1.033 4.475.688 1.376 1.377 2.753 2.41 3.786l2.753 2.753c1.032.689 1.72 1.377 3.786 2.41 1.72.688 4.474 1.72 6.195 2.409 2.065.688 3.442 1.033 4.475 1.033 1.376.344 2.753.344 3.442.688 1.032 0 1.376.344 1.72.344.689 0 1.033 0 1.721.344.689.345 1.377.689 1.721 1.033.345.344.689 1.032.689 1.377.344.344.344 1.032.344 1.72 0 .689-.344 1.377-.344 2.066-.344.688-.689 1.032-1.033 1.377-.344.344-1.032.688-1.72 1.032-.69.344-1.033.344-2.066.344-1.032 0-2.41-.344-3.442-.344-1.032-.344-1.377-.344-2.065-.688-2.065-.689-4.13-1.721-6.195-2.41-2.065-1.032-4.13-2.065-5.852-3.097l-5.507 8.949L48.746.528h-30.29L.216 69.366H21.21l3.442-14.112h19.62l3.785 14.112h20.307l-1.376-4.819c.688.345 1.032.689 2.409 1.033 1.377.688 3.098 1.377 5.851 2.065s5.507 1.377 8.26 1.721c2.754.344 5.164.344 7.229 0 2.065-.344 3.786-.688 5.507-1.033 3.098-.688 6.195-1.72 9.637-3.786 1.721-1.032 3.098-2.065 4.819-3.097 1.377-1.033 2.753-2.41 3.442-3.442.688-1.033 1.377-1.721 1.72-2.41.345-.688.69-1.376 1.378-2.065v15.833H145.463c1.033 0 2.754-.344 4.475-1.033 1.72-.688 4.13-1.376 6.195-2.065 2.065-1.032 3.786-2.065 5.163-3.097 1.377-1.033 2.753-2.066 4.13-3.442 1.377-1.377 2.41-2.754 3.786-4.13l-3.097 13.423h19.963l3.786-14.112h19.274l4.475 14.112h19.963L212.58.528zM28.438 40.454l5.163-21.684 6.196 21.684H28.438zm124.942-5.163c0 1.721-.345 3.786-1.033 5.851-.688 2.066-1.377 3.787-2.41 4.82-.688 1.376-1.376 1.72-2.409 2.408-1.032.689-2.065 1.033-3.097 1.377-1.033.344-1.721.344-2.41.344h-5.507V18.77h2.065c1.033 0 2.066 0 3.442.344 1.377.344 3.098.689 4.13 1.377 1.033.344 1.722 1.033 2.754 2.065 1.033 1.033 2.065 2.754 2.754 4.13.688 1.377 1.032 2.754 1.376 4.13.345 1.377.689 2.754.345 4.475zm39.237 5.163l5.507-22.028 5.852 22.028h-11.359z" fill-rule="evenodd" clip-rule="evenodd"/></svg>