<svg xmlns="http://www.w3.org/2000/svg" viewBox="0 0 306 58" width="306" height="58"><path fill="#74787d" d="M73.6 9c-2.9 0-4.8-1.8-4.8-4.4 0-2.2 1.5-4.1 4.8-4.1 3.1 0 4.6 2 4.6 4.2.1 2.7-1.7 4.4-4.6 4.3M46.2 46.6c-6.2 0-11.4-3.5-11.4-10.1 0-8 8.9-9.8 12.8-10.3 6.4-.8 7-1.2 7-2.9 0-3.6-.6-6.5-5.1-6.5-3 0-5.4.9-7.7 2.2l-1.2.8c-.4.3-1.1 1.1-1.9 1.1-.4 0-1.2-.4-1.2-1.5v-3.3c0-.7.3-1.3 1.1-1.8 3-1.5 7.5-2.3 11.5-2.3 10.4 0 13.5 4.1 13.5 10v23c0 .5-.3.9-.9.9H56c-.3 0-.7-.3-.7-.9l-.2-1.9c-2.3 2-5.1 3.5-8.5 3.5M54.7 29c-8.1 0-11.2 3.6-11.2 7.6 0 2.8 1.5 5.6 5.4 5.6 3.4 0 5.9-2.6 5.9-3.5V29m106.9 17.7c-5.2 0-9.1-1.8-11.7-3.8-1.1-.8-1.3-2.2-1.3-3.4V1.8c0-.5.4-.9.7-.9h7.1c.5 0 .9.4.9.9v14.6c1.4-1.2 4.6-3.7 9.6-3.7 7.6 0 12.4 6.6 12.4 15.4 0 11.3-7.8 18.8-17.5 18.8m-4.6-6.7c0 .7.2 1.4 1 1.9.7.5 1.8.8 4 .8 4.7 0 8-4.8 8-13 0-3-.7-11.7-7.4-11.7-2.7 0-4.6 1.5-5.7 2.3v20l.1-.3M247.2 58c-.9 0-1.8 0-3-.3-.9-.2-1.5-.8-1.5-1.5V52c0-.5.4-1 1-1 .8 0 1.4.2 2.2.4 1.4.3 2.7.5 3.9.5 4.1 0 7.1-2.1 7.2-6.2l-13.3-30.8c-.3-.8-.4-1-.4-1.2 0-.5.3-.7.7-.7h8c.6 0 .9.2 1.1.8l8 21 7.7-21c.1-.5.5-.8 1-.8h3.3c.3 0 .6.3.6.7 0 .3-.2.5-.3.9L260 49.2c-1.9 4.8-7.1 8.7-12.8 8.8M13.3 46.9c-4.1 0-8.3-.9-12.1-2.7-.7-.5-.9-.8-.9-1.5V39c0-.7.2-1.3 1.5-1.3.7 0 1.1.3 2 1 3.8 2.6 7.4 3.7 10.4 3.7 5.1 0 8.6-3.1 8.6-6.9 0-10-22.9-7-22.9-21.8C0 6.8 5.3.9 15 .9c4.8 0 9.2.9 11.7 1.9.7.3.8.6.8 1.3v4.2c0 .6-.2 1.2-1 1.2-.6 0-1.2-.4-2-1-2.9-2.1-5.7-3.4-9.4-3.4-4.1 0-7.3 2.2-7.3 5.6 0 8.4 23.2 7.5 23.2 21 0 10.2-8.5 15-17.8 15m64-1h-7.1c-.4 0-.8-.4-.8-.9v-31c0-.5.4-.9.7-.9h7c.5 0 .9.4.9.9V45c0 .5-.4.9-.9.9m120.6.7c-7.3 0-14.6-3-14.6-11.3V13.9c0-.5.3-.9.7-.9h7.1c.5 0 .9.4.9.9V37c0 3.4 2.2 5.6 5.9 5.6 4.5 0 6-2.5 6-7.3V13.8c0-.5.3-.9.7-.9h7c.5 0 .9.4.9.9v20.6c0 9.1-7.4 12.2-14.7 12.2m-84.1-.7h-7.1c-.4 0-.7-.4-.7-.9V23c0-2.5-.4-5.4-5.2-5.4-2.5 0-5.5 1.5-6.9 2.2V45c0 .5-.3.9-.9.9h-7c-.3 0-.7-.4-.7-.9V13.8c0-.5.4-.9 1-.9h7c.5 0 .9.4.9.9v1.7c2-1.3 6.5-3.3 10.6-3.3 7.1 0 10.2 4.1 10.2 10.1V45c0 .5-.3.9-.9.9m17.4.8c-3.5 0-7.2-.8-10-2.1-.8-.4-1.1-1.1-1.1-1.9v-2.9c0-1 .5-1.3 1.2-1.3.5 0 1 .2 1.4.6 3 2.3 6.5 3.4 9.3 3.4 3.3 0 5.7-1.4 5.7-4.1 0-6.3-18.4-3.9-18.4-15.6 0-7.1 6.1-10.4 13-10.4 3.1 0 6.3.6 9.3 1.9.9.4 1.1 1.1 1.1 1.9v2.4c0 1-.4 1.3-1.1 1.3-.3 0-.9-.3-1.4-.6-2.6-1.8-6.1-2.8-9.1-2.8s-5.4 1.1-5.4 3.5c0 5.8 18.8 3.1 18.8 14.7 0 8.8-6.4 11.8-13.1 11.8m95.5-.8h-7c-.4 0-.7-.4-.7-.9v-31c0-.5.4-.9.7-.9h6.8c.6 0 .9.4.9.9l.1 3.9s.1 0 .1-.1c1.4-2.1 4.7-5.4 8.8-5.4 1 0 1.8 0 3.2.3 1 .2 1.5.8 1.5 1.5v4.6c0 .5-.5 1-1 1-.8 0-1.5-.3-2.4-.6-.9-.2-2.1-.3-3.1-.3-3.4 0-6.8 1.3-6.8 6v19.8c0 .5-.4.9-.9.9m50.4-33.2c-1.7.5 1.7-3.6 1.1-5.8-.6-2.1-3-5-1.3-5.7 1.7-.7 4.9-.7 5.8.5 2.1 3.9-.6 10.2-5.6 11zM293 46.7c-3.6 0-7.2-.9-10-2.1-.9-.4-1.1-1-1.1-1.9v-2.9c0-1 .5-1.3 1.2-1.3.5 0 1 .3 1.4.6 3 2.3 6.5 3.4 9.3 3.4 3.2 0 5.7-1.4 5.7-4.1 0-6.3-18.5-3.9-18.5-15.5 0-7.1 6.1-10.3 13-10.3 3.1 0 6.4.6 9.3 1.9.9.4 1.1 1.1 1.1 1.9v2.5c0 1-.4 1.3-1.2 1.3-.3 0-.9-.3-1.4-.6-2.6-1.8-6.1-2.8-9.1-2.8s-5.4 1.1-5.4 3.5c0 5.8 18.7 3.2 18.7 14.8 0 8.8-6.4 11.9-13.1 11.9"/></svg>