<svg xmlns="http://www.w3.org/2000/svg" width="200" height="53.292" viewBox="0 -0.976 200 53.292"><g stroke="#fff"><path d="M15.266 43.138c-4 0-7.24 2.29-8.805 3.913 0 0-3.806 3.772-6.383 5.078-.113.062-.11.187.046.187h23.294c4.605 0 6.77-1.56 9.503-4.007 0 0 3.98-3.698 6.708-4.892.275-.104.21-.279 0-.279H15.266zm40.018 0c-4 0-7.238 2.29-8.805 3.913 0 0-3.805 3.772-6.382 5.078-.114.062-.112.187.046.187h23.34c4.604 0 6.771-1.56 9.503-4.007 0 0 3.935-3.698 6.662-4.892.275-.104.255-.279.046-.279h-24.41zm40.064 0c-4 0-7.239 2.29-8.805 3.913 0 0-3.806 3.772-6.383 5.078-.112.062-.109.187.048.187h23.34c4.604 0 6.723-1.56 9.457-4.007 0 0 3.98-3.698 6.707-4.892.276-.104.256-.279.047-.279H95.35zm40.018 0c-3.999 0-7.192 2.29-8.759 3.913 0 0-3.852 3.772-6.43 5.078-.112.062-.109.187.048.187h23.34c4.604 0 6.77-1.56 9.503-4.007 0 0 3.982-3.698 6.71-4.892.276-.104.207-.279 0-.279h-24.412zm40.063 0c-4 0-7.24 2.29-8.805 3.913 0 0-3.808 3.772-6.384 5.078-.114.062-.11.187.046.187h23.342c4.604 0 6.768-1.56 9.504-4.007 0 0 3.936-3.698 6.66-4.892.275-.104.258-.279.047-.279h-24.41z" fill="#0054a4" stroke-width=".079" stroke-miterlimit="11.474"/><path d="M96.793-1.165c-8.515 0-16.818 2.528-16.818 10.994 0 14.661 25.575 6.916 25.575 15.886 0 2.924-4.535 4.1-8.198 4.1-6.58 0-11.115-.979-16.864-4.426v7.36c4.286 1.413 10.117 2.097 16.445 2.097 8.833 0 17.097-2.28 17.097-10.948 0-15.308-25.576-8.43-25.576-15.932 0-3.02 4.104-4.053 7.688-4.053 6.031 0 12.542 1.765 16.12 5.077V1.164c-4.63-1.46-10.776-2.329-15.469-2.329zm45.188.093c-15.359 0-25.529 7.383-25.529 18.634 0 10.326 9.334 17.237 23.293 17.237 4.522 0 8.558-.593 13.276-1.725v-8.712c-3.335 3.524-7.299 4.938-11.553 4.938-8.244 0-13.883-5.136-13.883-12.532 0-7.295 5.846-12.625 14.021-12.625 4.455 0 8.026 1.62 10.901 4.427V-.142c-2.989-.616-6.738-.93-10.526-.93zm35.823 0c-13.235 0-22.594 7.62-22.594 18.354 0 10.531 8.404 17.518 20.918 17.518 13.295 0 22.453-7.428 22.453-18.215.003-10.584-8.325-17.657-20.777-17.657zM1.384 0v8.246c2.877-2.23 8.894-3.07 15.466-3.12v22.5c0 3.271-.289 4.203-1.677 5.916h12.998c-1.459-1.713-1.678-2.645-1.678-5.917V4.936c5.696.05 12.496 1.077 15.373 3.31V0H1.384h0zm43.977 0c1.36 1.712 1.63 2.688 1.63 5.963v21.662c0 3.272-.246 4.255-1.537 5.917h31.4V25.39c-4.309 3.067-12.508 3.078-15.84 3.027H56.45v-9.363h3.354c2.273 0 6.374.27 8.758.98v-6.988c-2.35.755-6.492.98-8.758.98H56.45V5.127h4.565c4.08 0 11.173.844 13.836 3.075V.004H45.361V0zm131.561 4.007c6.932 0 11.506 5.735 11.506 12.811s-4.574 12.812-11.506 12.812c-7.045 0-11.556-5.736-11.556-12.812.001-7.075 4.511-12.81 11.556-12.81z" fill="#f02e25" stroke-width=".03" stroke-miterlimit="3.864"/></g></svg>