<svg xmlns="http://www.w3.org/2000/svg" viewBox="0 0 200 53.3" width="200" height="53.3"><g stroke="#fff"><path fill="#74787d" d="M15.3 44.1c-4 0-7.2 2.3-8.8 3.9 0 0-3.8 3.8-6.4 5.1-.1.1-.1.2 0 .2h23.3c4.6 0 6.8-1.6 9.5-4 0 0 4-3.7 6.7-4.9.3-.1.2-.3 0-.3H15.3zm40 0c-4 0-7.2 2.3-8.8 3.9 0 0-3.8 3.8-6.4 5.1-.1.1-.1.2 0 .2h23.3c4.6 0 6.8-1.6 9.5-4 0 0 3.9-3.7 6.7-4.9.3-.1.3-.3 0-.3H55.3zm40 0c-4 0-7.2 2.3-8.8 3.9 0 0-3.8 3.8-6.4 5.1-.1.1-.1.2 0 .2h23.3c4.6 0 6.7-1.6 9.5-4 0 0 4-3.7 6.7-4.9.3-.1.3-.3 0-.3H95.3zm40.1 0c-4 0-7.2 2.3-8.8 3.9 0 0-3.9 3.8-6.4 5.1-.1.1-.1.2 0 .2h23.3c4.6 0 6.8-1.6 9.5-4 0 0 4-3.7 6.7-4.9.3-.1.2-.3 0-.3h-24.3zm40 0c-4 0-7.2 2.3-8.8 3.9 0 0-3.8 3.8-6.4 5.1-.1.1-.1.2 0 .2h23.3c4.6 0 6.8-1.6 9.5-4 0 0 3.9-3.7 6.7-4.9.3-.1.3-.3 0-.3h-24.3z" stroke-width=".079" stroke-miterlimit="11.474"/><path fill="#74787d" d="M96.8-.2C88.3-.2 80 2.3 80 10.8c0 14.7 25.6 6.9 25.6 15.9 0 2.9-4.5 4.1-8.2 4.1-6.6 0-11.1-1-16.9-4.4v7.4c4.3 1.4 10.1 2.1 16.4 2.1 8.8 0 17.1-2.3 17.1-10.9 0-15.3-25.6-8.4-25.6-15.9 0-3 4.1-4.1 7.7-4.1 6 0 12.5 1.8 16.1 5.1v-8C107.6.7 101.5-.2 96.8-.2zm45.2.1c-15.4 0-25.5 7.4-25.5 18.6 0 10.3 9.3 17.2 23.3 17.2 4.5 0 8.6-.6 13.3-1.7v-8.7c-3.3 3.5-7.3 4.9-11.6 4.9-8.2 0-13.9-5.1-13.9-12.5 0-7.3 5.8-12.6 14-12.6 4.5 0 8 1.6 10.9 4.4V.8c-3-.6-6.7-.9-10.5-.9zm35.8 0c-13.2 0-22.6 7.6-22.6 18.4 0 10.5 8.4 17.5 20.9 17.5 13.3 0 22.5-7.4 22.5-18.2 0-10.6-8.3-17.7-20.8-17.7h0zM1.4 1v8.2c2.9-2.2 8.9-3 15.5-3.1v22.5c0 3.3-.3 4.2-1.7 5.9h13c-1.5-1.7-1.7-2.6-1.7-5.9V5.9C32.2 6 39 7 41.9 9.2V1H1.4s0 0 0 0zm44 0C46.8 2.7 47 3.7 47 7v21.7c0 3.3-.2 4.3-1.5 5.9h31.4v-8.2c-4.3 3.1-12.5 3.1-15.8 3h-4.6V20h3.4c2.3 0 6.4.3 8.8 1v-7c-2.3.8-6.5 1-8.8 1h-3.4V6.1H61c4.1 0 11.2.8 13.8 3.1V1H45.4s0 0 0 0zm131.5 4c6.9 0 11.5 5.7 11.5 12.8s-4.6 12.8-11.5 12.8c-7 0-11.6-5.7-11.6-12.8.1-7.1 4.6-12.8 11.6-12.8z" stroke-width=".03" stroke-miterlimit="3.864"/></g></svg>