<svg id="Layer_1" data-name="Layer 1" xmlns="http://www.w3.org/2000/svg" viewBox="0 0 277.31 217.73" width="277.31" height="217.73"><defs><style>.cls-1{fill:#2e2e2e}</style></defs><g id="Layer_1-2" data-name="Layer 1"><path class="cls-1" d="M139.62 64.54l.71-.69c-1 6.9-1.9 13.59-2.44 20.32-.32 4 .3 6.81 4.05 6.21a19.08 19.08 0 006.16-2.48c1.76-1.1 1.9-2.08 2.27-3.78 3.68-17.1 10.76-33.43 18.53-38.6 2-1.36 4.61-1.63 4.31 3-.42 6.34-3.11 15-3.55 22.66-.78 13.55 11.37 14.35 20 10.19 1.58-.77 1.88-1.06-.13-1.93-4.46-1.93-5.71-5.7-5.88-10.88-.15-4.28.92-10.53 1.66-16.83 2.09-17.56-10.37-19.19-19.66-10-7.35 7.27-10.47 14.48-14.51 23.76l-.29-.08q1-7.53 2-14.12c10.66-11.42 22-26.68 20.71-42-1-11.77-13.1-13.11-20.65.42-3.61 6.47-6 14.45-8.93 31.84-1 5.74-2 11.69-2.9 17-1.46 1.53-2.7 2.58-4.19 4-2.06 1.91-1 5.58 2.72 2m24.8-57.83c2-3 4.33-1.93 4.52 1.34.39 6.48-2.49 16.12-7.66 25.52a77.49 77.49 0 01-7.27 10.7c3.61-20.76 7.46-33.24 10.4-37.57M195.26 36.08q2.37-.81 4.75-1.5c-1.56 10.41-3.28 22.17-3.6 25.86-.62 7.17.08 10.81 2.13 13.28 1.84 2.24 4.63 3.06 8 2.91 6.18-.28 13.07-4.15 14.39-7.27.43-1-.12-.84-.88-.6-8.25 2.61-11.79.78-10.64-8.91.73-6.13 2.48-17.52 4.15-28.14 3.46-.49 7.16-.84 11.27-1.06 2.23-.12 4.36-5.5 0-5.27a104.59 104.59 0 00-10.45 1.12c1.27-8 2.39-14.92 2.83-17.84.84-5.62-2.59-4.75-5.54-3.33a20.45 20.45 0 00-5.67 4c-2.34 2.41-2.7 3.28-3.32 7.57-.19 1.37-1 6.45-1.92 12.72-1.67.53-3.24 1.1-4.69 1.7-2.88 1.2-3.71 5.72-.81 4.74M108.67 201.52a37.24 37.24 0 01-10.88-3.79 72.83 72.83 0 008-15.36c1.86-5-1.31-6.11-3.29-2.78a66.81 66.81 0 01-11 14.47 41.74 41.74 0 01-13.32-14.81 66.24 66.24 0 005.76-4.25c4.32-3.75 8.49-8.44 9.64-14.54 1.37-7.27-3.45-14.72-14.19-13.09-11.71 1.77-16.48 13.08-16.48 21.07a28.45 28.45 0 003.39 12.92c-8.08 7.19-12.49 15.62-13 21.37-.92 9.47 5.78 15.24 14.29 15 10.39-.28 19.07-6.4 25.67-14 4.85 1.54 10.2 2.47 14.59 1.83 3.44-.5 3.88-3.36.87-4m-34.57-46.21c1.7-2.81 4.34-3.93 6.84-3.2 2.81.81 4.44 5.37 2.32 11.17-1.31 3.68-3.31 6.6-7.78 10.56-3-7.13-3.81-14.53-1.38-18.53m5.92 47.34c-13.48 8.28-23.17-2.12-12.89-14.3a28.78 28.78 0 012.08-2.2 48.08 48.08 0 0015.08 13.73c-1.33.92-2.76 1.84-4.27 2.77M75.4 55.56a15.89 15.89 0 009.43-5.26c2.78-3.41 1.78-6-1.63-7.07a11.56 11.56 0 00-13.13 5.26c-2 3.87-.08 7.83 5.33 7.07M128 74.56c-1.17-2.34-3.13-3.16-5.48-1.3-3.89 3.08-6.89 8.63-12.36 12.22-3.43 2.26-6.34 1-6.38-4.28-.08-7.55 5.15-17.93 10-22.16 5.17-4.55 9.84-3.81 13.62 2.07 1.78 2.77 4.75 1.56 3.64-1.15-7.63-18.56-38.57-6.47-41.12 24a16.87 16.87 0 00.76 6.91A30.09 30.09 0 0184.19 98c-5.76 4.65-9.3 3.15-8.2-7.34.92-8.7 3.14-15.83 5.82-24.94.62-2.09 0-3.34-2.42-2.78a37.76 37.76 0 00-9.21 3.66c-3.27 1.73-4.34 4.1-5.34 7.75a111.42 111.42 0 00-3.48 21.85c-.42 10.45 4.86 16.42 15.22 12.92 5.92-2 12.21-8.23 16.41-14.35 2.39 2.51 6 3.44 10.38 2s9.55-5.45 13.37-10.94c1.64 5.7 1.75 11.17 1.36 20.15-.63 14.32-6.47 25.64-13.51 30.64-6.32 4.5-9.47 1.57-7.33-4.93 1.7-5.19 6.85-14.33 16.18-21 3.06-2.18 2.75-11.52-.49-9.7-10.91 6.12-21 23.25-22.79 35-1.53 10.08 3.3 15.67 14.92 10.35 9.23-4.24 18.65-15.25 22.62-28.93s4.24-35 .29-43M274.59 151.65c-12.66 16.47-25.71 11.63-24.95-1.39 9.74-1.2 18.29-5.89 21.7-12.72 5.19-10.38-1.55-16.74-11.73-14.4-11.59 2.67-20.91 15.08-22 27.25a27.55 27.55 0 00.13 6.48c-13.19 17.17-25.26 11.21-24.56-1 10.1-1 19-7.27 22-13.92 5.2-11.45-1.73-17-11.5-14.66-12.17 3-22.63 16.82-23.78 29.63-1.2 13.31 6.14 19 14.64 19.54 8.07.49 18.94-5.64 24.64-14.61a13.78 13.78 0 0011.75 8c8.15.76 20.28-5.68 25.86-16.37 1.44-2.76-.43-4.12-2.19-1.83m-12.86-22.87c3.57-1.62 5.43-.38 4 4.41-1.79 6.18-8.84 11.42-15.42 12.65 2.59-10.61 7.87-15.45 11.38-17.06m-35.82 4.47c3.2-1.47 7.68-.29 5.16 5.55s-9.34 8.51-16.24 9.31c3.17-9.82 7.7-13.3 11.08-14.86" transform="translate(0 -.01)"/><path class="cls-1" d="M204.3 131c3.87 3.44 8.88-.56 9.81-4.47 1-4.3-1.37-8-6.88-7.26-6.77.87-13.13 7.49-18.56 18.84-.25.52-.52.47-.4 0a47.31 47.31 0 001.51-7.07c.22-4.34-3.12-4.18-6.91-3.68-5.08.64-12.87 2.64-21.5 5.64 2.78-10.24 5.51-20.66 7.69-30.75 22.13-6.75 44.52-12.1 61.42-9.33s12.79 11.42 7.09 14.13c-1.81.85-1.24 2.58 1.16 2 7.81-2 15.4-17.79-7.58-22-31.29-5.7-72.7 6.73-88.55 13.52-4.26 1.82-5.54 4.15-7.3 8.73-2.5 6.54 1.74 7.15 6.09 4.87q5.19-2.72 10.39-5.06c-1.87 8.58-4.78 19.43-7.91 30.88a126.71 126.71 0 00-16 8.67c-3.89 2.55-3.23 12.16 1.59 8.88 3.27-2.22 7.24-4.71 11.61-7.22-4.92 18-9.81 36.15-11.68 48.38-1 6.34.89 8.61 6.51 5.55a47.34 47.34 0 0011-8.78c.69-.74.72-1.52.81-2.79.93-13.1 6-31.62 11.46-51.46a96.8 96.8 0 0114.83-5.11c1.9-.46 1.36.77 1.18 1.54-2.91 12.68-6.81 35.75-7.46 44.53-.3 3.93 2.25 4.77 4.46 4.24 4.47-1.08 7.09-3.94 9.12-5.46 1.24-.93 1.18-1.64 1.3-3.31 1.24-17.69 6-32.92 10.56-39.6 3.51-5.18 7.64-10.16 11.2-7M80.4 131a4.53 4.53 0 004.6-1.62c2.41-2.55 4.32-6.51 4-9.34-.18-1.71-1.63-2.69-4.4-2.68-14.13 0-36.07 12.77-55.85 28.37-1.45 1.14-2 .75-1.49-1.66 1.23-5.93 12.23-48.25 12.23-48.25a924 924 0 001.7-7.07c1.09-4.59 2-9 2.92-13 8.69-6.51 13.73-10.94 18.66-18.9C71.38 43 63.54 33 55.15 32.47 49.24 32 44 34.89 39.33 41.25c-5.91 8-9.12 22.7-11.9 34.1-.34 1.4-.79 3.23-1.32 5.39a46.78 46.78 0 01-10.4 3.67C1.93 87.48 1.64 78.27 5.87 73.59 7.2 72.1 6 70.72 4 72.2-2.42 77-3.08 93.37 17 89.66a40.81 40.81 0 007.49-2.23l-.19.86c-5.5 22.54-15.07 61.9-17.14 72.37-1 5 3.21 7.38 8.29 3.36 31.35-24.81 55-34.31 65-33M59.54 43.25c-.3 4.41-5.27 14.57-13.08 21.15 2.37-11.64 4.08-20 6.27-23.72 2.28-3.92 7.12-1.87 6.81 2.57M139.62 64.54l.71-.69c-1 6.9-1.9 13.59-2.44 20.32-.32 4 .3 6.81 4.05 6.21a19.08 19.08 0 006.16-2.48c1.76-1.1 1.9-2.08 2.27-3.78 3.68-17.1 10.76-33.43 18.53-38.6 2-1.36 4.61-1.63 4.31 3-.42 6.34-3.11 15-3.55 22.66-.78 13.55 11.37 14.35 20 10.19 1.58-.77 1.88-1.06-.13-1.93-4.46-1.93-5.71-5.7-5.88-10.88-.15-4.28.92-10.53 1.66-16.83 2.09-17.56-10.37-19.19-19.66-10-7.35 7.27-10.47 14.48-14.51 23.76l-.29-.08q1-7.53 2-14.12c10.66-11.42 22-26.68 20.71-42-1-11.77-13.1-13.11-20.65.42-3.61 6.47-6 14.45-8.93 31.84-1 5.74-2 11.69-2.9 17-1.46 1.53-2.7 2.58-4.19 4-2.06 1.91-1 5.58 2.72 2m24.8-57.83c2-3 4.33-1.93 4.52 1.34.39 6.48-2.49 16.12-7.66 25.52a77.49 77.49 0 01-7.27 10.7c3.61-20.76 7.46-33.24 10.4-37.57M195.26 36.08q2.37-.81 4.75-1.5c-1.56 10.41-3.28 22.17-3.6 25.86-.62 7.17.08 10.81 2.13 13.28 1.84 2.24 4.63 3.06 8 2.91 6.18-.28 13.07-4.15 14.39-7.27.43-1-.12-.84-.88-.6-8.25 2.61-11.79.78-10.64-8.91.73-6.13 2.48-17.52 4.15-28.14 3.46-.49 7.16-.84 11.27-1.06 2.23-.12 4.36-5.5 0-5.27a104.59 104.59 0 00-10.45 1.12c1.27-8 2.39-14.92 2.83-17.84.84-5.62-2.59-4.75-5.54-3.33a20.45 20.45 0 00-5.67 4c-2.34 2.41-2.7 3.28-3.32 7.57-.19 1.37-1 6.45-1.92 12.72-1.67.53-3.24 1.1-4.69 1.7-2.88 1.2-3.71 5.72-.81 4.74M108.67 201.52a37.24 37.24 0 01-10.88-3.79 72.83 72.83 0 008-15.36c1.86-5-1.31-6.11-3.29-2.78a66.81 66.81 0 01-11 14.47 41.74 41.74 0 01-13.32-14.81 66.24 66.24 0 005.76-4.25c4.32-3.75 8.49-8.44 9.64-14.54 1.37-7.27-3.45-14.72-14.19-13.09-11.71 1.77-16.48 13.08-16.48 21.07a28.45 28.45 0 003.39 12.92c-8.08 7.19-12.49 15.62-13 21.37-.92 9.47 5.78 15.24 14.29 15 10.39-.28 19.07-6.4 25.67-14 4.85 1.54 10.2 2.47 14.59 1.83 3.44-.5 3.88-3.36.87-4m-34.57-46.21c1.7-2.81 4.34-3.93 6.84-3.2 2.81.81 4.44 5.37 2.32 11.17-1.31 3.68-3.31 6.6-7.78 10.56-3-7.13-3.81-14.53-1.38-18.53m5.92 47.34c-13.48 8.28-23.17-2.12-12.89-14.3a28.78 28.78 0 012.08-2.2 48.08 48.08 0 0015.08 13.73c-1.33.92-2.76 1.84-4.27 2.77" transform="translate(0 -.01)"/><path class="cls-1" d="M75.4 55.56a15.89 15.89 0 009.43-5.26c2.78-3.41 1.78-6-1.63-7.07a11.56 11.56 0 00-13.13 5.26c-2 3.87-.08 7.83 5.33 7.07M128 74.56c-1.17-2.34-3.13-3.16-5.48-1.3-3.89 3.08-6.89 8.63-12.36 12.22-3.43 2.26-6.34 1-6.38-4.28-.08-7.55 5.15-17.93 10-22.16 5.17-4.55 9.84-3.81 13.62 2.07 1.78 2.77 4.75 1.56 3.64-1.15-7.63-18.56-38.57-6.47-41.12 24a16.87 16.87 0 00.76 6.91A30.09 30.09 0 0184.19 98c-5.76 4.65-9.3 3.15-8.2-7.34.92-8.7 3.14-15.83 5.82-24.94.62-2.09 0-3.34-2.42-2.78a37.76 37.76 0 00-9.21 3.66c-3.27 1.73-4.34 4.1-5.34 7.75a111.42 111.42 0 00-3.48 21.85c-.42 10.45 4.86 16.42 15.22 12.92 5.92-2 12.21-8.23 16.41-14.35 2.39 2.51 6 3.44 10.38 2s9.55-5.45 13.37-10.94c1.64 5.7 1.75 11.17 1.36 20.15-.63 14.32-6.47 25.64-13.51 30.64-6.32 4.5-9.47 1.57-7.33-4.93 1.7-5.19 6.85-14.33 16.18-21 3.06-2.18 2.75-11.52-.49-9.7-10.91 6.12-21 23.25-22.79 35-1.53 10.08 3.3 15.67 14.92 10.35 9.23-4.24 18.65-15.25 22.62-28.93s4.24-35 .29-43M274.59 151.65c-12.66 16.47-25.71 11.63-24.95-1.39 9.74-1.2 18.29-5.89 21.7-12.72 5.19-10.38-1.55-16.74-11.73-14.4-11.59 2.67-20.91 15.08-22 27.25a27.55 27.55 0 00.13 6.48c-13.19 17.17-25.26 11.21-24.56-1 10.1-1 19-7.27 22-13.92 5.2-11.45-1.73-17-11.5-14.66-12.17 3-22.63 16.82-23.78 29.63-1.2 13.31 6.14 19 14.64 19.54 8.07.49 18.94-5.64 24.64-14.61a13.78 13.78 0 0011.75 8c8.15.76 20.28-5.68 25.86-16.37 1.44-2.76-.43-4.12-2.19-1.83m-12.86-22.87c3.57-1.62 5.43-.38 4 4.41-1.79 6.18-8.84 11.42-15.42 12.65 2.59-10.61 7.87-15.45 11.38-17.06m-35.82 4.47c3.2-1.47 7.68-.29 5.16 5.55s-9.34 8.51-16.24 9.31c3.17-9.82 7.7-13.3 11.08-14.86" transform="translate(0 -.01)"/><path class="cls-1" d="M204.3 131c3.87 3.44 8.88-.56 9.81-4.47 1-4.3-1.37-8-6.88-7.26-6.77.87-13.13 7.49-18.56 18.84-.25.52-.52.47-.4 0a47.31 47.31 0 001.51-7.07c.22-4.34-3.12-4.18-6.91-3.68-5.08.64-12.87 2.64-21.5 5.64 2.78-10.24 5.51-20.66 7.69-30.75 22.13-6.75 44.52-12.1 61.42-9.33s12.79 11.42 7.09 14.13c-1.81.85-1.24 2.58 1.16 2 7.81-2 15.4-17.79-7.58-22-31.29-5.7-72.7 6.73-88.55 13.52-4.26 1.82-5.54 4.15-7.3 8.73-2.5 6.54 1.74 7.15 6.09 4.87q5.19-2.72 10.39-5.06c-1.87 8.58-4.78 19.43-7.91 30.88a126.71 126.71 0 00-16 8.67c-3.89 2.55-3.23 12.16 1.59 8.88 3.27-2.22 7.24-4.71 11.61-7.22-4.92 18-9.81 36.15-11.68 48.38-1 6.34.89 8.61 6.51 5.55a47.34 47.34 0 0011-8.78c.69-.74.72-1.52.81-2.79.93-13.1 6-31.62 11.46-51.46a96.8 96.8 0 0114.83-5.11c1.9-.46 1.36.77 1.18 1.54-2.91 12.68-6.81 35.75-7.46 44.53-.3 3.93 2.25 4.77 4.46 4.24 4.47-1.08 7.09-3.94 9.12-5.46 1.24-.93 1.18-1.64 1.3-3.31 1.24-17.69 6-32.92 10.56-39.6 3.51-5.18 7.64-10.16 11.2-7M80.4 131a4.53 4.53 0 004.6-1.62c2.41-2.55 4.32-6.51 4-9.34-.18-1.71-1.63-2.69-4.4-2.68-14.13 0-36.07 12.77-55.85 28.37-1.45 1.14-2 .75-1.49-1.66 1.23-5.93 12.23-48.25 12.23-48.25a924 924 0 001.7-7.07c1.09-4.59 2-9 2.92-13 8.69-6.51 13.73-10.94 18.66-18.9C71.38 43 63.54 33 55.15 32.47 49.24 32 44 34.89 39.33 41.25c-5.91 8-9.12 22.7-11.9 34.1-.34 1.4-.79 3.23-1.32 5.39a46.78 46.78 0 01-10.4 3.67C1.93 87.48 1.64 78.27 5.87 73.59 7.2 72.1 6 70.72 4 72.2-2.42 77-3.08 93.37 17 89.66a40.81 40.81 0 007.49-2.23l-.19.86c-5.5 22.54-15.07 61.9-17.14 72.37-1 5 3.21 7.38 8.29 3.36 31.35-24.81 55-34.31 65-33M59.54 43.25c-.3 4.41-5.27 14.57-13.08 21.15 2.37-11.64 4.08-20 6.27-23.72 2.28-3.92 7.12-1.87 6.81 2.57" transform="translate(0 -.01)"/></g></svg>