<svg viewBox="0 0 1089 514" width="1089" height="514" fill="none" xmlns="http://www.w3.org/2000/svg"><path fill-rule="evenodd" clip-rule="evenodd" d="M491.149 14.571c19.563 2.62 25.863 6.881 35.346 14.64 3.367 2.754 5.788 4.97 7.685 6.943a74.846 74.846 0 015.765-4.59l.221-.156c5.579-3.938 14.531-8.059 18.986-10l.31-.156 1.351-.579.692-.279.341-.144-.172.076c3.743-1.56 11.645-4.49 20.823-6.422l1.045-.174c4.384-.73 23.016-2.215 27.4-2.215h1.279l5.081.124c4.994.235 9.603.766 12.727 1.247l-3.079-.554c7.484.832 14.676 2.325 21.12 4.14 5.045-1.864 10.819-2.91 20.927-2.91 3.681 0 6.278.201 9.552.511h2.724c5.626 0 9.463-.256 14.833-.256 4.604 0 7.673.256 12.276.256h1.279a69.067 69.067 0 003.253-.08l6.026-.352a69.305 69.305 0 013.253-.08c2.046 0 3.836.256 6.137.256 1.791 0 3.837-.256 5.883-.256h5.626c4.2 0 7.374-.143 11.049.153l1.262.083c1.502-.099 3.959-.236 5.591-.236 2.854 0 7.003.425 9.947.791 2.433-.268 5.433-.535 7.7-.535 4.897 0 11.018 1.201 16.389 2.64 5.728-1.989 12.253-3.152 19.671-3.152 3.581 0 6.138.256 9.974.256 5.371 0 9.207-.51 14.578-.51 4.603 0 7.928.51 12.532.51l8.439-.256h1.564l3.578-.51h4.321c.958 0 2.438.081 3.818.18 1.484-.085 3.472-.18 4.622-.18 1.534 0 2.957.047 4.323.12l7.976.526c1.367.072 2.79.12 4.324.12 3.836 0 6.65-.51 10.486-.51 16.242 0 29.446 5.825 39.191 14.352 11.052 9.67 19.504 23.568 19.504 43.831 0 2.988-.34 7.431-.491 9.196.038 4.068.747 6.83.747 11.008 0 12.389-1.485 18.456-4.906 24.773 3.704 7.647 4.65 14.568 4.65 23.563 0 .75-.37 6.927-.511 9.246v2.235l-.489 3.42c.042 10.957.603 4.548-1.037 15.187-.993 6.955-1.581 8.829-2.575 11.809l-.167.502a33.9 33.9 0 012.058 3.525l-1.207-1.887c5.877 11.182 9.299 26.388 9.299 34.221 0-.84-.277-1.45-.277-1.45s.611 3.402.914 5.99c.304 2.432.479 5.431.557 8.289 1.768.122 3.602.206 5.633.206 3.836 0 6.649-.512 10.485-.512 16.242 0 29.449 5.827 39.189 14.354 11.05 9.67 19.51 23.568 19.51 43.83 0 2.989-.34 7.432-.49 9.196.03 4.069.74 6.83.74 11.008 0 12.389-1.48 18.457-4.9 24.774 3.7 7.647 4.65 14.568 4.65 23.563 0 .75-.37 6.927-.51 9.246v2.235l-.49 3.42c.04 10.957.6 4.548-1.04 15.187-.99 6.955-1.58 8.829-2.58 11.809l-.16.501c.84 1.27 1.01 1.609 1.01 1.609 5.87 11.181 9.14 26.417 9.14 34.251 0-.84-.28-1.451-.28-1.451s.61 3.403.91 5.991c.49 3.885.65 9.221.65 13.107 0 14.859-5.36 31.578-18.73 43.635-8.12 7.317-20 14.804-39.969 14.804-2.973 0-5.128-.409-8.112-.476l-1.456.171-2.752.305h-2.77c-2.045 0-3.58.256-5.626.256-4.603 0-7.672-.511-12.02-.511-5.606 0-9.417.244-15.838.511h-1.041c-2.558 0-4.348.256-6.65.256-3.824 0-6.883-.206-10.198-.512h-6.681c-2.046 0-3.581-.255-5.627-.255-2.051 0-3.713.097-5.466.156l-.398.099h-10.759c-19.487 0-34.005-7.992-43.336-17.514l.052.057-.093-.098a46.826 46.826 0 01-2.514-2.718l1.094 1.181c-1.974-2.216-5.025-6.036-7.785-10.895-3.732-5.89-7.146-12.801-8.409-23.111l-5.104 1.203-1.452.332-1.469.245c-.902.151-1.498.326-2.25.477l-4.855.971h-2.581l-1.796.255c-1.35 8.448-4.538 18.277-11.756 27.293-6.209 7.754-15.446 16.108-32.391 20.175l-2.278.546-2.319.332c-2.942.42-10.085 1.269-18.069 1.269-4.585 0-7.804-.455-12.234-.492l-2.131.237h-5.071c-5.268 0-10.481-.655-15.945-2.363-5.167 1.132-10.142 1.595-14.489 1.595h-2.302c-5.115 0-8.695.768-13.555.768-5.061 0-24.048-1.902-29.11-3.589-7.612-2.538-14.523-5.902-20.631-11.217-8.382 7.97-12.095 8.882-19.099 11.217 0 0-12.863 3.333-22.717 3.333l-11.351-.237c-1.965.187-5.719.493-8.342.493-4.618 0-9.293-.697-12.43-1.309-2.431-.284-4.574-.627-6.506-1.05-9.939 3.129-18.365 3.382-20.449 3.382-2.813 0-5.115-.256-9.183-.256l-.999-.04c-8.854-.354-10.974-.404-20.28-1.835l-.097-.016c-8.794-1.388-13.822-2.611-17.988-4-1.276-.425-4.903-1.923-6.919-2.768l-2.379-.679-4.156-2.079c-4.065-2.032-7.952-3.899-11.001-5.932a86.64 86.64 0 01-3.128-2.22l-1.326-.795-1.852-1.482c-1.263-.879-3.375-2.393-5.215-3.865l-.83-.726a109.55 109.55 0 01-2.602-2.359c-1.555 1.44-3.32 2.961-5.435 4.703a84.415 84.415 0 01-6.785 5.653l-3.299 2.475-3.66 1.9s-22.462 10.778-32.368 12.668c-8.222 1.787-14.257 1.277-22.837 1.991l-2.072.173h-.909c-1.521.109-3.938.256-5.519.256-1.789 0-4.201-.147-5.682-.256h-3.059l-3.874-.645-.171-.014c-3.324-.255-5.882-.511-9.207-.767l-2.204-.169-1.48-.247c-1.121-.123-3.298-.379-4.793-.628l-3.119-.52-3.028-.909a63.144 63.144 0 01-3.118-1.029c-5.996 2.22-13.177 3.649-21.9 3.649-2.973 0-5.128-.409-8.111-.476l-1.456.171-2.753.305h-2.769l-5.626.256c-4.604 0-7.673-.511-12.02-.511-5.606 0-9.417.244-15.839.511h-1.041c-2.557 0-4.348.256-6.649.256-3.824 0-6.884-.206-10.199-.512h-6.681c-2.046 0-3.58-.255-5.626-.255-2.051 0-3.713.097-5.467.156l-.398.099h-10.759c-19.486 0-34.004-7.992-43.336-17.514l.053.057-.093-.098a46.494 46.494 0 01-2.515-2.718l1.094 1.181c-1.973-2.216-5.025-6.036-7.784-10.895-4.637-7.317-8.781-16.208-8.912-31.234-4.552.581-9.72 1.132-11.194 1.132-6.531 0-11.843-.854-16.285-2.191-8.597 1.587-18.261 2.191-19.78 2.191-3.39 0-8.658-.658-10.977-.972l-.465-.052c-9.911-1.101-9.806.247-24.236-5.389 0 0-5.818-2.244-9.469-4.069-1.585-.793-6.536-3.66-12.084-7.623l-3.367-2.405-2.627-2.627-1.231-1.148-2.631-2.564-3.108-3.35-2.663-3.259-1.836-2.422.065.091-.832-1.111-.216-.323c-2.151-2.874-7.081-9.764-10.12-16.302l-.727-1.646c.227.545.47 1.094.727 1.646l.118.267c-3.097-6.635-5.464-13.919-6.776-27.472-.357-3.572-.427-6.427-.427-9.999 0-10.673 1.779-16.919 5.437-27.474 1.277-3.833 2.274-6.456 3.869-9.717 2.405-5.46 4.268-8.326 8.563-13.479l-.475.628 1.415-1.687c-.09-.936-.14-1.876-.149-2.817v-2.769l.306-2.752c.089-.801.239-1.803.412-2.824v-2.605l1.037-3.628.004-.028c1.168-8.176 2.149-20.826 19.653-39.538l2.025-2.024c7.557-7.558 14.887-11.643 17.701-13.331l.728-.404c4.543-2.524 8.447-4.053 11.5-5.005 10.117-3.96 11.776-4.684 22.709-4.693 2.745-.191 9.512-.504 15.694.39l1.716.283c-.565-.106-1.138-.2-1.716-.283l-.428-.071c1.256.18 2.153.359 3.409.539l3.381.483 1.785.509c1.521.31 3.474.737 4.908 1.147l2.459.702 2.375.95c1.806.723 3.946 1.511 7.559 3.317 2.858 1.429 8.876 4.399 15.962 10.45l1.815 1.551 2.384 2.211.756.757c9.076-10.036 22.703-18.783 43.05-18.783 3.581 0 6.138.256 9.974.256 5.371 0 9.207-.512 14.578-.512 4.603 0 7.928.512 12.532.512 3.069 0 5.37-.256 8.439-.256h1.564l3.578-.511h4.321c.958 0 2.438.082 3.818.181l.599-.035 1.471-.054.085-1.149c.024-2.776.127-5.006.447-7.841l.061-1.45-.012-1.408v-27.468c-.314-3.138-.511-5.989-.511-9.36 0-3.674.551-9.226.767-11.192v-.958l.014-.175c-.111-1.679-.27-4.541-.27-6.6v-2.769l.244-2.196-.244-.731v-5.507c-9.382-3.073-16.876-7.985-21.131-11.389l-2.162-1.73-1.959-1.958c-6.161-6.161-10.691-13.854-11.923-16.319l-5.279-10.557v-8.853c-.29-2.224-.511-4.63-.511-6.53 0-3.873.458-6.83.493-10.82-.1-1.475-.238-3.888-.238-5.549v-5.626c0-2.274.114-4.412.346-6.419.415-10.856 2.749-16.814 8.819-25.92 3.509-5.263 8.907-10.32 11.418-12.547-.906.79-2.029 1.786-2.613 2.37l5.737-5.738 7.258-3.629c8.464-4.232 13.651-6.813 29.521-6.813 3.681 0 6.278.202 9.552.512h2.724c5.626 0 9.463-.256 14.833-.256 4.604 0 7.673.256 12.276.256h1.279a69.067 69.067 0 003.253-.08l6.026-.352a69.338 69.338 0 013.253-.08c2.046 0 3.836.256 6.137.256 1.791 0 3.837-.256 5.883-.256h5.626c1.804 0 3.285-.11 4.882-.113h.481c2.023.01 4.073.094 6.234.302l.714.047c1.502-.099 3.959-.236 5.591-.236 3.635 0 6.992.291 10.292.758 2.367-.259 5.194-.502 7.355-.502 9.016 0 22.181 4.072 27.174 6.204 7.14-3.667 15.239-5.948 29.602-5.948h2.155l1.386.077c3.564.198 5.938.434 9.502.434 1.343 0 2.605-.032 3.828-.08l7.177-.35a96.948 96.948 0 013.828-.08h1.285c2.237-.253 5.075-.513 7.155-.513 1.408 0 6.725.358 11.149 1.01zM349.368 512.392l-1.686-.12 1.552.12h.134c.579.012 1.161 0 1.786 0h-1.786zM83.347 450.563l.219.024c-.047-.003-1.382-.186-1.382-.186s.437.064 1.163.162zm-58.284-28.171l.027.031-.153-.164.126.133zm128.218-177.317l-.56-.479 1.084.914-.524-.435zm111.49-81.892c.119.386.231.723.325.996.093.273.168.482.211.613l-.536-1.609zm694.699-7.136l-.276 1.812s.155-.654.276-1.812zM491.149 14.571l-.59-.078 1.753.26a61.871 61.871 0 00-1.163-.182z" fill="#fff"/><path d="M319.901 64.073c-4.603 0-7.672-.256-12.275-.256-5.371 0-9.207.256-14.834.256h-4.859c-2.813-.256-4.603-.512-7.417-.512-3.836 0-5.115.512-7.16 1.535-.512.511-1.535 1.023-2.558 2.557-.512.767-.512 1.28-.512 2.302-.255.511-.255 1.28-.255 2.302v5.626c0 1.79.255 3.07.255 4.86 0 4.347-.511 7.416-.511 11.508 0 1.534.511 3.07.511 3.58.256.512 1.28 2.046 2.558 3.325 1.279 1.023 3.836 3.325 7.16 3.325 1.535 0 2.558-.256 3.837-.512 1.023 0 3.07-.255 5.627-.255 10.997 0 19.18.511 21.994 7.416.767 1.79 1.279 4.092 1.279 5.882 0 1.023-.256 1.79-.256 3.07 0 1.534.256 2.813.256 4.347.255 2.046.255 3.58.255 5.627 0 5.37-.255 8.95-.255 14.066v4.859c.255.767.767 4.603.767 7.672-.256 2.302-.512 3.836-.767 6.138 0 3.325.511 5.37.255 8.696 0 3.836-.767 6.393-.767 10.23 0 2.557.256 4.603.512 7.16v29.667c0 2.558 0 4.604-.256 7.417-.256 2.046-.256 3.325-.256 5.37 0 1.024-.256 1.79-.256 3.07 0 1.278.512 2.045.768 3.324.255.767 1.278 5.882 6.137 5.882 1.535 0 3.07-.255 4.86-.511h.255c2.302 0 4.092.511 6.394.511 2.558.256 4.348 0 6.905 0h6.905c.512 0 2.814 0 5.115-.511 3.325-.767 5.627-2.813 6.394-4.604.512-1.023.767-1.278.767-3.069 0-3.068-.511-5.37-.511-8.183 0-2.814.511-4.86.511-7.417v-3.325c-.255-2.557 0-4.603 0-7.417 0-3.58-.511-6.137-.767-9.718 0-5.115.767-8.695.767-13.81 0-2.046 0-3.325-.255-5.115-.256-2.558 0-4.092 0-6.65 0-2.046-.256-3.58-.256-5.882-.256-4.86-.512-8.184-.512-13.043 0-2.557.256-4.603.256-7.417 0-3.069-.256-5.37-.256-8.44 0-2.557 0-4.091.256-6.649v-6.65c.256-2.557.512-4.091.767-6.649.512-2.813 0-2.813.512-4.859.256-1.534.256-1.279 2.046-3.58 1.279-1.535 1.534-2.046 2.557-2.814 3.837-3.068 9.463-2.813 18.414-2.813h4.092c3.325 0 7.161-.255 9.974-3.58 2.302-2.302 2.302-4.348 2.302-5.115 0-1.535-.256-2.813-.256-4.348v-3.58c0-3.837-.256-6.394-.256-10.23v-4.86c0-3.58-.767-6.649-2.813-7.928-.255-.255-3.836-1.534-6.138-1.534-2.813 0-4.603.767-7.672.767-3.58 0-6.394-1.023-9.974-1.023-1.79 0-3.325.256-4.86.256-2.045.256-3.58-.256-5.626-.256-2.557-.256-4.603 0-7.417 0h-5.626c-2.046 0-4.092.256-5.882.256-2.302 0-4.092-.256-6.138-.256-4.604 0-7.928.512-12.532.512h-1.279zm211.247 179.022c2.303 0 5.883.257 8.185-2.045 1.279-1.279 1.023-2.302 1.023-2.813 0-1.279-.256-2.302-.256-3.58-.767-7.162-1.279-4.604-2.557-9.975a37.888 37.888 0 01-1.023-4.603c-.768-3.837-1.28-6.394-2.302-9.975 0 0-.767-2.557-1.279-3.836-1.79-4.347-.767-2.046-1.279-5.882-.255-1.279-.511-2.046-.767-3.325-.511-2.046-.511-3.58-1.79-7.928-.512-1.023-1.79-5.115-2.046-6.138-.767-2.813-.512-5.115-1.023-7.928-.512-1.534-.767-2.813-1.279-4.348-.511-1.79-.767-3.069-1.279-5.115-.255-1.023-.767-1.79-1.278-3.069-1.023-3.836-.767-6.649-1.535-10.485-.767-3.58-1.278-5.882-2.301-9.463-.512-1.79-1.023-3.325-1.535-5.115-.511-1.79-.511-3.069-.767-4.859-.512-2.302-1.279-7.417-3.325-13.299-1.023-2.813-1.534-3.325-1.79-6.138-.256-1.279-.256-2.046-.512-3.325 0-1.534-.511-2.557-1.023-4.091-.511-2.046-.767-3.837-1.278-5.883-1.28-4.347-2.558-7.16-3.58-11.508-.512-2.558-1.024-4.092-1.791-6.65-.767-2.813-1.535-6.138-3.325-8.95-1.023-1.535-1.79-2.558-4.603-4.86-2.813-2.302-4.86-3.07-10.742-3.836-1.534-.256-3.58-.512-4.092-.512-1.79 0-3.069.512-4.859.512h-3.58c-5.371 0-9.463.511-14.834.511-4.603 0-7.672-.256-12.275-.51h-.768c-5.626 0-7.928 1.022-10.741 2.812-3.07 1.79-4.86 3.836-6.65 8.951-2.557 5.882-3.324 13.3-3.58 14.578-.512 2.813-.512 4.603-1.279 7.416-.767 2.814-1.79 4.604-2.557 7.417-.512 1.279-.512 2.302-.767 3.836-.768 2.813-1.28 4.604-1.79 7.417-1.28 5.37-1.79 9.207-2.814 14.833-.256.767-.256 1.279-.256 2.046-.511 1.79 0 2.558-1.278 5.627-.768 1.534-1.28 2.301-1.535 3.836-.767 2.302-1.023 3.836-1.534 6.394-.768 3.836-1.79 6.649-2.558 10.741-.767 4.092-.767 6.905-1.79 11.253-.512 2.557-1.023 4.348-1.79 6.905-1.023 3.069-1.28 5.626-2.046 8.695-.512 2.814-1.023 4.86-1.535 7.673-.511 3.58-.511 6.138-1.023 9.718a73.101 73.101 0 01-1.79 7.161c-.256.767-1.279 6.138-1.535 7.417-.255 2.302 0 4.092-.767 6.138-.255 1.79-2.301 5.626-2.301 10.23 0 2.557.767 3.58 1.79 5.115 2.301 3.069 2.813 2.557 5.626 2.813 1.535.256 2.302.767 4.86.767 2.813 0 4.603-.511 7.416-.511 4.604 0 7.673.255 12.276.255 3.069 0 5.882 0 6.905-.767.767-.256 1.023-.511 2.046-1.534.512-.512 1.023-.768 1.79-1.79.512-.768.512-1.024.768-1.28v-2.045c.511-4.86 2.301-8.184 3.069-10.23 1.023-2.046 1.278-3.836 2.813-5.37 1.279-1.28 2.046-1.791 3.325-2.558 1.023-.512 1.278-.512 3.068-1.023 1.535-.512 2.558-.512 4.092-1.023 7.673-1.535 5.883-1.023 11.253-1.023h.768c1.278 0 2.557-.256 4.092-.256 5.882 0 13.81.767 15.089 1.279 1.278.255 2.301 1.278 2.813 1.278 2.557 1.535 3.069 1.79 4.86 5.627.766 1.79 1.534 2.813 2.3 4.603.512 1.79.768 3.07 1.28 5.115 2.046 5.882 4.091 8.951 7.928 10.23 2.301.767 10.997 1.023 13.299 1.023 4.859 0 8.44-.767 13.554-.767h2.302l-.001-.001zm-66.493-129.919c2.813 0 4.603 2.558 5.37 3.836.256.768 1.279 5.371 1.535 6.138.511 1.535.767 2.558 1.278 4.092.768 2.558 1.535 4.092 2.302 6.65.512 3.069.512 5.115 1.279 7.928 1.279 5.882 4.092 10.23 5.115 21.227.256 2.046.511 3.58.511 5.37 0 .256.256 2.558-1.023 4.348-.511.768-1.278 1.023-2.046 1.28-1.534 1.022-7.928 2.045-14.066 2.045-7.16 0-16.112-1.79-16.112-12.276 0-3.836 1.79-9.718 2.813-13.554.256-1.79.256-2.814.512-4.604.511-2.557 1.023-4.348 1.534-6.905.512-2.302.512-3.836 1.023-6.138.256-.767.256-1.279.512-2.302.511-2.046 3.58-12.02 5.115-14.066 1.023-1.534 2.557-2.813 4.348-3.069zm146.287-51.66c-3.069 0-16.112 1.022-19.18 1.534-4.86 1.023-9.464 2.813-11.254 3.58-.511.256-7.16 2.558-11.508 5.627-9.207 6.65-12.276 15.6-13.044 17.646-2.557 6.394-3.069 8.696-3.069 19.437 0 2.302 0 3.836.256 6.138.512 4.092 1.79 7.672 2.046 8.951 2.302 8.44 2.046 7.928 5.37 13.555.257.767 2.047 4.092 4.86 7.16 2.558 2.814 4.604 4.348 7.161 6.906 1.279 1.023 2.046 2.046 3.325 3.069 1.534 1.534 2.557 2.301 4.347 3.836 2.046 1.534 3.325 3.069 5.371 4.86 2.046 1.534 3.836 2.045 6.138 3.58 1.79 1.278 4.86 4.603 5.115 4.603 5.115 4.604 6.905 5.115 9.207 10.742 1.279 3.068 1.279 4.603 1.279 6.137 0 15.09-14.834 13.555-17.135 13.555h-6.394c-3.325 0-4.86-1.023-7.928-2.046-3.07-.767-6.394-1.279-9.463-1.279h-3.58c-3.07.256-6.138.512-7.673 3.07-.511.255-1.023 1.534-1.023 2.813 0 .511 0 .767.256 2.046.256 2.557.256 1.79.256 3.836 0 3.58-.512 5.882-.768 9.462 0 2.814.256 4.86.256 7.929 0 2.301-.256 4.092-.256 6.649 0 2.302 0 3.836 4.604 6.138.767.511 3.836 1.79 6.394 2.557 1.534.256 2.557.256 4.092.512 3.324.256 5.882.511 9.206.767 1.535 0 2.814.256 4.348.512 1.79 0 2.813.255 4.604.255 1.534 0 2.813-.255 4.347-.255 6.138-.512 10.486.255 16.368-1.023 6.65-1.28 19.948-8.184 19.948-8.184 1.023-.768 2.302-1.79 3.58-3.07 5.627-4.603 7.162-6.393 11.254-12.02 3.069-3.836 2.813-3.324 4.092-6.137.511-1.535.767-2.814 1.534-4.348.768-1.535 1.535-2.557 2.046-4.348 1.535-4.347 1.79-10.741 1.79-15.089 0-15.345-2.557-21.994-7.416-29.667-1.023-1.79-1.79-3.069-3.07-4.859 0 0-1.022-1.278-1.79-2.046-1.022-1.023-1.79-1.79-3.068-2.813-1.535-1.534-2.302-2.557-4.092-4.092-.768-.767-3.325-2.557-5.883-5.115-1.534-2.046-2.046-2.813-3.58-3.836-1.023-.512-1.79-.767-2.813-1.535-1.279-1.023-2.046-2.301-3.325-3.58-1.279-.767-2.046-1.279-3.069-2.046-2.046-1.279-3.325-2.557-5.37-3.836-1.28-1.023-3.581-2.558-4.86-3.836-1.534-1.28-5.626-6.394-5.626-11.765 0-.256 0-4.092 1.79-6.393 1.79-2.558 6.905-4.604 8.951-5.115 1.535-.512 2.046-.256 2.813-.256 1.28 0 14.834 1.279 16.112 1.534 2.302.256 4.092 1.279 6.394 1.279 2.302 0 7.417-1.023 9.207-4.348 1.023-1.534 1.023-4.092 1.023-4.347 0-2.814-.256-4.86-.256-7.929v-4.603c0-1.79-.255-3.58-.255-5.37s.511-3.07.511-4.86c0-.256 0-3.325-2.046-4.86-3.069-2.3-11.764-3.835-20.971-4.858-1.023-.256-5.115-.512-9.207-.512h-1.279zm97.44 2.557c-4.604 0-7.672-.256-12.276-.256-5.37 0-9.207.256-14.833.256h-4.86c-2.813-.256-4.603-.512-7.416-.512-3.836 0-5.115.512-7.161 1.535-.512.511-1.535 1.023-2.558 2.557-.511.767-.511 1.28-.511 2.302-.256.511-.256 1.28-.256 2.302v5.626c0 1.79.256 3.07.256 4.86 0 4.347-.512 7.416-.512 11.508 0 1.534.512 3.07.512 3.58.256.512 1.279 2.046 2.557 3.325 1.28 1.023 3.837 3.325 7.161 3.325 1.535 0 2.558-.256 3.837-.512 1.023 0 3.069-.255 5.626-.255 10.997 0 19.181.511 21.994 7.416.768 1.79 1.279 4.092 1.279 5.882 0 1.023-.256 1.79-.256 3.07 0 1.534.256 2.813.256 4.347.256 2.046.256 3.58.256 5.627 0 5.37-.256 8.95-.256 14.066v4.859c.256.767.767 4.603.767 7.672-.256 2.302-.511 3.836-.767 6.138 0 3.325.511 5.37.256 8.696 0 3.836-.767 6.393-.767 10.23 0 2.557.255 4.603.511 7.16v29.667c0 2.558 0 4.604-.256 7.417-.255 2.046-.255 3.325-.255 5.37 0 1.024-.256 1.79-.256 3.07 0 1.278.511 2.045.767 3.324.256.767 1.279 5.882 6.138 5.882 1.534 0 3.069-.255 4.86-.511h.255c2.302 0 4.092.511 6.394.511 2.557.256 4.347 0 6.905 0h6.905c.511 0 2.813 0 5.115-.511 3.325-.767 5.626-2.813 6.394-4.604.511-1.023.767-1.278.767-3.069 0-3.068-.512-5.37-.512-8.183 0-2.814.512-4.86.512-7.417v-3.325c-.256-2.557 0-4.603 0-7.417 0-3.58-.512-6.137-.767-9.718 0-5.115.767-8.695.767-13.81 0-2.046 0-3.325-.256-5.115-.256-2.558 0-4.092 0-6.65 0-2.046-.256-3.58-.256-5.882-.255-4.86-.511-8.184-.511-13.043 0-2.557.256-4.603.256-7.417 0-3.069-.256-5.37-.256-8.44 0-2.557 0-4.091.256-6.649v-6.65c.255-2.557.511-4.091.767-6.649.511-2.813 0-2.813.511-4.859.256-1.534.256-1.279 2.046-3.58 1.279-1.535 1.535-2.046 2.558-2.814 3.836-3.068 9.462-2.813 18.414-2.813h4.092c3.324 0 7.16-.255 9.974-3.58 2.301-2.302 2.301-4.348 2.301-5.115 0-1.535-.255-2.813-.255-4.348v-3.58c0-3.837-.256-6.394-.256-10.23v-4.86c0-3.58-.767-6.649-2.813-7.928-.256-.255-3.836-1.534-6.138-1.534-2.813 0-4.604.767-7.673.767-3.58 0-6.393-1.023-9.974-1.023-1.79 0-3.325.256-4.859.256-2.046.256-3.58-.256-5.626-.256-2.558-.256-4.604 0-7.417 0h-5.627c-2.046 0-4.092.256-5.882.256-2.301 0-4.092-.256-6.138-.256-4.603 0-7.928.512-12.531.512h-1.28.001zm157.285-1.279c-1.79.256-3.07.511-5.115.511h-3.58c-3.07 0-5.371.256-8.44.256-4.604 0-7.929-.51-12.532-.51-5.37 0-9.207.51-14.578.51-3.836 0-6.393-.256-9.974-.256-3.069 0-5.115 1.28-6.394 2.814-3.068 3.07-3.836 7.16-3.836 14.322 0 4.86.768 7.928.768 12.787 0 1.79 0 3.325-.256 5.115v6.138c0 5.115-.512 8.695-.512 13.554 0 4.348.768 7.417.512 11.765 0 2.301-.256 4.092-.512 6.393-.255 2.302-.255 4.092-.255 6.394v10.486c0 4.859.255 8.44.255 13.299v2.557c0 3.325.512 5.882.512 9.463 0 2.302-.512 4.092-.512 6.393v19.95c0 1.79.256 3.069.256 4.859.256 2.302 0 3.836 0 6.138v.511c.256 3.07.767 6.138.767 9.463-.255 2.046-.511 4.348-.511 6.394 0 3.324 1.023 5.115 2.046 6.65.511 1.278 1.278 2.3 1.534 2.557 1.535 1.79 4.348 2.813 7.928 2.813h4.604c1.023-.256 1.79 0 3.069 0 3.325 0 5.626-.256 8.951-.256 2.046 0 3.58.256 5.626.256h8.696c2.813.256 5.115.511 8.184.511 2.302 0 4.092-.255 6.65-.255 6.137-.256 10.485-.512 16.879-.512 4.347 0 7.416.512 12.02.512 2.046 0 3.58-.256 5.626-.256 2.302-.256 3.836-.512 5.882-.512 3.58 0 5.883.512 9.207.512 7.928 0 8.696-4.86 8.696-8.44 0-2.046 0-4.859-.256-6.905-.512-4.348-1.023-4.092-1.023-10.741 0-2.302-.767-7.417-2.813-9.974-.256-.512-1.023-1.28-1.79-1.79-.768-.512-4.604-2.047-7.673-2.047-2.557 0-4.092.512-6.65.512-2.301.256-4.091.256-6.393.256-2.302 0-3.836.255-6.138.255s-4.86-.255-7.417-.255c-3.58 0-7.16.255-10.741.255-1.279 0-7.417 0-12.532-1.278-3.069-.768-7.416-2.046-8.44-9.207 0-.256-.255-7.417-.255-11.253 0-5.115.767-8.696 3.58-10.486 1.535-1.023 5.115-1.79 6.394-1.79h3.069c2.813-.256 4.603-.512 7.417-.512 2.301 0 4.603.768 6.905.768 1.79 0 3.58 0 5.37-.256 2.047 0 3.581.256 5.627.256h13.299c6.138 0 9.974-1.535 11.764-5.627.256-.767.256-1.279.512-3.069 1.023-6.65.511-2.302.511-9.974 0-2.557 0-1.534.512-5.115 0-.767.511-7.16.511-7.928 0-2.046-.511-3.325-2.046-5.37-2.302-3.325-4.603-2.814-9.718-2.814-3.836 0-7.673.767-11.253.511-4.092 0-6.905-1.022-10.997-1.022-5.115 0-8.44.767-13.555.767-4.859 0-10.23-1.023-11.764-1.279-1.279-.256-1.79-.767-2.558-1.279-4.092-2.813-3.58-7.928-3.58-15.856 0-10.741 4.348-12.787 18.414-12.787 1.023 0 4.092 0 7.16.511 4.86.512 4.093.767 8.952.767 4.347 0 7.16-.255 11.508-.255 2.814 0 4.604.255 7.417.255 1.023 0 3.069 0 5.882-1.278 1.279-.256 1.023-.256 2.046-.768a5.97 5.97 0 001.79-1.79c1.535-2.302 2.558-3.069 2.558-6.65 0-4.347-.767-7.16-.767-11.508 0-3.069.511-5.37.511-8.695 0-5.627-3.58-8.184-8.695-8.184-3.836 0-6.65.511-10.486.511-6.138 0-10.486-.767-16.623-.767-1.535 0-3.325.256-5.115.256-1.023 0-2.302-.256-3.325-.256h-.767zM255.504 280.301c-1.79.256-3.069.51-5.115.51h-3.58c-3.069 0-5.37.257-8.44.257-4.603 0-7.928-.512-12.531-.512-5.371 0-9.207.512-14.578.512-3.836 0-6.394-.257-9.974-.257-3.069 0-5.115 1.28-6.394 2.814-3.069 3.069-3.836 7.161-3.836 14.323 0 4.859.767 7.927.767 12.786 0 1.79 0 3.325-.255 5.115v6.138c0 5.115-.512 8.696-.512 13.555 0 4.348.767 7.417.512 11.765 0 2.301-.256 4.092-.512 6.393-.256 2.302-.256 4.092-.256 6.394v10.485c0 4.859.256 8.44.256 13.299v2.557c0 3.325.512 5.882.512 9.463 0 2.302-.512 4.093-.512 6.394v19.948c0 1.79.256 3.069.256 4.859.256 2.302 0 3.836 0 6.138v.511c.256 3.07.767 6.138.767 9.463-.256 2.046-.511 4.348-.511 6.394 0 3.324 1.023 5.115 2.046 6.65.511 1.278 1.278 2.301 1.534 2.557 1.535 1.79 4.348 2.813 7.928 2.813h4.604c1.023-.256 1.79 0 3.069 0 3.324 0 5.626-.255 8.95-.255 2.047 0 3.581.255 5.627.255h8.696c2.813.256 5.115.511 8.184.511 2.301 0 4.092-.255 6.649-.255 6.138-.256 10.486-.511 16.88-.511 4.347 0 7.416.511 12.02.511 2.045 0 3.58-.256 5.626-.256 2.302-.256 3.836-.511 5.882-.511 3.58 0 5.882.511 9.207.511 7.928 0 8.695-4.86 8.695-8.44 0-2.046 0-4.858-.255-6.904-.512-4.348-1.023-4.093-1.023-10.742 0-2.302-.768-7.417-2.814-9.974-.255-.512-1.023-1.279-1.79-1.789-.767-.512-4.603-2.047-7.672-2.047-2.558 0-4.092.511-6.65.511-2.301.256-4.092.257-6.393.257-2.302 0-3.837.255-6.138.255-2.302 0-4.86-.255-7.417-.255-3.58 0-7.16.255-10.741.255-1.279 0-7.417 0-12.532-1.278-3.069-.768-7.417-2.047-8.44-9.208 0-.256-.255-7.417-.255-11.253 0-5.115.767-8.695 3.58-10.485 1.535-1.023 5.115-1.791 6.394-1.791h3.069c2.813-.256 4.603-.511 7.416-.511 2.302 0 4.604.767 6.906.767 1.79 0 3.58 0 5.37-.256 2.046 0 3.58.256 5.627.256h13.299c6.138 0 9.974-1.534 11.764-5.626.256-.767.256-1.28.512-3.07 1.023-6.65.511-2.302.511-9.974 0-2.557 0-1.534.512-5.115 0-.767.511-7.159.511-7.927 0-2.046-.511-3.325-2.046-5.37-2.302-3.325-4.603-2.815-9.718-2.815-3.837 0-7.673.767-11.253.511-4.092 0-6.905-1.021-10.997-1.021-5.115 0-8.44.766-13.555.766-4.86 0-10.23-1.023-11.764-1.279-1.28-.256-1.79-.767-2.558-1.279-4.092-2.813-3.58-7.928-3.58-15.856 0-10.741 4.347-12.787 18.413-12.787 1.023 0 4.092.001 7.161.512 4.86.512 4.092.767 8.952.767 4.347 0 7.16-.256 11.508-.256 2.813 0 4.604.256 7.417.256 1.023 0 3.069-.001 5.882-1.279 1.279-.256 1.023-.256 2.046-.768a5.965 5.965 0 001.79-1.789c1.535-2.302 2.558-3.069 2.558-6.65 0-4.347-.767-7.161-.767-11.509 0-3.069.511-5.369.511-8.694 0-5.627-3.58-8.185-8.695-8.185-3.837 0-6.65.512-10.486.512-6.138 0-10.486-.767-16.624-.767-1.534 0-3.324.255-5.115.255-1.023 0-2.301-.255-3.324-.255h-.768zm128.386-1.28c-3.07 0-16.112 1.023-19.181 1.535-4.86 1.023-9.463 2.814-11.253 3.581-.512.256-7.161 2.557-11.509 5.626-9.207 6.649-12.276 15.6-13.043 17.646-2.557 6.394-3.069 8.696-3.069 19.437 0 2.302 0 3.836.256 6.138.511 4.092 1.79 7.672 2.046 8.951 2.301 8.44 2.046 7.928 5.37 13.555.256.767 2.046 4.093 4.86 7.161 2.557 2.814 4.603 4.348 7.16 6.906 1.28 1.023 2.047 2.045 3.325 3.068 1.535 1.534 2.558 2.301 4.348 3.836 2.046 1.534 3.325 3.069 5.37 4.86 2.047 1.534 3.837 2.045 6.139 3.58 1.79 1.278 4.859 4.604 5.115 4.604 5.115 4.604 6.905 5.115 9.206 10.742 1.28 3.068 1.28 4.602 1.28 6.136 0 15.09-14.834 13.555-17.136 13.555h-6.394c-3.324 0-4.859-1.022-7.928-2.045-3.069-.767-6.393-1.279-9.462-1.279h-3.58c-3.07.256-6.139.511-7.673 3.069-.512.255-1.023 1.535-1.023 2.814 0 .511 0 .766.255 2.045.256 2.557.256 1.79.256 3.836 0 3.58-.511 5.883-.767 9.463 0 2.814.256 4.859.256 7.928 0 2.301-.256 4.093-.256 6.65 0 2.302 0 3.836 4.603 6.138.768.511 3.837 1.79 6.394 2.557 1.535.256 2.558.255 4.092.511 3.325.256 5.882.512 9.207.768 1.534 0 2.813.255 4.348.511 1.79 0 2.813.255 4.603.255 1.535 0 2.813-.255 4.348-.255 6.138-.512 10.486.255 16.368-1.023 6.65-1.28 19.948-8.183 19.948-8.183 1.023-.768 2.302-1.79 3.58-3.07 5.627-4.603 7.161-6.394 11.253-12.021 3.07-3.836 2.814-3.323 4.092-6.136.512-1.535.768-2.815 1.535-4.349.767-1.535 1.534-2.557 2.046-4.348 1.534-4.347 1.79-10.741 1.79-15.089 0-15.345-2.557-21.994-7.417-29.667-1.023-1.79-1.79-3.069-3.069-4.859 0 0-1.023-1.277-1.79-2.045-1.023-1.023-1.79-1.791-3.069-2.814-1.534-1.534-2.302-2.557-4.092-4.092-.767-.767-3.324-2.556-5.882-5.114-1.534-2.046-2.046-2.813-3.58-3.836-1.023-.512-1.79-.768-2.814-1.536-1.278-1.023-2.046-2.3-3.324-3.579-1.28-.767-2.046-1.28-3.07-2.047-2.045-1.279-3.324-2.557-5.37-3.836-1.279-1.023-3.58-2.558-4.86-3.836-1.534-1.28-5.626-6.394-5.626-11.765 0-.256 0-4.092 1.79-6.393 1.79-2.558 6.906-4.604 8.952-5.115 1.534-.512 2.046-.255 2.813-.255 1.279 0 14.833 1.279 16.112 1.534 2.302.256 4.092 1.278 6.394 1.278 2.301 0 7.416-1.022 9.207-4.347 1.023-1.534 1.023-4.093 1.023-4.348 0-2.814-.256-4.859-.256-7.928v-4.603c0-1.79-.256-3.58-.256-5.37s.512-3.071.512-4.861c0-.256 0-3.324-2.046-4.859-3.07-2.3-11.765-3.835-20.972-4.858-1.023-.256-5.115-.513-9.207-.513h-1.278zm159.33 32.992c0-3.325-.255-5.627-.511-8.952-.256-4.603.511-7.672.511-12.275 0-3.07-.767-6.393-1.278-7.416-1.023-1.535-2.814-2.303-4.348-2.559-1.279-.511-2.046-.51-2.558-.51h-4.091c-2.046-.256-3.325-.512-5.371-.512-2.813 0-4.86.255-7.673.255-5.37 0-11.764.513-23.528 4.093 0 0-15.09 4.603-23.018 11.252-3.069 2.558-5.37 5.37-7.672 7.672-3.325 3.58-5.627 5.884-8.696 9.464a301.594 301.594 0 00-4.603 7.673c-1.279 2.046-3.836 6.648-5.626 12.274-2.046 6.65-3.07 16.625-3.07 17.648-.51 3.836-1.278 6.393-1.534 10.485 0 2.557.256 4.092.256 6.65 0 2.557-.512 4.347-.512 6.904 0 2.558.256 4.093.512 6.395.256 4.092 0 8.694 2.302 17.389 2.046 7.673 3.069 8.952 6.905 16.88 1.023 2.558 2.046 4.349 3.325 6.906 1.023 1.79 2.045 3.07 3.324 4.86 1.535 2.301 2.558 3.836 4.348 5.882 4.092 4.859 7.672 6.649 12.532 10.74 2.046 1.79 3.324 3.07 5.37 4.86 1.279 1.022 2.302 1.534 3.58 2.557 1.28.767 2.047 1.534 3.581 2.557 1.535 1.023 3.58 1.79 5.627 2.813 1.79.512 5.37 2.302 6.905 2.814 2.302.768 5.115 1.279 9.974 2.047 6.65 1.023 8.184 1.022 14.578 1.277 3.069 0 5.37.257 8.184.257.767 0 5.626.255 9.206-2.814 2.558-2.302 2.814-4.347 2.814-6.649v-1.024c0-4.603.767-7.672.767-12.275 0-1.79 0-1.789-.512-4.603-.255-2.813.256-4.604.256-7.418 0-5.626-2.302-7.928-5.882-7.928-1.279 0-2.302.513-3.836 1.024-.768.256-7.161.768-7.928.768-3.325 0-8.696-1.281-8.952-1.281-5.115-1.278-9.462-3.068-11.252-4.347-3.07-2.046-6.906-6.137-9.207-9.206-1.023-1.534-1.79-2.557-2.814-4.348-1.023-1.278-2.813-4.347-4.347-7.928-1.023-2.046-6.138-14.833-6.138-24.296 0-1.79 0-3.07.255-4.604.256-7.161 0-10.485 1.023-14.321 1.023-3.836 3.58-7.672 4.348-8.951 1.79-3.325 2.813-5.882 5.115-8.44 2.302-2.557 4.092-3.836 6.905-5.882 1.279-.767 3.07-2.047 5.882-3.581 2.558-1.28 10.23-4.091 18.159-4.091 3.069 0 5.626.511 6.905.767 2.301.511 2.813.51 4.347.51 1.535 0 2.558-.254 4.092-1.277.256 0 1.535-.512 2.302-1.79.767-1.535.767-4.604.767-5.883v-.512zm154.216 148.589c2.302 0 5.882.257 8.184-2.045 1.279-1.279 1.023-2.303 1.023-2.814 0-1.279-.256-2.301-.256-3.579-.767-7.162-1.278-4.605-2.557-9.976-.512-1.79-.767-3.068-1.023-4.602-.767-3.837-1.279-6.395-2.302-9.976 0 0-.767-2.557-1.279-3.836-1.79-4.347-.767-2.045-1.278-5.881-.256-1.279-.512-2.046-.768-3.325-.511-2.046-.511-3.58-1.79-7.928-.511-1.023-1.79-5.115-2.046-6.138-.767-2.813-.511-5.116-1.023-7.929-.511-1.534-.767-2.812-1.279-4.347-.511-1.79-.767-3.07-1.278-5.116-.256-1.023-.768-1.789-1.279-3.068-1.023-3.836-.767-6.649-1.535-10.485-.767-3.58-1.278-5.882-2.301-9.463-.512-1.79-1.023-3.325-1.535-5.115-.511-1.79-.511-3.069-.767-4.859-.511-2.302-1.279-7.418-3.325-13.3-1.023-2.813-1.534-3.325-1.79-6.138-.256-1.279-.256-2.046-.511-3.325 0-1.534-.512-2.557-1.023-4.091-.512-2.046-.768-3.837-1.28-5.883-1.278-4.347-2.557-7.16-3.58-11.508-.511-2.558-1.023-4.092-1.79-6.65-.767-2.813-1.534-6.137-3.325-8.949-1.023-1.535-1.79-2.559-4.603-4.861-2.813-2.302-4.86-3.07-10.741-3.836-1.535-.256-3.58-.511-4.092-.511-1.79 0-3.07.511-4.86.511h-3.58c-5.37 0-9.463.511-14.833.511-4.604 0-7.673-.256-12.276-.511h-.768c-5.626 0-7.928 1.023-10.74 2.813-3.07 1.79-4.86 3.837-6.65 8.952-2.558 5.882-3.325 13.299-3.58 14.578-.512 2.813-.512 4.602-1.28 7.415-.767 2.814-1.79 4.605-2.557 7.418-.512 1.279-.512 2.302-.767 3.836-.768 2.813-1.279 4.604-1.79 7.417-1.28 5.37-1.79 9.207-2.814 14.833-.255.767-.255 1.278-.255 2.045-.512 1.79 0 2.558-1.28 5.627-.766 1.534-1.278 2.301-1.534 3.836-.767 2.302-1.023 3.836-1.534 6.394-.767 3.836-1.79 6.649-2.558 10.741-.767 4.092-.767 6.905-1.79 11.253-.511 2.557-1.023 4.349-1.79 6.906-1.023 3.069-1.279 5.626-2.046 8.695-.512 2.814-1.023 4.859-1.535 7.672-.511 3.58-.511 6.139-1.023 9.719a73.244 73.244 0 01-1.79 7.161c-.256.767-1.279 6.138-1.534 7.417-.256 2.302 0 4.092-.768 6.138-.255 1.79-2.301 5.625-2.301 10.229 0 2.557.767 3.58 1.79 5.115 2.302 3.069 2.813 2.557 5.626 2.813 1.535.256 2.302.768 4.86.768 2.813 0 4.603-.511 7.416-.511 4.604 0 7.673.255 12.276.255 3.07 0 5.882-.001 6.905-.768.768-.256 1.023-.51 2.046-1.534.512-.512 1.023-.767 1.79-1.789.512-.768.512-1.025.768-1.281v-2.044c.511-4.86 2.302-8.185 3.069-10.231 1.023-2.046 1.279-3.836 2.813-5.37 1.279-1.28 2.046-1.791 3.325-2.558 1.023-.512 1.278-.512 3.069-1.023 1.534-.512 2.557-.512 4.092-1.023 7.672-1.535 5.882-1.022 11.253-1.022h.767c1.279 0 2.557-.257 4.092-.257 5.882 0 13.81.767 15.089 1.279 1.279.255 2.302 1.278 2.813 1.278 2.558 1.535 3.069 1.79 4.86 5.627.767 1.79 1.534 2.814 2.301 4.604.511 1.79.767 3.07 1.279 5.115 2.046 5.882 4.092 8.95 7.928 10.229 2.302.767 10.997 1.024 13.299 1.024 4.859 0 8.44-.768 13.554-.768h2.302zm-66.494-129.92c2.813 0 4.603 2.558 5.37 3.836.256.768 1.28 5.371 1.535 6.138.511 1.535.767 2.558 1.279 4.092.767 2.558 1.534 4.092 2.301 6.65.512 3.069.512 5.115 1.28 7.928 1.278 5.882 4.091 10.231 5.114 21.228.256 2.046.512 3.58.512 5.37 0 .256.255 2.557-1.023 4.347-.512.768-1.28 1.024-2.046 1.281-1.535 1.022-7.929 2.044-14.066 2.044-7.161 0-16.113-1.79-16.113-12.276 0-3.836 1.79-9.718 2.814-13.554.255-1.79.255-2.814.511-4.604.512-2.557 1.023-4.347 1.535-6.904.511-2.302.511-3.836 1.023-6.138.255-.767.255-1.279.511-2.302.512-2.046 3.58-12.02 5.115-14.066 1.023-1.534 2.558-2.814 4.348-3.07zm91.302 96.417c0 2.813-.256 4.603-.256 7.417-.256 2.813-.256 4.86-.256 7.929 0 3.325-.256 5.881-.256 9.206 0 3.58.768 4.86 2.046 6.906 1.79 2.557 3.07 2.813 4.348 2.813h2.302c2.302-.256 2.813-.256 4.092-.256 4.859 0 8.184.511 13.043.511 4.86 0 9.207-.511 10.997-.766 6.394-1.535 6.394-5.628 6.65-8.185 0-1.023.255-1.789.255-2.812 0-.768-.256-2.303-.511-4.349v-4.859c0-2.813-.256-2.557-.512-5.37-.256-1.279-.256-2.047-.256-3.326-.255-1.79-.511-3.069-.511-4.603 0-.512 0-2.045.256-3.579.255-1.535.255-2.559.767-4.094.256-.767.511-1.277 1.79-2.812 1.279-1.279 2.046-1.79 2.558-2.302 1.023-.767 1.534-.768 3.324-1.024.768-.255 1.28-.51 2.046-.766 1.023-.256 7.417-.512 8.44-.512 4.604 0 7.928 1.023 12.532 1.023 3.58 0 6.138.001 9.718-.511 2.302 0 3.58-.512 5.882-.768 1.023-.256 1.79-.255 2.813-.255 1.28-.256 2.302-.512 3.837-.768 8.95-2.046 11.508-3.069 20.46-9.206 4.091-2.557 6.649-4.603 8.44-6.138.51-.511 1.022-.768 2.045-2.047 1.279-1.79 2.046-3.068 3.325-4.859 1.534-2.3 3.069-3.581 4.348-5.882 1.278-1.535 1.534-2.814 2.813-6.138 4.603-10.23 6.138-15.089 6.138-25.574 0-1.535 0-2.814-.256-4.604v-6.393c-.256-2.302-.767-3.836-1.023-6.138-.767-7.161-.256-8.951-3.836-16.112-2.558-5.115-2.813-5.115-8.184-13.043-4.604-6.905-13.299-11.766-14.833-12.533-2.558-1.534-4.348-2.557-6.906-4.092-2.046-1.023-5.882-2.556-10.997-4.091-12.531-4.348-17.135-3.836-24.04-3.836-4.348-.256-7.417-.512-11.764-.512-3.58 0-6.138.256-9.719.512-2.813 0-5.115-.001-7.928.255-4.092.255-6.65.512-10.486.512-2.813 0-4.859-.257-7.672-.257-2.813 0-4.604.256-7.417.512-1.534.256-2.557.256-3.836.256-4.86 0-5.37.511-8.184 2.301-5.37 2.814-6.905 5.883-6.905 14.322 0 5.115 1.023 8.697 1.279 13.811v3.836c0 4.092.255 6.905.255 10.997 0 2.813-.255 5.626-.255 8.44 0 3.58.511 6.139.767 9.719.256 3.069 0 5.114 0 7.927 0 2.302.256 3.836.256 6.138 0 2.046-.256 3.58-.512 5.37-.511 3.837-.256 6.396-.256 9.976 0 8.695-.767 14.833-.767 23.529 0 3.58.256 5.881 0 9.206 0 3.069-.256 5.37-.256 8.44 0 4.091.512 6.906.768 10.997v.511zm42.71-85.675c0-.512.255-11.51.255-12.02 0 0 1.535-7.416 6.138-10.741.256-.256 1.279-.768 1.535-1.024.511 0 1.534-.511 2.813-.767 3.325-.767 3.325-1.278 5.626-1.278 1.79 0 3.07.511 5.115.511 5.371.255 6.394-.512 15.345 1.534 7.417 1.535 9.207 3.069 13.299 6.65 1.79 1.534 2.813 2.045 4.092 3.836 0 .255 1.023 1.791 1.023 2.047.767 1.278 1.023 2.556 1.534 4.091 1.023 2.813 2.558 4.603 2.558 7.672 0 2.046-.256 3.581-.256 5.627v.767c0 .767-.256 2.046-.256 2.557-.255 1.79-.511 3.58-1.534 7.161-.256.767-.512 3.07-2.813 5.37-.768.768-1.28 1.281-2.046 2.304-.256.255-1.79 2.557-3.58 3.836-1.535 1.279-2.558 1.534-4.348 2.302-.768.255-2.302 1.277-4.604 2.045-1.023.511-.256.256-1.79.512-1.79.256-3.325.256-5.115.511-2.558.256-4.348.511-6.65.511-7.16 0-8.695-.512-13.043-1.79-.255 0-3.069-.511-5.115-1.789-1.023-.768-2.046-1.79-3.58-3.58-4.604-6.65-4.092-9.976-4.092-13.045-.256-2.046-.767-3.324-.767-5.369 0-1.28.255-2.558.255-3.837v-4.604h.001zm182.092-61.123c-1.79.256-3.07.51-5.115.51h-3.58c-3.07 0-5.371.257-8.44.257-4.604 0-7.929-.512-12.532-.512-5.37 0-9.207.512-14.578.512-3.836 0-6.393-.257-9.974-.257-3.069 0-5.115 1.28-6.393 2.814-3.07 3.069-3.837 7.161-3.837 14.323 0 4.859.768 7.927.768 12.786 0 1.79 0 3.325-.256 5.115v6.138c0 5.115-.512 8.696-.512 13.555 0 4.348.768 7.417.512 11.765 0 2.301-.256 4.092-.512 6.393-.255 2.302-.255 4.092-.255 6.394v10.485c0 4.859.255 8.44.255 13.299v2.557c0 3.325.512 5.882.512 9.463 0 2.302-.512 4.093-.512 6.394v19.948c0 1.79.256 3.069.256 4.859.256 2.302 0 3.836 0 6.138v.511c.256 3.07.767 6.138.767 9.463-.255 2.046-.511 4.348-.511 6.394 0 3.324 1.023 5.115 2.046 6.65.511 1.278 1.279 2.301 1.534 2.557 1.535 1.79 4.348 2.813 7.928 2.813h4.604c1.023-.256 1.79 0 3.069 0 3.325 0 5.626-.255 8.951-.255 2.046 0 3.58.255 5.626.255h8.696c2.813.256 5.115.511 8.184.511 2.302 0 4.092-.255 6.65-.255 6.137-.256 10.485-.511 16.879-.511 4.347 0 7.416.511 12.02.511 2.046 0 3.58-.256 5.626-.256 2.302-.256 3.836-.511 5.882-.511 3.58 0 5.883.511 9.207.511 7.928 0 8.696-4.86 8.696-8.44 0-2.046 0-4.858-.256-6.904-.512-4.348-1.023-4.093-1.023-10.742 0-2.302-.767-7.417-2.813-9.974-.256-.512-1.023-1.279-1.79-1.789-.768-.512-4.604-2.047-7.673-2.047-2.557 0-4.092.511-6.65.511-2.301.256-4.091.257-6.393.257-2.302 0-3.836.255-6.138.255s-4.86-.255-7.417-.255c-3.58 0-7.16.255-10.741.255-1.279 0-7.417 0-12.532-1.278-3.069-.768-7.416-2.047-8.44-9.208 0-.256-.255-7.417-.255-11.253 0-5.115.767-8.695 3.58-10.485 1.535-1.023 5.115-1.791 6.394-1.791h3.069c2.813-.256 4.603-.511 7.417-.511 2.301 0 4.603.767 6.905.767 1.79 0 3.58 0 5.37-.256 2.047 0 3.581.256 5.627.256h13.299c6.138 0 9.974-1.534 11.764-5.626.256-.767.256-1.28.512-3.07 1.023-6.65.511-2.302.511-9.974 0-2.557 0-1.534.512-5.115 0-.767.511-7.159.511-7.927 0-2.046-.511-3.325-2.046-5.37-2.301-3.325-4.603-2.815-9.718-2.815-3.836 0-7.673.767-11.253.511-4.092 0-6.905-1.021-10.997-1.021-5.115 0-8.44.766-13.555.766-4.859 0-10.23-1.023-11.764-1.279-1.279-.256-1.79-.767-2.558-1.279-4.092-2.813-3.58-7.928-3.58-15.856 0-10.741 4.348-12.787 18.414-12.787 1.023 0 4.092.001 7.16.512 4.86.512 4.093.767 8.952.767 4.348 0 7.16-.256 11.508-.256 2.814 0 4.604.256 7.417.256 1.023 0 3.07-.001 5.882-1.279 1.279-.256 1.023-.256 2.046-.768a5.965 5.965 0 001.79-1.789c1.535-2.302 2.558-3.069 2.558-6.65 0-4.347-.767-7.161-.767-11.509 0-3.069.511-5.369.511-8.694 0-5.627-3.58-8.185-8.695-8.185-3.836 0-6.65.512-10.486.512-6.138 0-10.485-.767-16.623-.767-1.535 0-3.325.255-5.115.255-1.023 0-2.302-.255-3.325-.255h-.767zM147.973 399.562c1.973 0 2.87-.718 3.05-2.691.18-.898.359-1.615.359-2.512 0-.18 0-1.077-.359-1.795-.359-.717-.897-.897-1.077-1.435-.358-.538-.538-1.077-.897-1.615-.717-.897-1.256-1.435-1.973-2.332-1.615-2.333-5.562-7.895-5.562-10.228 0-1.076 1.435-2.153 2.69-4.126 1.077-1.615 1.436-2.871 2.333-4.665 1.077-1.795 1.795-3.05 2.692-4.845 1.076-2.512.717-2.153 1.973-5.742 1.256-4.306 1.795-4.665 1.795-11.483v-4.306c0-.18.18-.538-.18-1.076-.359-.718-2.332-1.795-4.126-1.795-1.795 0-1.436 0-2.871.18-1.436.18-2.333.18-3.768.18-2.333 0-3.948 0-6.28-.18-1.256-.18-2.153-.18-3.41-.18-2.511 0-3.947 1.436-4.126 2.871 0 1.077.359 1.794.718 2.87.18.54.538 1.436.538 2.692 0 1.615-.538 4.845-1.077 6.46-.358.717-1.435 2.153-1.973 2.69 0 0-.36.36-.718.36-.538 0-1.256-.36-1.794-.897-.18-.18-2.692-3.41-2.87-3.589-1.077-1.615-1.616-2.691-2.692-4.306-2.333-3.41-4.665-6.1-4.665-9.689 0-.359.18-1.794 1.256-3.23.358-.538.897-1.076 1.256-1.256.897-.717 1.614-1.076 2.512-1.794 3.23-2.153 6.818-6.1 7.535-7.177.18 0 .718-.897 1.077-1.615a88.992 88.992 0 001.974-4.485c1.794-5.204 2.512-6.46 2.512-11.663 0-.718.179-5.562-1.256-8.971-.539-1.256-1.077-1.974-1.436-3.23-.897-2.153-1.076-3.588-2.512-5.741-1.256-2.154-3.588-4.307-5.562-5.921-2.691-2.333-5.024-3.41-6.1-3.948-1.795-.897-2.871-1.256-3.768-1.615-1.256-.359-2.153-.359-3.41-.717-1.255-.18-2.152-.36-3.408-.539-2.871-.538-3.05.18-7.895.18-3.23 0-3.41.717-6.639 1.973-.718.18-1.974.539-3.588 1.436-.898.538-4.127 2.153-7.357 5.383l-1.435 1.435c-5.204 5.562-5.742 9.33-6.1 11.842-.18 1.435-.18 2.333-.539 3.589 0 .358-.538 2.332-.718 3.947 0 1.794.897 6.28 1.436 8.253.897 3.589 2.87 6.64 3.588 8.075.18.538.718 1.614.718 3.05 0 1.435-.718 2.153-1.256 2.87-1.794 1.974-3.947 2.154-6.1 3.59-1.256.717-1.795 1.255-3.948 3.05-.718.717-4.485 3.588-6.818 6.997-.897 1.076-1.256 1.615-1.794 2.87-.718 1.436-1.077 2.513-1.615 4.127-1.615 4.666-2.87 7.177-2.87 11.663 0 1.794 0 3.23.179 5.024.538 5.562 1.076 8.612 2.332 11.304 1.794 4.306 4.306 6.46 5.742 8.612.538.718 1.256 1.974 2.87 3.589 1.256 1.435 3.41 3.23 3.589 3.409 2.512 1.794 4.665 3.23 5.383 3.588 1.794.897 4.665 1.974 4.665 1.974 7.356 2.87 7.356 1.974 12.2 2.512 2.154.18 3.769.718 5.922.718.897 0 7.177-.539 12.021-1.615 1.615-.36 5.204-1.436 9.51-3.23 2.512-.897 4.126-2.153 5.382-2.153 1.436 0 3.41 1.435 4.666 3.23 1.794 2.332 1.255 3.768 4.485 3.768.897 0 5.742-.539 6.46-.718 3.767-.718 3.947-1.256 9.868-1.256h1.256zm-46.292-101.197c.18 0 .538-.18.718-.18 5.024 0 8.253 3.59 8.074 8.613 0 2.333-.538 3.589-1.256 4.665-2.333 4.486-6.639 6.1-7.715 6.1-1.436 0-2.333-1.076-3.41-2.69-1.255-1.795-3.229-4.127-3.229-8.613 0-.18-.18-4.486 3.23-6.639 1.076-.718 2.332-1.256 3.588-1.256zm-13.816 50.777c1.615-.179 2.692.539 3.41 1.256 1.076.898 1.614 1.974 2.87 4.127 1.256 1.615 2.153 2.692 3.41 4.306.538.718 4.306 6.64 4.844 7.536.538 1.077.897 1.974 1.435 3.05.718 1.077 1.615 1.795 1.615 2.871 0 .36-.18 1.256-1.256 2.153-.694.353-1.414.653-2.153.898-.718.179-1.077.358-1.615.538-.359 0-1.435 0-1.794.18-1.077 0-1.794.179-2.87.179-2.692 0-5.563-.897-6.28-1.256-.539 0-2.154-.718-3.948-2.153-1.256-.898-2.153-1.795-3.05-3.23-1.795-2.153-3.23-7.356-3.23-9.689 0-4.127 4.127-8.433 5.024-9.33 1.076-.897 2.332-1.436 3.588-1.436z" fill="#000"/><path d="M950.256 181.22c4.116 3.726 8.5 5.63 12.956 7.081 4.47 1.39 9.06 1.931 13.662 2.38 4.61.456 9.252.645 13.953.534 4.7-.156 9.443-.557 14.283-1.717a4.315 4.315 0 001.55-.713c.47-.338.86-.764 1.16-1.254.3-.49.51-1.035.6-1.602a4.46 4.46 0 00-.07-1.707 4.419 4.419 0 00-2.03-2.748c-4.29-2.54-8.703-4.32-13.138-5.857a116.9 116.9 0 00-13.483-3.62c-4.54-.908-9.078-1.755-13.766-1.751-4.68.087-9.437.618-14.472 2.95a4.877 4.877 0 00-1.205 8.023v.001zm-4.166-59.657c8.59 3.386 17.592 4.388 26.52 4.356 8.94-.094 17.795-1.618 26.449-3.747a140.937 140.937 0 0025.201-8.797c8.05-3.766 15.76-8.27 22.7-13.842 1.8-1.431 2.07-4.039.64-5.836a4.187 4.187 0 00-1.92-1.332 4.145 4.145 0 00-2.33-.088l-.04.01c-8.28 2.11-16.29 4.297-24.31 6.225-8 1.95-15.97 3.7-23.972 5.201-8.001 1.516-16.03 2.59-24.063 4.015-8.047 1.517-16.133 2.966-24.571 5.73l-.061.016c-2.259.743-3.494 3.165-2.759 5.416a4.336 4.336 0 002.516 2.673zm-15.452-54.638c7.552-.145 14.423-2.52 20.814-5.69 6.365-3.254 12.05-7.654 17.329-12.41 5.277-4.785 10.06-10.098 14.188-15.864 4.098-5.797 7.62-12.004 10.013-18.728a4.202 4.202 0 00-1.145-4.525 4.205 4.205 0 00-1.409-.839 4.158 4.158 0 00-4.074.718l-.044.032c-5.238 4.304-10.08 8.612-15.01 12.732a438.009 438.009 0 01-14.724 12.037c-4.952 3.892-10.073 7.476-14.992 11.473-4.894 4.066-9.779 8.185-14.38 13.713l-.058.078a4.44 4.44 0 00.574 6.251 4.452 4.452 0 002.918 1.023M259.017 173.549c-2.854 4.763-6.494 7.86-10.334 10.546-3.871 2.631-8.105 4.485-12.378 6.254a114.014 114.014 0 01-13.193 4.572c-4.542 1.219-9.192 2.214-14.166 2.516a4.359 4.359 0 01-4.2-2.453 4.379 4.379 0 01.71-4.873c3.364-3.678 7.066-6.666 10.862-9.427a117.12 117.12 0 0111.846-7.388c4.079-2.19 8.173-4.321 12.66-5.683 4.502-1.279 9.208-2.155 14.704-1.39a4.879 4.879 0 014.135 5.498 4.969 4.969 0 01-.646 1.828zm-13.38-58.286c-7.232 5.74-15.553 9.319-24.103 11.886-8.581 2.513-17.496 3.632-26.395 4.115a141.06 141.06 0 01-26.67-1.08c-8.8-1.26-17.486-3.325-25.748-6.635-2.136-.847-3.152-3.263-2.306-5.398a4.157 4.157 0 013.652-2.595l.038-.003c8.537-.391 16.84-.631 25.073-1.121 8.217-.462 16.353-1.107 24.444-2.001 8.096-.879 16.09-2.188 24.19-3.164 8.14-.89 16.298-1.858 25.175-1.67l.063-.002c2.377.053 4.263 2.01 4.216 4.378a4.342 4.342 0 01-1.629 3.29zm-1.122-56.769c-7.267 2.06-14.532 1.786-21.568.613-7.037-1.26-13.757-3.814-20.191-6.827-6.442-3.042-12.564-6.733-18.192-11.048-5.608-4.353-10.784-9.266-15.031-15.002a4.196 4.196 0 01-.776-3.12 4.193 4.193 0 011.658-2.755 4.16 4.16 0 014.106-.499l.052.018c6.264 2.592 12.15 5.305 18.066 7.811a439.601 439.601 0 0017.59 7.23c5.871 2.282 11.814 4.22 17.683 6.613 5.865 2.465 11.738 4.983 17.748 8.933l.08.057a4.449 4.449 0 011.908 2.811 4.429 4.429 0 01-.638 3.337 4.451 4.451 0 01-2.495 1.828" fill="#060608"/></svg>