<svg viewBox="0 0 1080 505" xmlns="http://www.w3.org/2000/svg" fill-rule="evenodd" clip-rule="evenodd" stroke-linejoin="round" stroke-miterlimit="2"><g transform="translate(-395 -948)"><path fill="none" d="M395 948h1079.6v504.539H395z"/><clipPath id="a"><path d="M395 948h1079.6v504.539H395z"/></clipPath><g clip-path="url(#a)"><path d="M756.794 1072.738c0 .833-.042 1.666-.125 2.494-.127 1.263-.131 1.805-.131 4.156 0 .941.044 1.863.1 3.031.069 1.461.156 3.279.156 5.409 0 2.115-.094 3.847-.169 5.24-.049.896-.087 1.602-.087 2.17 0 2.815.106 5.011.258 7.771.041-.313.084-.655.131-1.035.209-1.669.468-3.746.933-6.228.575-3.063 1.234-5.555 1.763-7.557.359-1.355.641-2.427.852-3.477l.181-.919c.394-1.992.831-4.209 1.674-6.986a32.587 32.587 0 012.12-6.096c.015-.17.031-.344.05-.524-1.403.12-2.842.181-4.318.181h-3.388v2.37zm285.43 16.275c5.381 8.613 8.491 16.681 9.952 26.564.061-.568.125-1.094.182-1.575.131-1.094.206-1.733.206-2.134 0-.64.024-1.278.073-1.915-.002-.135-.051-.779-.086-1.25-.103-1.357-.243-3.215-.243-5.534 0-.923.05-1.846.153-2.763.149-1.347.298-2.472.447-3.596l.114-.853a27.84 27.84 0 00-.117-1.165 25.05 25.05 0 01-.597-5.434v-4.859c0-2.886.069-5.271.135-7.576.062-2.123.121-4.129.121-6.485 0-.556-.001-.971-.004-1.292l-1.077.075c-1.648.3-4.011.637-6.911.637-7.597 0-13.609-2.637-17.658-5.107a38.606 38.606 0 01-4.801 1.914c.309.255.618.505.915.743.776.625 1.628 1.312 2.526 2.138 1.921 1.693 3.244 3.106 4.143 4.066l.19.204c1.484 1.273 2.614 2.383 3.716 3.49 1.526 1.524 2.931 3.221 3.637 4.105.282.352.556.713.819 1.081 1.869 2.615 3.06 4.6 4.165 6.521m-117.285 15.366c.281.915.496 1.702.666 2.325.075.278.141.558.241.86.355 1.085.667 2.283.871 3.406.381 2.09.551 3.91.656 5.278 3.411-1.031 6.451-1.402 8.482-1.587a45.105 45.105 0 01-.669-.632 46.817 46.817 0 01-2.551-2.404l-.083-.083a24.717 24.717 0 01-1.572-1.446c-.625-.626-1.271-1.213-2.087-1.958-1.13-1.029-2.455-2.237-3.954-3.759m-184.473 99.846a31.807 31.807 0 017.53 9.853 61.21 61.21 0 015.422-4.361c2.378-1.679 4.913-3.13 7.373-4.371-3.992-1.995-7.499-4.989-10.67-9.063-2.641 3.177-5.923 5.874-9.655 7.942m534.454 6.646c2.223 1.186 6.752 3.805 11.638 7.79a35.964 35.964 0 015.852-9.896 39.624 39.624 0 01-7.693.734c-2.738 0-4.99-.2-6.635-.347-1.216-.107-1.883-.164-2.565-.164-.199.009-.985.104-1.56.173-.476.057-1.575.185-1.607.189.819.483 1.651.973 2.57 1.521m-286.265-.958a25.098 25.098 0 011.521 2.619c2.319 4.62 3.445 10.425 3.804 15.233a58.49 58.49 0 011.197-3.15c3.582-9.774 8.833-16.349 16.904-21.18 7.355-4.595 14.281-6.476 23.781-6.476h.767c.452 0 .904.011 1.355.037 1.071.057 2.062.116 3.008.172 2.947.174 5.076.3 7.913.3 2.013 0 3.894-.101 6.073-.218a233.68 233.68 0 014.248-.203c-2.57-3.335-4.57-7.273-5.845-11.694a24.05 24.05 0 01-.32-1.155c-.534-1.658-1.52-5.001-1.52-9.42 0-1.773.14-3.245.258-4.234.009-1.936.063-4.026.384-6.781.125-1.528.125-2.745.125-4.844v-13.639c-.492 3.318-1.185 6.312-2.087 9.017-1.034 3.33-2.322 5.759-3.123 7.216a63.39 63.39 0 01-.554 1.752 25.19 25.19 0 01-.944 2.405l-.068.148c-2.044 4.506-3.234 6.278-6.265 10.032l-.675.838c-4.79 6.557-7.77 9.948-14.428 15.464a59.75 59.75 0 01-5.221 4.391 25.128 25.128 0 01-3.507 2.21c-4.912 2.55-17.222 8.628-26.427 10.482-.24.051-.479.1-.715.148.122.174.243.351.361.53m-158.885-13.997c12.944 1.867 20.645 4.488 26.46 8.845 7.555 5.687 12.043 14.954 12.055 24.828l.381-.404c.808-.855 1.657-1.755 2.591-2.76.212-.228.429-.453.649-.673.546-.545 1.087-1.133 1.652-1.738 1.858-1.99 4.402-4.714 7.678-7.446 3.328-2.791 7.182-5.242 11.046-7.336-.297.004-.597.006-.902.006-6.531 0-15.516-.4-21.226-2.31-16.589-5.537-21.876-20.732-23.613-25.725a26.425 26.425 0 01-.345-1.065 64.8 64.8 0 00-2.028-.048l-.268.024c-.959.09-2.407.225-4.181.225h-.767c-1.095 0-1.959-.016-2.678-.036a25.003 25.003 0 01-3.671 11.451c-.329.58-.727 1.242-1.21 1.969-.269.405-.549.801-.84 1.189-.264.351-.526.686-.783 1.004m291.367 44.902c.248.997.546 1.927.941 3.096a65.234 65.234 0 01-.221-5.336c0-10.865 2.019-26.291 19.206-35.871 6.626-4.18 12.081-5.706 20.525-5.747a34.907 34.907 0 01-3.708-5.83c-2.435-4.072-5.064-10.079-5.064-18.652 0-2.602.209-5.156.464-7.463-.058-.777-.161-1.714-.268-2.688a135.781 135.781 0 01-.365-3.633 24.79 24.79 0 01-.086-2.076v-.51c0-1.341.048-2.455.084-3.267.007-.186.018-.366.024-.547a24.454 24.454 0 01-.107-2.164c-.012-.176-.029-.345-.043-.514-.085-1.024-.214-2.572-.214-4.508v-19.939c0-2.713.27-4.877.449-6.309.018-.15.039-.301.058-.453-.019-.671-.083-1.433-.168-2.429-.152-1.772-.339-3.977-.339-6.67v-2.559c0-2.053-.057-3.92-.116-5.897-.069-2.26-.139-4.596-.139-7.404v-10.48c0-2.686 0-5.463.405-9.139l.134-1.175c.162-1.408.225-1.997.227-2.453-1.35.111-2.735.167-4.154.167h-3.389v2.37c0 .834-.042 1.667-.125 2.496-.126 1.262-.13 1.804-.13 4.154 0 .94.044 1.863.099 3.03.07 1.462.156 3.28.156 5.41 0 2.116-.093 3.848-.168 5.241-.049.895-.087 1.602-.087 2.169 0 3.18.133 5.568.32 8.874.051.907.103 1.854.157 2.863.023.438.034.875.034 1.314 0 .305.026.686.075 1.388.076 1.112.181 2.632.181 4.492 0 1.403-.047 2.564-.082 3.412-.01.255-.025.5-.03.753.368 3.022.368 5.342.368 7.594 0 3.663-.267 6.684-.481 9.111-.128 1.458-.236 2.67-.273 3.844.054.566.118 1.155.189 1.8.252 2.298.565 5.159.565 8.776 0 1.292-.037 2.463-.076 3.583a46.628 46.628 0 00-.038 1.454c.076.792.114 1.587.114 2.383v3.319c0 2.598-.227 4.692-.392 6.222-.047.443-.113 1.049-.121 1.238.006.169.078.901.13 1.435.161 1.654.383 3.918.383 6.706 0 5.222-1.016 9.558-3.29 14.024-4.259 8.919-12.855 15.609-23.233 18.012l-.234.052c-3.299.731-6.838 1.101-10.519 1.101h-2.986c3.035 2.804 4.863 5.139 6.618 7.763.11.166.218.332.326.5 3.65 5.751 5.196 11.519 6.12 14.965l.138.515.215.713c.641 2.117 1.302 4.303 1.941 7.374m96.05 50c.446 0 1.129-.07 2.399-.204.422-.045.857-.091 1.314-.137a54.88 54.88 0 012.519-.269c.265-.133.559-.277.881-.427.121-.15.24-.296.358-.438.058-.288.104-.557.149-.851.038-.385.079-.733.118-1.041a56.23 56.23 0 01.062-2.087 43.537 43.537 0 01-.869-2.205l-.009-.025-.469-.408a38.603 38.603 0 00-1.019-.223c-.177-.036-.352-.076-.528-.116-3.713-.849-4.502-.849-5.416-.849l-.824.002-.008.421v4.447c0 1.229-.067 2.326-.14 3.203.068.36.141.761.213 1.199.368.005.789.008 1.269.008M749.5 1325.131c-.174 1.365-.467 3.651-1.413 6.5a25.059 25.059 0 01-.822 2.141c-.172.393-.358.798-.56 1.215 4.772-2.011 9.248-2.576 11.899-2.823a63.3 63.3 0 01-.7-.663c-1.09-.95-1.921-1.778-2.474-2.329l-.102-.101a24.459 24.459 0 01-1.592-1.462c-.636-.636-1.287-1.229-2.11-1.981a144.63 144.63 0 01-1.941-1.795l-.081.518c-.044.311-.076.565-.104.78m199.071 11.094c1.631.331 2.599.497 3.172.577.63-.047 1.417-.114 2.122-.179 2.2-.712 5.524-1.565 9.621-1.565 1.94 0 3.882.181 5.796.54.386-1.902.912-4.305 1.803-7.055.614-2.059.862-2.977 1.139-4.35.052-.267.111-.532.173-.797.273-1.161.395-2.091.623-3.918.208-1.666.466-3.74.93-6.22.576-3.074 1.235-5.562 1.764-7.56.358-1.356.641-2.427.852-3.48l.169-.857c.396-2.007.836-4.241 1.686-7.04a32.381 32.381 0 012.121-6.104 29.63 29.63 0 01.72-4.443c.205-1.156.39-2.234.568-3.273l.045-.261a29.238 29.238 0 01-4.492 2.677c-4.786 2.642-9.861 3.931-15.432 3.931-3.151 0-5.4-.156-9.414-1.026-.639-.124-1.318-.244-1.839-.244-2.354 0-5.472.88-6.898 1.436-.822.474-1.528.928-2.264 1.404-.315.204-.615.396-.9.577-1.188.864-1.641 1.209-1.916 1.46-.205.381-.49.934-.714 1.373-.426.829-.871 1.693-1.364 2.606-.178.33-.363.656-.555.977-.142.236-.321.529-.533.872a36.171 36.171 0 00-1.067 1.81c-.047.831-.075 2.252-.099 3.445-.032 1.513-.067 3.221-.137 5.197-.032.89-.112 1.777-.238 2.658-.006.326-.001.669-.001 1.055 0 2.881 2.194 10.123 3.655 13.427.162.337.317.677.465 1.022a26.627 26.627 0 001.415 2.838 25.04 25.04 0 011.659 2.535c.244.428.418.686.982 1.513.141.207.285.418.431.635a28.954 28.954 0 002.539 2.756 31.19 31.19 0 003.036.974l.377.077m-162.574 92.314a47.32 47.32 0 01-4.608-.238l-.284-.025a24.957 24.957 0 01-3.732-.323l-1.189-.199a26.271 26.271 0 01-1.012-.056 412.14 412.14 0 01-5.203-.432 425.625 425.625 0 00-4.076-.343 24.931 24.931 0 01-2.075-.249c-.115-.014-.287-.028-.458-.045-.862-.086-2.166-.216-3.802-.495a24.956 24.956 0 01-2.931-.681c-1.183-.352-6.605-2.028-11.062-4.464l-.517-.272c-5.557 4.013-12.627 6.282-20.686 6.282-2.74 0-4.994-.2-6.639-.347-1.217-.107-1.884-.164-2.568-.164-.145.01-.823.091-1.367.155-.566.068-1.165.139-1.814.209-.898.098-1.798.147-2.701.147-.142.002-.64.038-1.004.064-1.137.082-2.693.196-4.621.196-3.179 0-5.783-.176-7.875-.318-1.59-.107-2.847-.192-4.146-.192-4.758 0-8.302.157-12.79.355l-3.033.132c-.352.015-.704.023-1.057.023-.542 0-1.14.037-1.966.087-1.245.077-2.794.172-4.683.172-3.794 0-6.748-.273-9.355-.519h-7.525c-1.895 0-3.432-.108-4.555-.186-.389-.027-.92-.064-1.071-.064-1.108 0-2.104.045-3.366.1-1.578.071-3.368.15-5.585.15a36.9 36.9 0 01-1.667-.039c-.467.026-.934.039-1.402.039h-4.604c-10.822 0-20.267-3.987-26.645-11.236-1.792-2.013-3.431-4.445-4.749-7.032-1.997-3.304-5.114-9.665-5.114-18.753 0-2.606.202-5.1.463-7.454a80.153 80.153 0 00-.269-2.693 143.54 143.54 0 01-.364-3.626 25.242 25.242 0 01-.086-2.076v-.511c0-1.346.049-2.461.084-3.276.008-.182.018-.361.025-.541a24.308 24.308 0 01-.108-2.16c-.012-.176-.028-.347-.043-.517-.085-1.024-.214-2.572-.214-4.506v-19.949c0-2.708.271-4.869.45-6.299.018-.151.039-.301.057-.453-.018-.671-.083-1.434-.168-2.429-.15-1.774-.339-3.983-.339-6.68v-2.549c0-1.33-.023-2.581-.056-3.834a34.233 34.233 0 01-3.331 2.947c-.364.282-.734.554-1.112.816-2.825 1.955-5.335 3.08-6.928 3.744a36.081 36.081 0 01-4.6 2.462 61.435 61.435 0 01-3.17 1.297c-.26.1-.537.205-.86.335-.406.162-.815.314-1.227.453-.878.373-2.338.977-4.271 1.543a33.05 33.05 0 01-6.288 1.281c-2.746.7-5.993 1.295-10.657 1.295-5.437 0-9.049-.215-12.077-.719a25.041 25.041 0 01-1.952-.407c-.33-.083-.644-.165-.946-.245-2.601-.433-5.529-.934-9.242-2.492a63.78 63.78 0 01-1.816-.75l-.257-.105c-2.686-.799-5.95-1.973-9.882-4.611-1.421-.927-2.502-1.753-3.167-2.261l-.242-.184c-.23-.15-.458-.305-.683-.462l-.596-.411a92.298 92.298 0 01-1.17-.815c-4.106 5.654-10.311 9.777-17.463 11.43l-.223.05a36.81 36.81 0 01-7.934.844h-3.415l-.24.01c-.676.027-1.329.046-2.008.046a36.61 36.61 0 01-2.496-.083 33.657 33.657 0 01-1.532-.096c-.844.072-1.795.123-2.829.123-12.553 0-23.378-8.335-26.991-20.759-.062-.21-.122-.42-.18-.631a27.827 27.827 0 01-1.243-8.162c0-1.085.058-2.024.134-2.819.017-1.03.069-2.275.234-3.785.009-.183.011-.465.011-1.236v-13.405a47.915 47.915 0 01-.253-4.805c0-2.444.231-4.364.368-5.512l.02-.162.006-.205a45.281 45.281 0 01-.141-3.478c0-.926.052-1.852.155-2.772.025-.231.051-.452.077-.664-.08-.584-.14-1.171-.178-1.76-3.648-1.171-7.125-3.095-10.4-5.759a24.867 24.867 0 01-2.047-1.832c-2.411-2.409-4.519-5.288-5.936-8.107a24.996 24.996 0 01-2.328-7.149 30.37 30.37 0 01-.586-5.846c0-1.868.107-3.39.184-4.5.021-.299.04-.574.052-.796-.05-.665-.11-1.634-.11-2.797v-2.783c0-.947 0-2.703.371-4.933a26.14 26.14 0 014.219-11.228 28.971 28.971 0 015.994-6.539 24.995 24.995 0 014.881-3.201c4.7-2.35 9.239-3.398 14.72-3.398 2.08 0 3.669.136 4.874.253h1.195c1.149 0 2.114-.029 3.067-.055 1.36-.038 2.702-.072 4.267-.072 1.451 0 2.661.037 3.871.077.688.024 1.375.05 2.199.05h.632c.333 0 .817-.031 1.489-.074 1.167-.075 2.765-.179 4.708-.179 1.247 0 2.264.063 2.955.107.726-.046 1.76-.107 2.988-.107h2.782c.158-.002.314-.01.465-.014a54.228 54.228 0 011.999-.042c.886 0 1.74.029 2.588.086.408.019.784.043 1.123.07.67-.048 1.6-.1 2.677-.1 1.964 0 3.664.173 4.938.345a33.45 33.45 0 013.787-.219c1.725 0 9.362.261 16.295 4.583l.009-.012c.292.182.58.371.863.563a38.977 38.977 0 014.06-1.487 25.16 25.16 0 011.588-.59c.2-.067.339-.129.465-.179 1.433-.567 3.165-1.22 5.657-1.807 3.112-.761 5.553-.997 7.181-1.154l.333-.031a52.211 52.211 0 014.549-.646 25.11 25.11 0 012.498-.125h1.518c3.105 0 5.592.465 6.926.715l.082.015 1.105.142c1.388.172 3.093.386 5.208.793 7.393 1.266 12.096 3.654 14.646 4.949.23.117.456.234.688.344.43.204.853.419 1.27.646.211.102.443.196.686.303.471.205.959.419 1.489.66.861.391 1.698.831 2.507 1.317 1.217.729 2.582 1.601 3.99 2.746 2.653 2.087 5.725 5.026 8.037 7.338.412.411.809.837 1.19 1.277a35.796 35.796 0 016.637-9.866c6.235-6.923 15.198-10.869 24.786-10.869 2.278 0 4.174.079 5.846.148 1.447.06 2.696.112 4.128.112 1.995 0 3.808-.101 5.908-.217 2.481-.138 5.294-.293 8.671-.293 3.104 0 5.635.163 7.869.307 1.767.113 3.163.203 4.662.203.93 0 1.848-.044 3.011-.101.839-.041 1.796-.087 2.863-.119-2.277-3.154-4.062-6.809-5.235-10.873-.115-.38-.22-.763-.317-1.147-.534-1.657-1.523-5.005-1.523-9.43 0-1.773.139-3.245.257-4.233.009-1.938.064-4.03.384-6.786.126-1.527.126-2.742.126-4.84v-28.388c-.244-2.375-.512-5.064-.512-8.433 0-3.416.326-6.124.563-8.101.131-1.092.205-1.73.205-2.129 0-.64.024-1.278.073-1.915-.002-.135-.051-.778-.086-1.249-.102-1.357-.243-3.215-.243-5.535 0-.924.051-1.847.153-2.765.151-1.352.299-2.479.45-3.607l.112-.843a27.827 27.827 0 00-.116-1.157 24.966 24.966 0 01-.599-5.439v-4.859c0-2.887.07-5.271.136-7.576.061-2.123.12-4.129.12-6.485 0-.556-.001-.971-.004-1.292l-1.078.075c-1.647.3-4.01.637-6.909.637-11.944 0-19.968-6.516-22.606-8.657l-.15-.122a26.275 26.275 0 01-2.091-1.87c-2.899-2.903-5.598-6.562-7.217-9.788a25.035 25.035 0 01-2.365-7.413c-.31-1.502-.802-4.147-.802-7.379 0-2.89.173-5.349.312-7.325.107-1.535.193-2.759.2-4.038-.012-.171-.027-.336-.041-.502a51.263 51.263 0 01-.215-4.505v-5.621c0-1.287 0-3.3.401-5.747.316-3.226 1.325-7.851 4.542-12.694a33.294 33.294 0 017.118-7.706 25.022 25.022 0 015.018-3.341c5.02-2.528 10.072-4.212 18.407-4.212 3.377 0 5.845.242 8.024.455.181.019.366.036.556.055h3.696c2.511 0 4.654-.058 6.925-.118 2.419-.066 4.92-.132 7.908-.132 2.709 0 4.964.073 6.952.138 1.84.06 3.429.112 5.323.112h1.28c1.499 0 2.894-.09 4.661-.203 2.234-.144 4.765-.307 7.871-.307 1.812 0 3.315.099 4.522.178.699.046 1.249.082 1.615.082.294-.009.696-.043 1.11-.07 1.223-.08 2.896-.19 4.772-.19h5.626c.671 0 1.279-.024 1.859-.045a92.211 92.211 0 013.124-.066c1.299 0 2.537.044 3.757.135 1.371.047 2.522.161 3.367.254.21-.008.42-.013.63-.016.172-.012.344-.027.52-.042 1.075-.088 2.7-.22 4.646-.22 3.773 0 6.876.495 8.928.822.291.047.647.104.937.148a4.13 4.13 0 01.148-.024c1.593-.257 4.26-.686 7.634-.686.513 0 10.906.071 19.386 5.357l.013-.02a29.581 29.581 0 017.088 6.232c1.94-1.794 4.102-3.393 6.516-4.838 7.365-4.599 14.289-6.481 23.773-6.481h.767c.472 0 .944.014 1.414.04l2.591.152c3.193.192 5.302.319 8.271.319 2.011 0 3.892-.102 6.07-.219 2.532-.137 5.403-.292 8.763-.292h2.418a37.21 37.21 0 016.022-.51c1.903 0 4.5.26 7.721.773 8.626 1.16 15.505 3.145 22.939 9.225 4.321 3.534 6.925 6.349 9.604 10.383.088.132.173.266.259.399 3.668 5.759 5.216 11.546 6.142 15.004l.137.509.218.724c.641 2.111 1.301 4.29 1.94 7.369.316 1.27.714 2.432 1.295 4.126l.089.261c.612-2.021 1.365-4.11 2.286-6.428 4.46-11.989 11.771-21.716 21.731-28.91l.217-.156c5.462-3.857 11.796-6.523 16.085-8.193l.124-.048c2.037-.869 8.462-3.467 15.841-5.015a24.22 24.22 0 011.036-.195c4.636-.769 19.028-1.868 23.277-1.868h1.28c5.176 0 9.391.246 12.585.732 11.591 1.313 19.557 3.023 25.585 5.622a6.3 6.3 0 01.201-.102c5.019-2.528 10.07-4.212 18.405-4.212 3.376 0 5.844.242 8.021.455l.558.055h3.696c2.511 0 4.655-.058 6.925-.118 2.418-.066 4.92-.132 7.908-.132 2.71 0 4.964.073 6.954.138 1.839.06 3.428.112 5.323.112h1.279c1.498 0 2.894-.09 4.661-.203 2.234-.144 4.766-.307 7.87-.307 1.813 0 3.316.099 4.524.178.697.046 1.249.082 1.614.082.294-.009.696-.043 1.11-.07 1.223-.08 2.897-.19 4.773-.19h5.626c.671 0 1.277-.024 1.857-.045a92.38 92.38 0 013.125-.066c1.298 0 2.537.044 3.757.135a43.83 43.83 0 013.366.254c.211-.008.421-.013.631-.016.172-.012.345-.027.521-.042 1.075-.088 2.7-.22 4.645-.22 3.774 0 6.875.495 8.928.822.292.047.646.104.937.148.049-.009.099-.017.148-.024 1.594-.257 4.26-.686 7.634-.686.487 0 9.895.063 18.106 4.605 5.261-3.31 11.461-5.115 17.954-5.115 2.258 0 4.144.075 5.807.142 1.457.058 2.715.108 4.167.108 1.994 0 3.807-.1 5.907-.217 2.481-.137 5.294-.293 8.671-.293 3.102 0 5.634.164 7.868.307 1.768.113 3.164.203 4.662.203.953 0 1.881-.043 3.057-.097 1.531-.072 3.265-.153 5.383-.153h3.382c.221-.03.439-.066.669-.101l1.058-.16a25.226 25.226 0 013.591-.258h.76c1.555 0 2.899.118 3.861.22l.343-.027c1.08-.082 2.559-.193 4.236-.193 3.985 0 7.257.24 10.143.451 2.325.171 4.332.318 6.487.318.958 0 2.005-.08 3.329-.181 1.906-.147 4.278-.329 7.15-.329 19.212 0 33.701 14.265 33.701 33.18 0 2.856-.214 5.158-.369 6.84-.076.811-.141 1.513-.141 1.86 0 .815.082 1.629.24 3.117.22 2.066.52 4.895.52 8.393 0 9.635-3.247 15.543-6.424 20.052-.098.138-.203.283-.313.448-.062.094-.126.187-.189.28a32.18 32.18 0 01-3.113 3.88 34.149 34.149 0 012.978 3.621c2.998 4.058 6.811 10.472 6.811 20.049 0 1.22-.072 2.275-.319 5.742-.082 1.157-.167 2.312-.203 2.952a24.982 24.982 0 01-.237 2.759c-.104.724-.19 1.291-.261 1.75.002 1.921.041 2.681.067 3.188.179 3.532-.085 5.427-.57 8.47l-.283 1.804c-.038.281-.067.515-.093.715-.177 1.41-.473 3.771-1.465 6.708a24.692 24.692 0 01-.784 2.025c-1.221 2.79-3.18 6.267-6.246 9.565l.094.062c2.078 1.395 5.631 4.169 8.474 8.385 6.834 9.665 7.196 21.719 7.196 24.135 0 2.033.06 2.651.062 2.677.026.166.064.359.101.567.171.965.429 2.415.674 4.476.409 3.298.443 6.58.443 9.93 0 8.136-2.366 15.258-6.543 20.815a34.406 34.406 0 016.848-.685c2.277 0 4.171.078 5.842.148 1.445.06 2.693.112 4.128.112 1.995 0 3.808-.101 5.909-.217 2.482-.138 5.296-.293 8.672-.293 3.102 0 5.634.163 7.869.307 1.767.113 3.163.203 4.66.203.93 0 1.849-.044 3.012-.101 1.465-.071 3.289-.159 5.428-.159h3.426c.238-.031.474-.07.724-.108l.983-.146a25.057 25.057 0 013.567-.256h.76c1.558 0 2.9.119 3.861.221l.344-.027c1.08-.082 2.559-.194 4.235-.194 3.986 0 7.257.241 10.144.453 2.324.17 4.332.317 6.487.317.956 0 1.947-.076 3.319-.182 1.907-.146 4.281-.328 7.16-.328 19.212 0 33.7 14.264 33.7 33.18 0 2.85-.214 5.154-.369 6.836-.072.777-.141 1.513-.141 1.854 0 .817.083 1.633.242 3.125.218 2.066.518 4.895.518 8.385 0 9.669-3.271 15.591-6.471 20.109-.096.136-.202.281-.31.443a31.459 31.459 0 01-3.26 4.112 33.96 33.96 0 012.974 3.618c3.01 4.06 6.817 10.47 6.817 20.058 0 1.22-.071 2.273-.318 5.741-.082 1.155-.167 2.311-.203 2.952-.03.949-.112 1.896-.248 2.835-.103.705-.189 1.263-.261 1.716.003 1.888.042 2.621.067 3.111.19 3.548-.081 5.483-.574 8.596l-.269 1.715c-.038.28-.067.514-.092.714-.177 1.408-.473 3.762-1.46 6.693a25.095 25.095 0 01-.789 2.042c-1.221 2.789-3.181 6.265-6.246 9.561l.081.053c2.608 1.762 5.958 4.55 8.611 8.577 6.714 9.635 7.071 21.55 7.071 23.955 0 2.027.06 2.644.063 2.67.024.162.062.355.099.562.172.968.43 2.423.675 4.493.408 3.295.443 6.571.443 9.914 0 19.69-13.858 33.441-33.7 33.441-2.736 0-4.99-.2-6.635-.346-1.221-.108-1.89-.165-2.575-.165-.143.01-.825.091-1.372.156-.564.068-1.16.138-1.806.208-.897.098-1.799.147-2.701.147-.142.002-.639.038-1.002.064-1.137.082-2.693.196-4.619.196-3.181 0-5.786-.176-7.879-.318-1.592-.107-2.851-.192-4.151-.192-4.758 0-8.304.157-12.794.355l-3.018.132c-.353.015-.705.023-1.058.023-.545 0-1.142.037-1.969.087-1.244.077-2.792.172-4.681.172-3.795 0-6.75-.273-9.357-.519h-7.523c-1.897 0-3.434-.108-4.557-.186-.41-.028-.92-.064-1.073-.064-1.105 0-2.103.045-3.365.1-1.58.071-3.37.15-5.585.15-.618 0-1.179-.017-1.668-.039-.467.026-.934.039-1.402.039h-4.6c-10.884 0-20.368-4.027-26.743-11.347-1.746-1.982-3.346-4.362-4.642-6.895-1.987-3.286-5.125-9.659-5.125-18.779 0-2.633.215-5.23.461-7.464a81.723 81.723 0 00-.271-2.709c-.132-1.196-.26-2.382-.361-3.569a25.124 25.124 0 01-.089-2.107v-.511c0-1.354.05-2.474.086-3.291l.024-.516a25.05 25.05 0 01-.11-2.191c-.011-.187-.028-.364-.043-.543-.082-1.015-.207-2.548-.207-4.459v-3.672a101.441 101.441 0 01-6.034 4.113c-10.958 7.486-16.4 9.883-28.603 12.678-.517.118-1.038.22-1.561.306-.525.085-.937.179-1.346.267-.559.119-1.117.238-1.717.355a24.99 24.99 0 01-3.905.448c-.299.045-.598.084-.9.118-.148.024-.346.066-.538.102-1.336.249-3.4.634-6.112.773-4.58.563-8.074.563-11.753.563-2.026 0-3.866-.112-5.495-.261.04.783.061 1.642.061 2.62v3.224l.007.051c.248 1.829.505 3.719.505 5.935a33.04 33.04 0 01-.309 4.44c-.02.287-.043.573-.071.859l-.022.231c-1.988 21.776-18.598 28.076-25.647 29.775a25.37 25.37 0 01-2.4.455c-2.155.301-7.88 1.001-14.454 1.001-3.209 0-5.797-.161-8.079-.304-1.851-.116-3.313-.207-4.964-.207l-.335.001c-.243.021-.54.056-.94.101a25.01 25.01 0 01-2.816.159h-2.302c-4.063 0-9.127-.783-14.187-3.605-4.391 1.892-9.357 2.843-14.86 2.843l-1.387-.009h-2.302c-1.467 0-2.901.129-4.715.292-2.37.213-5.319.479-8.84.479-5.314 0-15.124-.296-21.136-2.282-16.678-5.564-21.965-20.759-23.702-25.752-.124-.357-.24-.715-.348-1.078a64.078 64.078 0 00-1.985-.046l-.22.02c-.976.095-2.451.237-4.269.237h-.768c-1.095 0-1.959-.015-2.678-.035a25 25 0 01-3.656 11.416 32.676 32.676 0 01-1.235 2.012 25.81 25.81 0 01-.839 1.184 31.774 31.774 0 01-4.678 5.022c-1.599 1.569-4.108 3.853-7.984 5.693-6.501 3.348-13.055 3.348-18.059 3.348a199.2 199.2 0 01-6.951-.139c-1.841-.059-3.43-.111-5.325-.111a91.34 91.34 0 00-.949.103c-1.465.163-3.677.408-6.468.408-3.651 0-6.398-.453-8.62-.974-3.979-.35-7.555-1.323-10.811-2.965-5.698 3.23-12.382 4.964-19.38 4.964-.284 0-.526-.003-.722-.006-1.908-.004-3.524-.081-4.954-.149-1.178-.057-2.11-.101-3.082-.101-.338 0-.676-.007-1.014-.02l-1.341-.054c-6.027-.24-8.763-.382-16.015-1.495l-.117-.019c-5.481-.868-9.694-1.593-14-3.035-1.728-.574-3.385-1.303-4.986-2.008-.475-.209-1.219-.536-1.639-.71a25.056 25.056 0 01-3.504-1.427c-.431-.216-.866-.409-1.287-.602-1.838-.842-4.348-1.989-7.016-3.767a53.466 53.466 0 01-3.096-2.23l-.063-.047a24.854 24.854 0 01-2.009-1.421l-.258-.174a47.363 47.363 0 01-3.496-2.523 25.82 25.82 0 01-.864-.723 144.512 144.512 0 01-3.182-2.876c-.627-.579-1.253-1.159-2.004-1.82-1.02-.849-2.041-1.614-3.215-2.494-3.345-2.509-7.499-5.624-12.01-10.94a68.309 68.309 0 01-1.354-1.61c-1.103 1.922-2.27 3.484-4.142 5.807l-.693.863c-4.792 6.551-7.767 9.938-14.419 15.459a59.883 59.883 0 01-5.231 4.399 24.993 24.993 0 01-3.522 2.217c-4.904 2.545-17.199 8.609-26.384 10.47-6.098 1.301-10.972 1.317-14.896 1.33-1.672.006-3.116.011-4.481.124-.542.045-1.084.072-1.628.082l-.307.027a45.973 45.973 0 01-4.482.238" fill-rule="nonzero"/><path d="M988.308 951.899h-1.279c-5.44 0-21.35 1.204-27.378 2.206a50.19 50.19 0 00-2.075.39c-9 1.889-16.706 4.883-20.129 6.324-5.51 2.153-13.607 5.614-21.201 10.976-.146.103-.29.207-.434.31a83.797 83.797 0 00-5.654 4.468c-2.218-2.356-4.683-4.617-7.588-6.992-12.533-10.248-24.75-13.188-35.132-14.607-6.612-1.035-10.032-1.035-11.351-1.035-3.121 0-5.82.252-7.818.51h-.622c-4.031 0-7.4.181-10.107.327-1.892.102-3.387.183-4.726.183-2.217 0-3.832-.097-6.764-.273-.852-.051-1.742-.104-2.693-.158a50.022 50.022 0 00-2.819-.079h-.767c-11.006 0-20.359 1.907-29.307 6.075-12.305-5.927-24.452-6.325-27.469-6.325-2.958 0-5.564.205-7.646.444-2.567-.349-6.013-.704-10.001-.704-2.17 0-4.046.106-5.405.203a66.924 66.924 0 00-2.376-.144 75.018 75.018 0 00-5.138-.17c-1.605 0-2.976.047-3.976.081-.361.011-.855.029-1.014.03h-5.619c-2.481 0-4.572.124-6.042.22a87.982 87.982 0 00-5.978-.22c-3.908 0-7.126.207-9.476.357-1.508.098-2.393.153-3.056.153h-1.279c-1.487 0-2.82-.044-4.509-.099-2.072-.067-4.65-.151-7.767-.151-3.323 0-6.114.074-8.577.14-2.189.059-4.079.11-6.256.11h-2.479c-2.405-.234-5.596-.51-9.797-.51-11.05 0-20.192 2.121-29.644 6.88a50.05 50.05 0 00-9.568 6.284 58.16 58.16 0 00-12.071 13.134l-.064.098c-4.517 6.789-7.327 14.302-8.395 22.412-.744 4.472-.744 7.995-.744 9.891v5.62c0 2.356.123 4.317.226 5.658-.026.458-.066 1.026-.109 1.644-.157 2.239-.372 5.306-.372 9.068 0 4.841.621 8.895 1.189 11.789a50.017 50.017 0 004.644 14.24c2.833 5.638 7.046 11.397 11.863 16.22a50.07 50.07 0 004.106 3.68l.053.042c6.672 5.421 13.758 9.31 21.193 11.644.077 1.33.207 2.654.389 3.971-.054.447-.109.92-.165 1.423a50.125 50.125 0 00-.307 5.532c0 2.998.166 5.437.284 7.02l-.014.494-.041.341c-.277 2.307-.74 6.167-.74 11.074 0 3.927.262 7.152.511 9.685v27.136c0 1.556-.004 2.147-.025 2.554a80.97 80.97 0 00-.47 7.618 61.481 61.481 0 00-.179 2.344 38.02 38.02 0 01-1.002.014c-.913 0-1.826-.038-3.089-.091-1.821-.075-4.088-.169-6.884-.169-12.705 0-24.817 4.018-34.718 11.304a49.442 49.442 0 00-2.074-1.002c-.591-.269-1.139-.511-1.667-.741a47.72 47.72 0 00-1.22-.607l-.282-.142c-5.24-2.661-11.88-5.587-21.527-7.261a99.505 99.505 0 00-6.557-.998 65.167 65.167 0 00-.31-.039c-2.078-.379-6.023-1.025-10.893-1.025h-1.518c-1.662 0-3.324.083-4.979.249a78.115 78.115 0 00-5.466.734c-2.148.214-5.626.612-9.956 1.664-1.81.43-3.395.886-4.804 1.344-8.182-2.762-15.295-3.105-18.293-3.105-1.242 0-2.404.039-3.486.105a60.487 60.487 0 00-5.239-.232c-.949 0-1.813.023-2.601.057a62.86 62.86 0 00-3.787-.113c-1.236 0-2.246.036-2.856.056h-2.389c-1.129 0-2.14.031-2.978.069a64.488 64.488 0 00-2.966-.069 93.43 93.43 0 00-6.322.232c-.114.006-.229.014-.344.022h-.162c-.29 0-.668-.013-1.366-.036-1.153-.038-2.731-.091-4.704-.091-1.999 0-3.636.045-4.952.081-.965.026-1.663.046-2.383.046h-.06a70.573 70.573 0 00-6.01-.254c-9.426 0-17.652 1.917-25.888 6.031a50.039 50.039 0 00-9.687 6.339 53.514 53.514 0 00-10.841 11.931c-4.368 6.551-7.098 13.753-8.149 21.482-.619 3.957-.619 6.993-.619 8.517v2.782c0 .994.026 1.905.061 2.695a81.27 81.27 0 00-.187 5.398 55.7 55.7 0 001.014 10.463 50.001 50.001 0 004.517 13.668c3.317 6.634 7.619 11.63 10.645 14.652a49.785 49.785 0 004.006 3.594c.27.219.539.433.809.644v.226c0 2.362.121 4.369.253 5.944v12.173a65.775 65.775 0 00-.22 3.745 54.822 54.822 0 00-.16 4.187c0 5.111.723 10.048 2.208 15.038.068.247.139.494.211.74 6.75 23.211 27.197 38.775 50.996 38.775.997 0 1.945-.028 2.832-.071l.167.008c1.274.079 2.551.118 3.857.118 1.179 0 2.165-.033 2.773-.055h2.89a61.757 61.757 0 0013.782-1.536 55.413 55.413 0 0014.05-5.336 60.528 60.528 0 004.98 1.817c.367.153.789.325 1.255.51 5.559 2.293 10.192 3.231 13.378 3.782l.115.029c1.287.321 2.586.592 3.894.81 4.46.744 9.304 1.061 16.197 1.061 6.406 0 11.347-.787 15.172-1.666a58.281 58.281 0 002.327-.367v3.054c0 2.758.168 4.976.277 6.292.012.41.028.819.05 1.228a89.583 89.583 0 00-.071 3.48v.509c0 1.387.058 2.774.173 4.156.136 1.629.295 3.079.424 4.249a85.568 85.568 0 00-.341 7.446c0 10.918 2.712 21.173 8.069 30.546 2.155 4.144 4.793 8.038 7.745 11.432 11.044 12.741 27.68 20.042 45.694 20.042h4.604c.488 0 .976-.007 1.464-.022a58.07 58.07 0 001.605.022c2.773 0 5.04-.101 6.695-.174.735-.033 1.25-.056 1.666-.068 1.329.093 3.505.242 6.216.242h6.36c2.718.249 6.215.52 10.521.52 2.66 0 4.803-.133 6.222-.22.219-.013.441-.029.673-.041a48.566 48.566 0 001.87-.045c1.07-.044 2.087-.089 3.07-.133 4.346-.193 7.485-.331 11.693-.331.454 0 1.384.062 2.46.135 2.337.159 5.537.374 9.56.374 2.836 0 5.089-.163 6.435-.26l.098-.007a50.285 50.285 0 004.491-.284c.39-.043.764-.085 1.124-.127 1.989.175 4.897.419 8.567.419 7.592 0 14.855-1.288 21.534-3.737 1.37.47 2.594.854 3.606 1.155a50.014 50.014 0 005.897 1.37c2.352.398 4.239.594 5.323.703 1.068.153 2.143.272 3.22.356 1.38.109 2.612.217 3.834.324 1.69.148 3.437.301 5.521.458l.104.007c2.076.336 4.17.541 6.27.614 1.336.119 3.572.29 6.326.29a68.91 68.91 0 006.291-.298 50.516 50.516 0 002.198-.134c.375-.031 1.551-.035 2.496-.039 4.527-.015 11.327-.038 19.904-1.855 11.218-2.301 23.985-8.177 32.802-12.752a50.056 50.056 0 007.042-4.434 85.072 85.072 0 006.776-5.648 125.853 125.853 0 005.311-4.692c.759.695 1.64 1.493 2.674 2.397.568.498 1.148.982 1.739 1.453a70.987 70.987 0 004.779 3.487 49.98 49.98 0 002.124 1.506 76.178 76.178 0 003.745 2.66c4.32 2.878 8.165 4.637 10.473 5.693.21.096.424.192.639.294a50.015 50.015 0 005.597 2.363l.521.229c1.907.84 4.276 1.882 7.125 2.835l.026.009.012.004c6.093 2.035 11.748 3.018 17.98 4.006l.243.038c8.532 1.308 12.315 1.505 18.804 1.763l1.322.053c.677.027 1.355.042 2.032.042.376 0 1.078.033 1.891.072 1.501.072 3.53.168 5.943.177.269.003.576.006.926.006 7.063 0 13.967-1.112 20.451-3.245 1.886.418 3.817.742 5.792.972 3.241.662 7.439 1.248 12.567 1.248 3.776 0 6.826-.299 8.677-.5 1.026.015 2.048.049 3.25.088 2.072.068 4.65.152 7.765.152 5.993 0 17.32 0 29.117-5.932a53.473 53.473 0 0013.083-8.971 59.167 59.167 0 0020.236 11.573l.144.048c5.488 1.812 11.115 2.749 19.423 3.232 3.925.229 7.6.31 9.555.31 4.641 0 8.36-.334 11.076-.579.949-.085 2.131-.191 2.478-.191h2.24l.23.002c.393.003.8.007 1.22.007 5.026 0 9.622-.519 13.81-1.411a54.141 54.141 0 0015.237 2.172h2.3c1.647 0 3.293-.081 4.932-.245.649.024 1.434.072 2.572.143 2.383.148 5.645.352 9.632.352 7.853 0 14.591-.778 17.909-1.241a49.404 49.404 0 004.798-.91c15.617-3.762 28.59-13.05 36.529-26.151 4.964-8.193 6.849-16.119 7.634-21.212a74.02 74.02 0 002.889-.481 49.902 49.902 0 006.073-.804c.741-.145 1.43-.29 2.122-.438l.373-.079a50.171 50.171 0 002.909-.576c1.818-.416 3.539-.836 5.182-1.268 1.086 7.695 3.608 15.003 7.539 21.842 1.835 3.496 4.462 7.694 8.051 11.722 11.041 12.466 27.494 19.596 45.306 19.596h4.599c.488 0 .976-.007 1.464-.022.506.014 1.042.022 1.607.022 2.769 0 5.037-.101 6.693-.174.721-.032 1.245-.055 1.67-.068 1.329.093 3.504.242 6.217.242h6.357c2.718.248 6.216.52 10.522.52 2.66 0 4.802-.133 6.22-.22.221-.013.444-.03.677-.041a48.82 48.82 0 001.873-.045c1.063-.044 2.075-.089 3.054-.132 4.347-.193 7.488-.332 11.696-.332.457 0 1.387.063 2.465.135 2.338.159 5.54.374 9.565.374 2.833 0 5.086-.163 6.432-.26l.1-.007c1.501-.028 3-.123 4.492-.285.388-.042.76-.084 1.119-.126 1.988.175 4.898.419 8.567.419 19.728 0 37.24-8.696 48.044-23.858 7.071-9.924 10.656-21.558 10.656-34.582 0-3.978-.048-8.25-.625-12.931a95.448 95.448 0 00-.654-4.562v-.147c0-6.43-1.066-21.783-10.093-36.045.014-.038.027-.078.039-.116 1.802-5.329 2.334-9.567 2.59-11.604l.035-.281.214-1.357c.671-4.235 1.159-7.942.847-13.826l-.005-.102c.235-1.66.385-3.331.452-5.004.04-.621.105-1.513.169-2.406.262-3.676.382-5.355.382-7.519 0-8.281-1.69-16.176-5.039-23.595 2.924-6.263 5.289-14.365 5.289-24.745 0-4.815-.397-8.551-.66-11.024l-.037-.357c.18-1.949.447-5.03.447-8.819 0-17.024-7.119-33.008-19.531-43.853-10.574-9.239-24.485-14.327-39.17-14.327-3.837 0-6.988.241-9.073.401-.52.04-1.219.094-1.509.109-1.153-.006-2.433-.096-4.552-.251-3.151-.232-7.073-.52-11.976-.52a70.7 70.7 0 00-4.39.144 58.627 58.627 0 00-4.049-.144h-.761c-2.384 0-4.763.171-7.123.511h-1.576c-2.746 0-4.996.108-6.639.189-.759.036-1.476.071-1.801.071-.694 0-1.685-.064-3.057-.153-2.332-.149-5.521-.354-9.389-.357a83.39 83.39 0 00-.563-7.81 96.47 96.47 0 00-.657-4.572v-.148c0-6.423-1.063-21.781-10.091-36.046l.048-.143c1.794-5.315 2.324-9.544 2.58-11.576l.035-.28c.088-.567.163-1.034.225-1.424.64-4.025 1.145-7.833.847-13.678l-.011-.224c.232-1.648.381-3.307.448-4.969.039-.619.104-1.512.168-2.404.261-3.676.381-5.354.381-7.516 0-8.271-1.69-16.163-5.038-23.585 2.92-6.256 5.288-14.359 5.288-24.745 0-4.82-.397-8.558-.659-11.031a36.91 36.91 0 01-.037-.354c.179-1.947.446-5.03.446-8.825 0-17.012-7.112-32.988-19.513-43.834-10.578-9.251-24.495-14.347-39.187-14.347-3.829 0-6.979.242-9.063.403-.526.04-1.233.093-1.521.107-1.153-.005-2.432-.095-4.55-.25-3.152-.231-7.073-.519-11.976-.519-1.68 0-3.183.068-4.391.142a58.73 58.73 0 00-4.049-.142h-.76a49.956 49.956 0 00-7.192.52h-1.508c-2.698 0-4.921.104-6.545.179-.817.038-1.523.071-1.895.071-.694 0-1.685-.064-3.056-.152-2.35-.152-5.568-.359-9.474-.359-4.069 0-7.387.185-10.054.332-1.871.104-3.222.179-4.524.179-.953 0-1.883-.037-3.169-.089a161.58 161.58 0 00-6.805-.161 59.194 59.194 0 00-18.75 3.028c-8.263-2.312-15.142-2.518-17.31-2.518-2.959 0-5.564.205-7.646.444-2.567-.349-6.013-.704-10.001-.704-2.17 0-4.046.106-5.406.203a66.858 66.858 0 00-2.375-.144 75.018 75.018 0 00-5.138-.17c-1.605 0-2.976.047-3.976.081-.361.011-.855.029-1.014.03h-5.619c-2.481 0-4.572.124-6.042.22a87.982 87.982 0 00-5.978-.22c-3.909 0-7.126.207-9.476.357-1.508.098-2.393.153-3.056.153h-1.279c-1.487 0-2.82-.044-4.509-.099-2.072-.067-4.651-.151-7.767-.151-3.323 0-6.114.074-8.577.14-2.189.059-4.079.11-6.256.11h-2.479c-2.406-.234-5.596-.51-9.797-.51-7.026 0-13.279.857-19.333 2.705-6.514-1.742-13.581-2.877-21.288-3.768-3.464-.51-8.618-.977-16.155-.977m68.781 382.08c6.138 0 12.532-1.03 14.066-2.051.768-.259 1.535-.509 2.047-1.279 1.278-1.79 1.023-4.09 1.023-4.351 0-1.79-.255-3.319-.512-5.37-1.023-10.989-3.836-15.34-5.114-21.219-.768-2.821-.768-4.861-1.28-7.93-.767-2.561-1.533-4.09-2.302-6.651-.511-1.54-.767-2.559-1.278-4.089-.256-.77-1.279-5.37-1.535-6.14-.767-1.28-2.557-3.84-5.37-3.84-1.791.26-3.325 1.539-4.348 3.069-1.534 2.05-4.604 12.021-5.115 14.071-.255 1.019-.255 1.53-.512 2.3-.51 2.299-.51 3.83-1.023 6.139-.51 2.551-1.023 4.341-1.534 6.901-.256 1.79-.256 2.82-.512 4.61-1.023 3.83-2.813 9.71-2.813 13.55 0 10.49 8.952 12.28 16.112 12.28m15.09-112.53c.511 0 2.557.25 4.091.51 5.882.77 7.929 1.53 10.743 3.83 2.813 2.309 3.579 3.33 4.603 4.86 1.789 2.819 2.557 6.14 3.324 8.949.767 2.561 1.28 4.101 1.79 6.651 1.023 4.349 2.303 7.17 3.581 11.509.511 2.051.768 3.84 1.278 5.891.512 1.529 1.023 2.55 1.023 4.09.257 1.28.257 2.04.512 3.32.255 2.819.767 3.329 1.79 6.14 2.046 5.88 2.813 11 3.325 13.3.256 1.79.256 3.07.767 4.86.511 1.79 1.023 3.319 1.534 5.109 1.023 3.58 1.536 5.891 2.302 9.471.767 3.83.512 6.64 1.535 10.48.512 1.28 1.023 2.049 1.278 3.07.512 2.05.768 3.32 1.279 5.12.512 1.529.768 2.81 1.279 4.34.512 2.82.257 5.12 1.023 7.929.257 1.021 1.534 5.121 2.047 6.141 1.278 4.35 1.278 5.88 1.789 7.93.257 1.28.512 2.04.767 3.32.512 3.84-.51 1.54 1.28 5.88.51 1.279 1.278 3.84 1.278 3.84 1.023 3.58 1.535 6.139 2.302 9.97.255 1.54.511 2.82 1.023 4.61 1.278 5.37 1.791 2.809 2.557 9.97 0 1.28.257 2.299.257 3.58 0 .509.254 1.54-1.023 2.82-1.878 1.876-4.606 2.049-6.797 2.049-.495 0-.963-.009-1.387-.009h-2.303c-5.114 0-8.695.77-13.554.77-2.302 0-10.997-.26-13.299-1.02-3.837-1.28-5.883-4.351-7.928-10.23-.512-2.05-.768-3.33-1.279-5.121-.767-1.79-1.534-2.809-2.302-4.599-1.79-3.84-2.302-4.09-4.858-5.63-.513 0-1.536-1.021-2.813-1.28-1.28-.51-9.207-1.281-15.091-1.281-1.533 0-2.813.26-4.091.26h-.768c-2.148 0-3.15-.081-4.071-.081-1.381 0-2.578.184-7.182 1.102-1.534.509-2.557.509-4.091 1.03-1.79.51-2.047.51-3.07 1.02-1.278.77-2.046 1.28-3.323 2.56-1.536 1.529-1.79 3.319-2.813 5.369-.768 2.04-2.559 5.37-3.07 10.231v2.04c-.256.259-.256.509-.768 1.28-.766 1.02-1.278 1.279-1.789 1.79-1.024 1.02-1.28 1.279-2.047 1.54-1.023.76-3.836.76-6.905.76-4.603 0-7.671-.25-12.275-.25-2.813 0-4.603.51-7.417.51-2.558 0-3.325-.51-4.86-.77-2.813-.25-3.324.26-5.626-2.81-1.023-1.541-1.79-2.56-1.79-5.121 0-4.599 2.047-8.439 2.301-10.229.769-2.04.512-3.83.769-6.13.254-1.28 1.277-6.65 1.533-7.42.767-2.56 1.28-4.6 1.79-7.16.512-3.58.512-6.141 1.023-9.721.512-2.809 1.023-4.859 1.535-7.67.767-3.069 1.023-5.63 2.046-8.699.767-2.56 1.279-4.35 1.79-6.9 1.023-4.35 1.023-7.16 1.79-11.26.767-4.09 1.79-6.9 2.558-10.74.511-2.56.768-4.09 1.535-6.39.255-1.54.766-2.301 1.534-3.841 1.279-3.069.767-3.829 1.279-5.619 0-.77 0-1.28.255-2.051 1.023-5.63 1.536-9.46 2.813-14.83.512-2.819 1.023-4.609 1.791-7.42.255-1.529.255-2.559.768-3.84.766-2.809 1.79-4.599 2.556-7.41.767-2.819.767-4.609 1.279-7.42.256-1.279 1.023-8.7 3.581-14.58 1.791-5.109 3.58-7.159 6.649-8.949 2.813-1.79 5.115-2.81 10.741-2.81h.767c4.604.25 7.673.509 12.276.509 5.371 0 9.464-.509 14.834-.509h3.58c1.79 0 3.07-.51 4.86-.51m-584.377-.068c.389 0 .782.014 1.203.056.809 0 1.456.162 2.201.162.186 0 .379-.01.581-.035.759 0 1.518-.127 2.403-.127 1.77 0 3.161.506 4.931.506 1.518 0 2.403-.379 3.794-.379 1.138 0 2.909.632 3.035.759 1.011.632 1.391 2.149 1.391 3.92v2.402c0 1.898.127 3.161.127 5.059v1.769c0 .759.126 1.392.126 2.151 0 .379 0 1.39-1.138 2.529-1.391 1.643-3.288 1.769-4.932 1.769h-2.023l-1.798-.002c-3.405 0-5.681.093-7.307 1.394-.505.379-.632.633-1.264 1.392-.886 1.137-.886 1.01-1.012 1.769-.253 1.012 0 1.012-.253 2.403-.126 1.264-.252 2.023-.379 3.288v3.288c-.127 1.263-.127 2.022-.127 3.287 0 1.517.127 2.656.127 4.174 0 1.39-.127 2.402-.127 3.667 0 2.402.127 4.046.254 6.448 0 1.138.126 1.896.126 2.909 0 1.264-.126 2.022 0 3.288.126.885.126 1.517.126 2.528 0 2.53-.379 4.299-.379 6.83.127 1.769.379 3.034.379 4.804 0 1.391-.126 2.403 0 3.667v1.644c0 1.264-.252 2.276-.252 3.667s.252 2.53.252 4.048c0 .883-.126 1.01-.379 1.516-.38.885-1.517 1.897-3.161 2.277-1.138.253-2.277.253-2.529.253h-3.415c-.843 0-1.517.055-2.248.055-.365 0-.744-.013-1.166-.055-1.139 0-2.023-.253-3.161-.253h-.127c-.885.126-1.644.253-2.402.253-2.403 0-2.908-2.53-3.035-2.909-.126-.632-.38-1.012-.38-1.644 0-.632.127-1.011.127-1.518 0-1.011 0-1.643.127-2.655.126-1.391.126-2.402.126-3.667v-14.669c-.126-1.264-.253-2.275-.253-3.54 0-1.898.38-3.161.38-5.058.125-1.644-.127-2.656-.127-4.3.127-1.138.252-1.897.379-3.035 0-1.517-.252-3.414-.379-3.794v-2.402c0-2.529.127-4.299.127-6.955 0-1.012 0-1.77-.127-2.782 0-.759-.126-1.391-.126-2.15 0-.631.126-1.01.126-1.517 0-.885-.253-2.023-.632-2.908-1.391-3.414-5.438-3.667-10.876-3.667-1.264 0-2.275.127-2.782.127-.632.126-1.137.252-1.896.252-1.644 0-2.908-1.138-3.541-1.644-.632-.632-1.138-1.391-1.265-1.644 0-.254-.252-1.011-.252-1.77 0-2.024.252-3.541.252-5.691 0-.885-.126-1.517-.126-2.402v-2.782c0-.506 0-.885.126-1.138 0-.506 0-.759.254-1.138.505-.759 1.011-1.011 1.264-1.265 1.012-.505 1.644-.759 3.54-.759 1.392 0 2.277.127 3.667.254h2.403c2.782 0 4.679-.127 7.335-.127 2.276 0 3.793.127 6.07.127h.632c2.276 0 3.92-.254 6.196-.254 1.011 0 1.897.127 3.035.127.885 0 1.897-.127 2.909-.127h2.781c.928 0 1.686-.056 2.464-.056m57.094 69.353h.127c.506 0 .899-.057 1.33-.057.215 0 .44.015.693.057.632 0 1.012.126 1.517.126 1.012 0 1.644-.126 2.53-.126 1.896-.127 2.023-.127 5.184-1.897 2.15-1.138 4.3-2.15 7.714-6.702 1.137-1.391 1.517-2.15 1.896-2.782.506-1.392.633-2.529 1.392-5.31.379-1.392.758-2.404 1.011-3.921.126-1.138.126-2.023.126-2.53 0-1.39-.126-2.402-.126-3.793v-3.161a60.575 60.575 0 00-.379-1.39c-.253-1.266-.759-2.151-1.265-3.415-.506-1.518-.759-2.53-1.897-4.047-.885-1.138-1.644-1.771-2.529-2.908-1.391-1.771-1.77-2.782-3.92-3.92-.759-.379-1.265-.506-2.149-.885-3.415-1.518-2.277-1.518-6.955-1.897-1.013 0-1.897-.127-2.909-.127-2.782 0-3.541.506-5.058.886-.253 0-.885.126-1.644.505-.885.38-1.518.886-2.276 1.392-1.265.757-3.288 1.77-5.437 4.551-1.391 1.898-3.035 4.679-3.288 5.058-.127.254-.254.633-.38 1.013-.506 1.39-.506 2.402-1.011 5.057-.379 1.771-.759 2.783-.759 4.553 0 .885.126 1.644.126 2.655.254 4.299.127 2.15 1.518 7.587.252 1.138.759 3.035 1.264 4.173 1.265 2.656 2.403 3.794 3.414 4.933.507.505.759.883 1.265 1.39.379.506.759.759 1.265 1.138.885.759 1.264 1.391 2.149 1.897 1.012.506 1.897.252 2.909.632 2.15.885 3.794 1.265 4.552 1.265m3.035-70.056c1.265 0 2.529.38 3.667.507 1.897.252 3.288.379 5.185.758 4.678.759 6.702 2.15 9.104 3.288 1.392.759 2.403 1.138 3.794 1.771.632.378 1.012.632 1.138.758 1.138.759 5.311 4.805 6.07 5.564.505.633.885 1.137 1.391 1.77 1.517 1.771 2.908 2.783 4.046 4.679 1.012 1.771 1.391 3.162 2.276 5.059 1.518 3.287 2.023 3.541 3.035 6.828 1.138 4.299 1.138 10.243 1.518 14.542.126 1.39.252 2.402.252 3.794 0 .379-.126 1.77-.252 2.022-.38 2.783-.886 5.439-1.139 6.323-.379 1.518-.758 2.529-1.138 4.046-1.138 3.921-1.264 4.047-2.276 6.576-.253.633-.379 1.138-.758 1.771-.379.885-1.771 2.655-2.277 3.54-.505.886-.885 1.392-1.517 2.15-1.138 1.644-2.023 2.276-3.541 3.793-1.896 2.024-2.149 2.53-3.288 3.414-1.643 1.139-3.034 1.392-4.678 2.277-1.012.632-1.644 1.138-2.782 1.644-1.139.505-1.897.759-3.161 1.264-1.265.38-2.023.886-3.415 1.266-1.138.379-2.023.379-3.288.504-1.896.38-2.908 1.012-6.448 1.012-3.794 0-6.449-.126-7.967-.379-1.012-.253-1.77-.506-2.782-.633-2.277-.378-2.909-.504-4.046-1.011-1.013-.379-1.771-.759-2.782-1.138-2.024-.759-2.783-.632-4.806-2.022-1.391-.886-2.15-1.645-3.54-2.531-1.265-.884-2.277-1.517-3.414-2.528-2.403-1.897-3.921-3.794-4.553-4.679-.758-.885-1.264-1.644-2.023-2.655-.253-.507-1.265-1.644-2.15-3.035-.506-.886-.632-1.644-1.138-2.529-1.771-3.036-2.149-3.163-3.162-7.967-.632-3.161-.758-4.299-.884-7.334-.127-1.518-.253-2.529-.38-3.92-.126-1.771 0-3.035-.126-4.932-.127-3.288.758-6.07 1.517-9.357.38-1.139.506-2.024.886-3.288.126-.506.252-.886.378-1.518.38-1.012.759-1.643 1.266-2.655.378-1.012.631-1.771 1.137-2.781.759-1.392 1.518-2.277 2.277-3.667.379-.759 2.023-3.668 2.654-4.427.634-.759 1.139-1.265 1.771-1.897.253-.254.38-.379.506-.632.885-1.138 1.138-1.771 2.15-2.782.758-.758 1.391-1.011 2.276-1.644.506-.379.758-.759 1.265-1.138 1.896-1.643 3.035-2.15 3.793-2.656 3.668-2.023 3.794-1.517 6.069-2.528 1.898-.633 2.403-1.012 4.047-1.392 2.024-.506 3.414-.506 5.437-.758 1.266-.253 2.024-.38 3.288-.507h1.518m142.673 0c6.138 0 10.485.771 16.623.771 3.836 0 6.65-.51 10.486-.51 5.116 0 8.696 2.55 8.696 8.18 0 3.32-.512 5.63-.512 8.69 0 4.35.767 7.17.767 11.51 0 3.58-1.022 4.35-2.558 6.649a5.89 5.89 0 01-1.79 1.79c-1.023.511-.767.511-2.046.771-2.813 1.28-4.858 1.28-5.881 1.28-2.813 0-4.603-.261-7.417-.261-4.348 0-7.162.261-11.509.261-4.859 0-4.091-.261-8.95-.77-3.07-.51-6.139-.51-7.162-.51-14.065 0-18.414 2.05-18.414 12.79 0 7.93-.512 13.04 3.581 15.85.768.52 1.278 1.03 2.558 1.28 1.533.26 6.904 1.28 11.763 1.28 5.116 0 8.44-.77 13.555-.77 4.092 0 6.905 1.03 10.998 1.03.505.035 1.016.051 1.531.051 3.132 0 6.428-.561 9.721-.561 1.218 0 2.275-.03 3.212-.03 2.998 0 4.752.303 6.506 2.84 1.535 2.04 2.047 3.32 2.047 5.37 0 .769-.512 7.16-.512 7.929-.512 3.581-.512 2.561-.512 5.111 0 7.679.512 3.33-.511 9.979-.255 1.79-.255 2.301-.512 3.071-1.79 4.089-5.626 5.62-11.763 5.62h-13.3c-2.046 0-3.581-.25-5.627-.25-1.79.25-3.58.25-5.37.25-2.302 0-4.604-.76-6.905-.76-2.814 0-4.604.25-7.417.51h-3.068c-1.28 0-4.86.759-6.394 1.79-2.813 1.79-3.581 5.37-3.581 10.479 0 3.841.256 11 .256 11.261 1.023 7.16 5.37 8.43 8.439 9.199 5.115 1.28 11.253 1.28 12.532 1.28 3.581 0 7.162-.25 10.741-.25 2.558 0 5.115.25 7.417.25 2.302 0 3.837-.25 6.138-.25 2.303 0 4.092 0 6.394-.259 2.558 0 4.091-.51 6.649-.51 3.069 0 6.906 1.529 7.672 2.04.768.52 1.535 1.279 1.791 1.79 2.047 2.56 2.813 7.68 2.813 9.98 0 6.65.511 6.39 1.023 10.74.257 2.05.257 4.86.257 6.9 0 3.59-.769 8.44-8.697 8.44-3.324 0-5.626-.51-9.207-.51-2.046 0-3.579.26-5.882.51-2.046 0-3.58.259-5.626.259-4.604 0-7.672-.509-12.02-.509-6.394 0-10.742.25-16.88.509-2.557 0-4.348.261-6.648.261-3.07 0-5.372-.261-8.185-.52h-8.696c-2.046 0-3.579-.25-5.626-.25-3.325 0-5.626.25-8.951.25-.853 0-1.478-.112-2.103-.112-.312 0-.625.029-.966.112h-4.604c-3.579 0-6.392-1.02-7.928-2.81-.254-.25-1.023-1.28-1.534-2.561-1.023-1.53-2.046-3.319-2.046-6.649 0-2.04.256-4.341.512-6.391 0-3.319-.512-6.389-.768-9.46v-.509c0-2.31.256-3.84 0-6.14 0-1.79-.256-3.07-.256-4.86v-19.95c0-2.3.512-4.09.512-6.39 0-3.58-.512-6.141-.512-9.47v-2.551c0-4.859-.255-8.439-.255-13.299v-10.491c0-2.299 0-4.09.255-6.389.256-2.3.512-4.09.512-6.39.256-4.351-.512-7.42-.512-11.77 0-4.86.512-8.44.512-13.55v-6.14c.256-1.79.256-3.33.256-5.12 0-4.86-.768-7.92-.768-12.78 0-7.16.768-11.26 3.838-14.33 1.277-1.531 3.323-2.81 6.393-2.81 3.58 0 6.137.26 9.973.26 5.371 0 9.207-.51 14.578-.51 4.603 0 7.929.51 12.533.51 3.068 0 5.369-.26 8.439-.26h3.581c2.046 0 3.323-.25 5.114-.511h.767c1.023 0 2.302.261 3.325.261 1.79 0 3.58-.261 5.115-.261m691.538 0c6.141 0 10.49.771 16.63.771 3.83 0 6.64-.51 10.48-.51 5.12 0 8.701 2.55 8.701 8.18 0 3.32-.511 5.63-.511 8.69 0 4.35.761 7.17.761 11.51 0 3.58-1.02 4.35-2.561 6.649a5.856 5.856 0 01-1.79 1.79c-1.02.511-.76.511-2.04.771-2.81 1.28-4.859 1.28-5.879 1.28-2.821 0-4.61-.261-7.42-.261-4.351 0-7.161.261-11.511.261-4.86 0-4.09-.261-8.949-.77-3.071-.51-6.141-.51-7.161-.51-14.069 0-18.41 2.05-18.41 12.79 0 7.93-.52 13.04 3.58 15.85.761.52 1.27 1.03 2.55 1.28 1.54.26 6.91 1.28 11.77 1.28 5.111 0 8.441-.77 13.551-.77 4.089 0 6.909 1.03 11 1.03.505.035 1.016.051 1.531.051 3.133 0 6.429-.561 9.719-.561 1.218 0 2.277-.03 3.214-.03 3 0 4.753.303 6.505 2.84 1.54 2.04 2.051 3.32 2.051 5.37 0 .769-.511 7.16-.511 7.929-.52 3.581-.52 2.561-.52 5.111 0 7.679.52 3.33-.51 9.979-.25 1.79-.25 2.301-.51 3.071-1.79 4.089-5.63 5.62-11.76 5.62h-13.3c-2.05 0-3.579-.25-5.63-.25-1.79.25-3.58.25-5.37.25-2.3 0-4.599-.76-6.9-.76-2.82 0-4.61.25-7.42.51h-3.069c-1.281 0-4.861.759-6.391 1.79-2.819 1.79-3.58 5.37-3.58 10.479 0 3.841.25 11 .25 11.261 1.02 7.16 5.37 8.43 8.44 9.199 5.12 1.28 11.25 1.28 12.531 1.28 3.58 0 7.159-.25 10.739-.25 2.56 0 5.12.25 7.42.25s3.841-.25 6.14-.25c2.301 0 4.09 0 6.39-.259 2.561 0 4.09-.51 6.65-.51 3.07 0 6.911 1.529 7.67 2.04.77.52 1.54 1.279 1.79 1.79 2.051 2.56 2.821 7.68 2.821 9.98 0 6.65.509 6.39 1.019 10.74.26 2.05.26 4.86.26 6.9 0 3.59-.77 8.44-8.7 8.44-3.32 0-5.63-.51-9.21-.51-2.04 0-3.58.26-5.88.51-2.04 0-3.58.259-5.62.259-4.61 0-7.679-.509-12.03-.509-6.39 0-10.74.25-16.87.509-2.56 0-4.35.261-6.65.261-3.069 0-5.37-.261-8.189-.52h-8.69c-2.051 0-3.58-.25-5.631-.25-3.32 0-5.63.25-8.949.25-.854 0-1.481-.112-2.106-.112-.312 0-.625.029-.965.112h-4.599c-3.58 0-6.401-1.02-7.931-2.81-.259-.25-1.02-1.28-1.54-2.561-1.02-1.53-2.04-3.319-2.04-6.649 0-2.04.25-4.341.511-6.391 0-3.319-.511-6.389-.77-9.46v-.509c0-2.31.259-3.84 0-6.14 0-1.79-.25-3.07-.25-4.86v-19.95c0-2.3.509-4.09.509-6.39 0-3.58-.509-6.141-.509-9.47v-2.551c0-4.859-.261-8.439-.261-13.299v-10.491c0-2.299 0-4.09.261-6.389.25-2.3.509-4.09.509-6.39.25-4.351-.509-7.42-.509-11.77 0-4.86.509-8.44.509-13.55v-6.14c.25-1.79.25-3.33.25-5.12 0-4.86-.759-7.92-.759-12.78 0-7.16.759-11.26 3.83-14.33 1.279-1.531 3.329-2.81 6.4-2.81 3.58 0 6.129.26 9.969.26 5.37 0 9.21-.51 14.58-.51 4.6 0 7.931.51 12.531.51 3.069 0 5.369-.26 8.44-.26h3.58c2.049 0 3.319-.25 5.119-.511h.761c1.029 0 2.299.261 3.33.261 1.79 0 3.579-.261 5.109-.261m-430.676-.509c2.047 0 3.324.25 5.37.509h4.093c.511 0 1.278 0 2.557.511 1.534.26 3.324 1.02 4.347 2.56.513 1.02 1.279 4.349 1.279 7.42 0 4.6-.766 7.669-.511 12.27.255 3.33.511 5.63.511 8.949v.511c0 1.279 0 4.35-.766 5.89-.767 1.27-2.047 1.79-2.303 1.79-1.534 1.019-2.557 1.269-4.091 1.269-1.535 0-2.047 0-4.348-.51-1.278-.25-3.837-.759-6.905-.759-7.929 0-15.6 2.809-18.159 4.09-2.813 1.53-4.603 2.81-5.881 3.58-2.813 2.04-4.603 3.32-6.906 5.879-2.301 2.561-3.324 5.121-5.114 8.441-.768 1.279-3.326 5.12-4.349 8.95-1.023 3.84-.767 7.159-1.023 14.319-.254 1.54-.254 2.821-.254 4.611 0 9.46 5.114 22.25 6.137 24.29 1.534 3.58 3.325 6.649 4.347 7.93 1.023 1.79 1.79 2.81 2.813 4.35 2.302 3.069 6.139 7.159 9.207 9.21 1.791 1.27 6.138 3.06 11.253 4.34.256 0 5.627 1.279 8.952 1.279.767 0 7.16-.51 7.928-.769 1.534-.51 2.557-1.02 3.836-1.02 3.58 0 5.883 2.3 5.883 7.93 0 2.809-.513 4.599-.257 7.42.512 2.809.512 2.809.512 4.599 0 4.601-.768 7.67-.768 12.281v1.02c0 2.3-.255 4.35-2.813 6.65-3.061 2.625-7.058 2.815-8.631 2.815-.267 0-.464-.005-.576-.005-2.813 0-5.114-.25-8.184-.25-6.393-.261-7.927-.261-14.576-1.28-4.86-.771-7.674-1.28-9.975-2.05-1.535-.511-5.115-2.301-6.905-2.811-2.046-1.019-4.092-1.79-5.627-2.819-1.533-1.02-2.302-1.79-3.58-2.551-1.279-1.029-2.302-1.54-3.58-2.559-2.047-1.79-3.326-3.071-5.371-4.861-4.859-4.089-8.439-5.879-12.532-10.74-1.79-2.05-2.813-3.579-4.347-5.88-1.28-1.79-2.303-3.069-3.326-4.859-1.277-2.561-2.3-4.351-3.324-6.91-3.836-7.93-4.859-9.2-6.905-16.88-2.302-8.691-2.045-13.3-2.302-17.391-.256-2.3-.512-3.83-.512-6.389 0-2.56.512-4.35.512-6.911 0-2.549-.256-4.089-.256-6.649.256-4.091 1.023-6.65 1.535-10.48 0-1.02 1.023-11 3.069-17.651 1.79-5.619 4.347-10.229 5.626-12.269 1.023-1.79 3.325-5.63 4.603-7.68 3.07-3.58 5.371-5.88 8.697-9.46 2.301-2.301 4.603-5.11 7.671-7.67 7.928-6.65 23.018-11.25 23.018-11.25 11.764-3.58 18.158-4.1 23.528-4.1 2.813 0 4.859-.25 7.673-.25m265.721 95.65c2.302 0 4.092-.26 6.649-.51 1.791-.261 3.326-.261 5.116-.52 1.534-.25.768 0 1.791-.51 2.3-.76 3.836-1.79 4.603-2.04 1.789-.771 2.813-1.03 4.347-2.3 1.79-1.28 3.324-3.58 3.58-3.841.767-1.019 1.279-1.539 2.046-2.3 2.302-2.299 2.558-4.609 2.813-5.37 1.023-3.58 1.28-5.369 1.535-7.159 0-.52.256-1.79.256-2.56v-.77c0-2.04.256-3.58.256-5.63 0-3.06-1.535-4.85-2.558-7.671-.512-1.529-.767-2.809-1.535-4.09 0-.259-1.023-1.79-1.023-2.049-1.277-1.79-2.3-2.3-4.091-3.83-4.092-3.581-5.883-5.121-13.299-6.65-5.988-1.372-8.428-1.481-10.994-1.481-.488 0-.981.004-1.503.004-.838 0-1.752-.01-2.847-.063-2.046 0-3.326-.511-5.116-.511-2.301 0-2.301.511-5.627 1.281-1.278.259-2.3.77-2.813.77-.256.25-1.278.77-1.534 1.02-4.604 3.33-6.138 10.74-6.138 10.74 0 .51-.255 11.51-.255 12.019v4.611c0 1.28-.257 2.55-.257 3.83 0 2.05.512 3.33.768 5.37 0 3.069-.511 6.399 4.092 13.05 1.534 1.79 2.557 2.809 3.58 3.58 2.047 1.28 4.86 1.79 5.115 1.79 4.349 1.28 5.882 1.79 13.043 1.79m-8.184-95.65c4.348 0 7.417.25 11.764.509 1.312 0 2.541-.017 3.756-.017 5.184 0 10.134.334 20.285 3.858 5.115 1.529 8.951 3.06 10.998 4.09 2.556 1.529 4.347 2.56 6.904 4.09 1.535.769 10.232 5.63 14.832 12.53 5.37 7.93 5.63 7.93 8.19 13.04 3.58 7.17 3.06 8.96 3.83 16.119.26 2.301.77 3.83 1.02 6.131v6.4c.26 1.79.26 3.07.26 4.6 0 10.489-1.53 15.35-6.139 25.579-1.281 3.321-1.531 4.601-2.811 6.131-1.28 2.31-2.81 3.58-4.35 5.89-1.279 1.79-2.04 3.07-3.319 4.86-1.031 1.27-1.54 1.529-2.051 2.04-1.79 1.54-4.35 3.579-8.439 6.14-8.95 6.139-11.508 7.16-20.46 9.21-1.534.25-2.557.509-3.836.759-1.023 0-1.79 0-2.813.26-2.302.261-3.581.771-5.881.771-3.581.51-6.139.51-9.72.51-4.603 0-7.927-1.02-12.53-1.02-1.023 0-7.417.25-8.441.51-.766.25-1.279.51-2.046.76-1.79.259-2.302.259-3.324 1.03-.512.51-1.279 1.019-2.558 2.3-1.278 1.53-1.535 2.04-1.79 2.81-.512 1.539-.512 2.56-.768 4.09-.255 1.54-.255 3.069-.255 3.58 0 1.54.255 2.819.511 4.609 0 1.281 0 2.04.257 3.321.255 2.82.51 2.559.51 5.37v4.859c.257 2.051.512 3.58.512 4.351 0 1.019-.255 1.79-.255 2.809-.257 2.561-.257 6.651-6.65 8.191a84.2 84.2 0 01-10.997.76c-4.86 0-8.183-.51-13.044-.51-1.278 0-1.789 0-4.092.26h-2.3c-1.28 0-2.559-.26-4.349-2.81-1.279-2.051-2.045-3.33-2.045-6.91 0-3.32.255-5.88.255-9.21 0-3.07 0-5.11.256-7.92 0-2.82.255-4.61.255-7.42v-.511c-.255-4.09-.766-6.909-.766-11 0-3.069.255-5.37.255-8.439.256-3.32 0-5.63 0-9.21 0-8.691.767-14.83.767-23.53 0-3.58-.256-6.13.256-9.97.255-1.79.512-3.32.512-5.37 0-2.3-.257-3.84-.257-6.14 0-2.81.257-4.86 0-7.931-.255-3.58-.767-6.129-.767-9.709 0-2.821.256-5.63.256-8.44 0-4.101-.256-6.91-.256-11v-3.841c-.255-5.109-1.278-8.689-1.278-13.809 0-8.441 1.534-11.51 6.906-14.321 2.813-1.79 3.323-2.299 8.183-2.299 1.279 0 2.301 0 3.837-.26 2.813-.25 4.602-.51 7.416-.51s4.859.26 7.672.26c3.836 0 6.395-.26 10.486-.51 2.813-.261 5.115-.261 7.929-.261 3.58-.259 6.137-.509 9.717-.509m-397.943-.77c4.092 0 8.185.26 9.208.51 9.207 1.03 17.902 2.559 20.971 4.86 2.047 1.54 2.047 4.609 2.047 4.859 0 1.791-.513 3.071-.513 4.861 0 1.79.256 3.58.256 5.37v4.6c0 3.07.257 5.12.257 7.929 0 .261 0 2.821-1.023 4.351-1.791 3.32-6.907 4.349-9.207 4.349-2.303 0-4.093-1.029-6.394-1.279-1.28-.261-14.833-1.54-16.113-1.54-.379 0-.697-.061-1.106-.061-.418 0-.932.063-1.707.321-2.046.51-7.16 2.559-8.95 5.12-1.791 2.3-1.791 6.13-1.791 6.39 0 5.37 4.091 10.48 5.627 11.759 1.278 1.281 3.58 2.821 4.858 3.84 2.046 1.281 3.326 2.561 5.371 3.841 1.023.76 1.791 1.27 3.069 2.04 1.279 1.279 2.046 2.56 3.325 3.579 1.023.771 1.791 1.03 2.814 1.54 1.533 1.021 2.045 1.79 3.58 3.83 2.557 2.561 5.114 4.351 5.881 5.12 1.79 1.531 2.559 2.561 4.092 4.09 1.28 1.021 2.047 1.79 3.07 2.811.767.769 1.79 2.05 1.79 2.05 1.278 1.79 2.046 3.07 3.068 4.86 4.86 7.67 7.417 14.319 7.417 29.66 0 4.35-.255 10.75-1.79 15.09-.512 1.79-1.278 2.819-2.045 4.35-.768 1.54-1.023 2.81-1.536 4.349-1.277 2.811-1.023 2.301-4.091 6.141-4.093 5.62-5.626 7.41-11.253 12.019-1.279 1.281-2.558 2.301-3.58 3.071 0 0-13.3 6.9-19.949 8.179-5.882 1.281-10.23.511-16.367 1.021-1.536 0-2.813.26-4.349.26-1.79 0-2.813-.26-4.603-.26-1.535-.25-2.813-.51-4.348-.51-3.324-.25-5.882-.511-9.207-.77-1.533-.25-2.556-.25-4.092-.51-2.557-.76-5.625-2.04-6.393-2.55-4.604-2.311-4.604-3.841-4.604-6.141 0-2.559.256-4.349.256-6.649 0-3.07-.256-5.12-.256-7.931.256-3.58.768-5.88.768-9.46 0-2.049 0-1.279-.255-3.839-.257-1.281-.257-1.531-.257-2.041 0-1.28.512-2.559 1.023-2.819 1.534-2.56 4.603-2.81 7.673-3.07h3.581c3.068 0 6.392.51 9.462 1.28 3.068 1.02 4.604 2.05 7.928 2.05h6.393c.389 0 1.133.043 2.102.043 4.781 0 15.034-1.058 15.034-13.604 0-1.529 0-3.069-1.279-6.13-2.301-5.629-4.092-6.139-9.207-10.75-.256 0-3.324-3.319-5.115-4.599-2.302-1.53-4.092-2.05-6.138-3.58-2.046-1.79-3.324-3.321-5.371-4.861-1.79-1.529-2.813-2.299-4.347-3.839-1.279-1.02-2.047-2.04-3.325-3.06-2.558-2.561-4.604-4.101-7.161-6.91-2.814-3.07-4.604-6.391-4.859-7.16-3.324-5.63-3.069-5.12-5.371-13.56-.256-1.27-1.534-4.85-2.046-8.95-.256-2.3-.256-3.83-.256-6.13 0-10.75.512-13.051 3.069-19.44.767-2.05 3.836-11 13.043-17.651 4.348-3.069 10.997-5.369 11.51-5.619 1.79-.77 6.393-2.56 11.252-3.58 3.069-.52 16.112-1.54 19.182-1.54h1.277m29.938-102.931c6.138 0 12.531-1.019 14.066-2.049.767-.25 1.534-.51 2.046-1.27 1.279-1.801 1.023-4.101 1.023-4.351 0-1.79-.256-3.33-.512-5.37-1.023-11-3.836-15.349-5.115-21.229-.767-2.811-.767-4.861-1.278-7.93-.768-2.56-1.535-4.091-2.302-6.65-.511-1.531-.767-2.56-1.279-4.09-.255-.771-1.278-5.37-1.534-6.141-.767-1.279-2.558-3.829-5.371-3.829-1.79.25-3.325 1.529-4.348 3.069-1.534 2.041-4.603 12.021-5.115 14.061-.255 1.02-.255 1.54-.511 2.3-.512 2.3-.512 3.84-1.023 6.139-.512 2.561-1.023 4.351-1.535 6.911-.255 1.79-.255 2.809-.511 4.599-1.023 3.841-2.813 9.721-2.813 13.551 0 10.489 8.951 12.279 16.112 12.279m15.089-112.529c.511 0 2.557.26 4.092.51 5.882.769 7.928 1.54 10.741 3.84 2.813 2.299 3.581 3.32 4.604 4.86 1.79 2.81 2.557 6.14 3.324 8.949.768 2.561 1.279 4.091 1.791 6.651 1.023 4.349 2.301 7.16 3.58 11.509.512 2.04.767 3.83 1.279 5.88.511 1.531 1.023 2.561 1.023 4.091.256 1.279.256 2.05.511 3.33.256 2.81.768 3.319 1.791 6.13 2.046 5.89 2.813 11 3.324 13.3.256 1.79.256 3.07.768 4.859.511 1.79 1.023 3.33 1.534 5.12 1.023 3.58 1.534 5.88 2.302 9.46.767 3.841.511 6.651 1.534 10.491.512 1.27 1.023 2.04 1.279 3.06.511 2.05.767 3.33 1.279 5.119.511 1.53.767 2.811 1.278 4.351.512 2.809.256 5.11 1.023 7.929.256 1.021 1.535 5.111 2.046 6.13 1.279 4.351 1.279 5.891 1.791 7.931.255 1.279.511 2.05.767 3.33.511 3.829-.512 1.529 1.279 5.88.511 1.279 1.278 3.83 1.278 3.83 1.023 3.58 1.535 6.14 2.302 9.98.256 1.53.512 2.81 1.023 4.6 1.279 5.369 1.79 2.819 2.558 9.98 0 1.27.255 2.299.255 3.58 0 .509.256 1.53-1.023 2.809-1.89 1.89-4.644 2.059-6.843 2.059-.478 0-.93-.008-1.341-.008h-2.301c-5.115 0-8.696.76-13.555.76-2.302 0-10.997-.25-13.299-1.021-3.836-1.279-5.882-4.349-7.928-10.229-.511-2.05-.767-3.32-1.279-5.111-.767-1.799-1.534-2.819-2.301-4.609-1.791-3.83-2.302-4.091-4.86-5.62-.511 0-1.534-1.03-2.813-1.28-1.279-.521-9.207-1.281-15.089-1.281-1.534 0-2.813.25-4.092.25h-.767c-2.14 0-3.143-.081-4.061-.081-1.386 0-2.577.185-7.192 1.112-1.534.509-2.557.509-4.092 1.019-1.79.511-2.046.511-3.069 1.021-1.279.769-2.046 1.28-3.325 2.559-1.534 1.531-1.79 3.321-2.813 5.37-.767 2.05-2.557 5.371-3.069 10.231v2.05c-.256.25-.256.509-.767 1.28-.767 1.02-1.279 1.27-1.79 1.79-1.023 1.02-1.279 1.27-2.046 1.529-1.023.771-3.836.771-6.905.771-4.604 0-7.673-.26-12.276-.26-2.814 0-4.604.51-7.417.51-2.557 0-3.325-.51-4.859-.76-2.813-.261-3.325.25-5.627-2.82-1.023-1.531-1.79-2.55-1.79-5.111 0-4.609 2.046-8.439 2.302-10.229.767-2.05.511-3.84.767-6.141.256-1.279 1.279-6.649 1.535-7.42a72.585 72.585 0 001.79-7.16c.511-3.579.511-6.139 1.023-9.72.511-2.809 1.023-4.859 1.534-7.669.768-3.071 1.023-5.63 2.046-8.69.768-2.56 1.279-4.35 1.791-6.91 1.022-4.351 1.022-7.16 1.79-11.25.767-4.09 1.79-6.91 2.557-10.74.512-2.56.767-4.1 1.535-6.401.255-1.529.767-2.299 1.534-3.83 1.279-3.069.767-3.84 1.279-5.63 0-.769 0-1.279.256-2.049 1.023-5.621 1.534-9.46 2.813-14.831.511-2.809 1.023-4.599 1.79-7.419.256-1.531.256-2.55.767-3.831.768-2.819 1.791-4.609 2.558-7.419.767-2.81.767-4.6 1.279-7.42.255-1.27 1.023-8.691 3.58-14.571 1.79-5.12 3.58-7.159 6.649-8.949 2.814-1.79 5.115-2.82 10.742-2.82h.767c4.604.26 7.672.51 12.276.51 5.371 0 9.463-.51 14.833-.51h3.581c1.79 0 3.069-.51 4.859-.51m-123.658-.111c.786 0 1.582.027 2.434.111 1.643 0 2.956.329 4.469.329.372 0 .754-.02 1.157-.069 1.535 0 3.069-.26 4.859-.26 3.581 0 6.394 1.02 9.975 1.02 3.069 0 4.859-.76 7.672-.76 2.302 0 5.882 1.28 6.138 1.53 2.046 1.279 2.813 4.35 2.813 7.93v4.86c0 3.829.256 6.39.256 10.23v3.58c0 1.53.256 2.809.256 4.349 0 .761 0 2.811-2.302 5.111-2.813 3.33-6.65 3.58-9.974 3.58h-4.092c-1.254 0-2.442-.005-3.57-.005-6.921 0-11.545.184-14.844 2.825-1.023.76-1.279 1.27-2.557 2.81-1.791 2.299-1.791 2.04-2.046 3.58-.512 2.049 0 2.049-.512 4.86-.256 2.56-.511 4.09-.767 6.649v6.651c-.256 2.55-.256 4.09-.256 6.649 0 3.071.256 5.37.256 8.441 0 2.809-.256 4.86-.256 7.41 0 4.859.256 8.189.512 13.05 0 2.299.255 3.83.255 5.88 0 2.56-.255 4.089 0 6.65.256 1.79.256 3.069.256 5.109 0 5.12-.767 8.7-.767 13.811.256 3.58.767 6.139.767 9.72 0 2.81-.256 4.86 0 7.419v3.321c0 2.559-.511 4.61-.511 7.42 0 2.809.511 5.11.511 8.179 0 1.79-.256 2.05-.767 3.071-.767 1.79-3.069 3.84-6.394 4.61-2.302.51-4.603.51-5.115.51h-6.905c-1.704 0-3.069.111-4.547.111-.738 0-1.506-.028-2.358-.111-2.302 0-4.092-.51-6.394-.51h-.256c-1.79.25-3.324.51-4.859.51-4.859 0-5.882-5.12-6.138-5.88-.255-1.28-.767-2.05-.767-3.33 0-1.28.256-2.05.256-3.07 0-2.04 0-3.321.256-5.371.255-2.809.255-4.859.255-7.419v-29.661c-.255-2.559-.511-4.609-.511-7.16 0-3.84.767-6.399.767-10.229.256-3.33-.256-5.37-.256-8.7.256-2.3.512-3.84.768-6.14 0-3.07-.512-6.901-.768-7.67v-4.86c0-5.111.256-8.69.256-14.06 0-2.051 0-3.591-.256-5.63 0-1.54-.255-2.81-.255-4.35 0-1.281.255-2.04.255-3.071 0-1.79-.511-4.09-1.278-5.88-2.814-6.91-10.998-7.42-21.995-7.42-2.557 0-4.603.26-5.626.26-1.279.25-2.302.511-3.836.511-3.325 0-5.883-2.3-7.161-3.32-1.279-1.281-2.302-2.821-2.558-3.33 0-.51-.511-2.04-.511-3.581 0-4.089.511-7.16.511-11.509 0-1.79-.256-3.071-.256-4.861v-5.62c0-1.029 0-1.79.256-2.309 0-1.02 0-1.531.512-2.3 1.023-1.53 2.046-2.04 2.557-2.55 2.046-1.03 3.325-1.54 7.161-1.54 2.813 0 4.604.26 7.417.51h4.859c5.626 0 9.463-.25 14.833-.25 4.604 0 7.673.25 12.276.25h1.279c4.603 0 7.928-.51 12.532-.51 2.046 0 3.836.26 6.137.26 1.791 0 3.837-.26 5.883-.26h5.626c1.876 0 3.41-.111 4.983-.111m388.48 0c.786 0 1.582.027 2.434.111 1.643 0 2.956.329 4.469.329.371 0 .754-.02 1.157-.069 1.535 0 3.069-.26 4.859-.26 3.581 0 6.394 1.02 9.975 1.02 3.068 0 4.859-.76 7.672-.76 2.302 0 5.882 1.28 6.138 1.53 2.046 1.279 2.813 4.35 2.813 7.93v4.86c0 3.829.256 6.39.256 10.23v3.58c0 1.53.256 2.809.256 4.349 0 .761 0 2.811-2.302 5.111-2.813 3.33-6.65 3.58-9.974 3.58h-4.092c-1.254 0-2.442-.005-3.57-.005-6.922 0-11.545.184-14.844 2.825-1.023.76-1.279 1.27-2.558 2.81-1.79 2.299-1.79 2.04-2.045 3.58-.512 2.049 0 2.049-.512 4.86-.256 2.56-.511 4.09-.767 6.649v6.651c-.256 2.55-.256 4.09-.256 6.649 0 3.071.256 5.37.256 8.441 0 2.809-.256 4.86-.256 7.41 0 4.859.256 8.189.512 13.05 0 2.299.255 3.83.255 5.88 0 2.56-.255 4.089 0 6.65.256 1.79.256 3.069.256 5.109 0 5.12-.767 8.7-.767 13.811.256 3.58.767 6.139.767 9.72 0 2.81-.256 4.86 0 7.419v3.321c0 2.559-.511 4.61-.511 7.42 0 2.809.511 5.11.511 8.179 0 1.79-.256 2.05-.767 3.071-.767 1.79-3.069 3.84-6.394 4.61-2.302.51-4.603.51-5.115.51h-6.905c-1.704 0-3.069.111-4.547.111-.738 0-1.505-.028-2.358-.111-2.302 0-4.092-.51-6.394-.51h-.256c-1.79.25-3.324.51-4.859.51-4.859 0-5.882-5.12-6.138-5.88-.255-1.28-.767-2.05-.767-3.33 0-1.28.256-2.05.256-3.07 0-2.04 0-3.321.256-5.371.255-2.809.255-4.859.255-7.419v-29.661c-.255-2.559-.511-4.609-.511-7.16 0-3.84.767-6.399.767-10.229.256-3.33-.256-5.37-.256-8.7.256-2.3.512-3.84.767-6.14 0-3.07-.511-6.901-.767-7.67v-4.86c0-5.111.256-8.69.256-14.06 0-2.051 0-3.591-.256-5.63 0-1.54-.255-2.81-.255-4.35 0-1.281.255-2.04.255-3.071 0-1.79-.511-4.09-1.278-5.88-2.814-6.91-10.998-7.42-21.995-7.42-2.557 0-4.603.26-5.626.26-1.279.25-2.302.511-3.836.511-3.325 0-5.883-2.3-7.161-3.32-1.279-1.281-2.302-2.821-2.558-3.33 0-.51-.511-2.04-.511-3.581 0-4.089.511-7.16.511-11.509 0-1.79-.256-3.071-.256-4.861v-5.62c0-1.029 0-1.79.256-2.309 0-1.02 0-1.531.512-2.3 1.023-1.53 2.046-2.04 2.557-2.55 2.046-1.03 3.325-1.54 7.161-1.54 2.813 0 4.604.26 7.417.51h4.859c5.626 0 9.463-.25 14.833-.25 4.604 0 7.673.25 12.276.25h1.279c4.603 0 7.928-.51 12.532-.51 2.046 0 3.836.26 6.137.26 1.791 0 3.837-.26 5.883-.26h5.626c1.876 0 3.41-.111 4.983-.111m130.048-.659c6.14 0 10.49.77 16.63.77 3.83 0 6.65-.511 10.48-.511 5.12 0 8.7 2.561 8.7 8.181 0 3.33-.51 5.63-.51 8.7 0 4.35.76 7.159.76 11.51 0 3.58-1.02 4.35-2.55 6.649-.52.761-1.03 1.281-1.79 1.79-1.03.511-.77.511-2.05.761-2.81 1.279-4.86 1.279-5.88 1.279-2.82 0-4.61-.25-7.42-.25-4.35 0-7.16.25-11.51.25-4.86 0-4.09-.25-8.95-.759-3.07-.52-6.14-.52-7.16-.52-14.07 0-18.41 2.05-18.41 12.79 0 7.93-.51 13.039 3.58 15.86.76.509 1.28 1.02 2.55 1.28 1.54.25 6.91 1.28 11.77 1.28 5.11 0 8.44-.77 13.55-.77 4.1 0 6.91 1.02 11 1.02.517.037 1.04.053 1.567.053 3.122 0 6.406-.564 9.683-.564 1.204 0 2.251-.028 3.179-.027 3.022 0 4.781.298 6.541 2.838 1.54 2.05 2.05 3.33 2.05 5.37 0 .77-.51 7.16-.51 7.93-.51 3.58-.51 2.559-.51 5.12 0 7.67.51 3.32-.52 9.97-.25 1.79-.25 2.299-.51 3.07-1.79 4.09-5.62 5.63-11.76 5.63h-13.3c-2.05 0-3.58-.26-5.63-.26-1.79.26-3.58.26-5.37.26-2.3 0-4.6-.771-6.9-.771-2.82 0-4.61.25-7.42.511h-3.07c-1.28 0-4.86.769-6.39 1.79-2.82 1.79-3.58 5.37-3.58 10.489 0 3.83.25 10.99.25 11.25 1.03 7.16 5.37 8.441 8.44 9.21 5.12 1.28 11.26 1.28 12.53 1.28 3.58 0 7.16-.259 10.75-.259 2.55 0 5.11.259 7.41.259s3.84-.259 6.14-.259 4.09 0 6.39-.26c2.56 0 4.1-.511 6.65-.511 3.07 0 6.91 1.54 7.68 2.051.76.51 1.53 1.279 1.79 1.79 2.04 2.56 2.81 7.67 2.81 9.97 0 6.65.51 6.4 1.02 10.74.26 2.05.26 4.859.26 6.91 0 3.579-.77 8.44-8.7 8.44-3.32 0-5.62-.51-9.2-.51-2.05 0-3.59.25-5.89.51-2.04 0-3.58.25-5.62.25-4.61 0-7.68-.51-12.02-.51-6.4 0-10.74.26-16.88.51-2.56 0-4.35.259-6.65.259-3.07 0-5.37-.259-8.19-.509h-8.691c-2.046 0-3.581-.26-5.627-.26-3.325 0-5.626.26-8.951.26-.853 0-1.478-.116-2.103-.116-.312 0-.625.029-.966.116h-4.603c-3.581 0-6.394-1.02-7.929-2.81-.255-.261-1.023-1.28-1.534-2.561-1.023-1.54-2.046-3.33-2.046-6.649 0-2.051.256-4.351.511-6.4 0-3.321-.511-6.39-.767-9.46v-.51c0-2.3.256-3.84 0-6.141 0-1.79-.256-3.069-.256-4.859v-19.94c0-2.31.512-4.1.512-6.4 0-3.58-.512-6.141-.512-9.46v-2.56c0-4.861-.255-8.44-.255-13.3v-10.481c0-2.299 0-4.09.255-6.399.256-2.3.512-4.09.512-6.391.256-4.349-.512-7.42-.512-11.759 0-4.86.512-8.44.512-13.56v-6.141c.256-1.79.256-3.319.256-5.109 0-4.86-.768-7.931-.768-12.79 0-7.16.768-11.25 3.837-14.32 1.278-1.54 3.324-2.81 6.393-2.81 3.581 0 6.138.25 9.974.25 5.371 0 9.207-.511 14.578-.511 4.6 0 7.93.511 12.53.511 3.07 0 5.37-.25 8.44-.25h3.58c2.05 0 3.33-.261 5.12-.52h.76c1.03 0 2.31.259 3.33.259 1.79 0 3.58-.259 5.11-.259m-262.649-1.27c4.092 0 8.184.25 9.207.51 9.207 1.019 17.902 2.55 20.971 4.86 2.046 1.529 2.046 4.6 2.046 4.859 0 1.791-.511 3.061-.511 4.851s.256 3.58.256 5.369v4.611c0 3.07.255 5.11.255 7.929 0 .25 0 2.811-1.023 4.341-1.79 3.33-6.905 4.35-9.207 4.35-2.301 0-4.091-1.02-6.393-1.281-1.279-.25-14.834-1.529-16.112-1.529-.387 0-.71-.066-1.131-.066-.414 0-.922.063-1.682.316-2.046.52-7.161 2.56-8.952 5.119-1.79 2.301-1.79 6.141-1.79 6.391 0 5.37 4.092 10.49 5.627 11.769 1.278 1.281 3.58 2.811 4.859 3.83 2.046 1.281 3.324 2.561 5.37 3.84 1.023.771 1.791 1.281 3.069 2.051 1.279 1.27 2.046 2.55 3.325 3.579 1.023.761 1.79 1.021 2.813 1.53 1.535 1.021 2.046 1.791 3.581 3.84 2.557 2.551 5.115 4.341 5.882 5.111 1.79 1.54 2.557 2.559 4.092 4.09 1.279 1.03 2.046 1.79 3.069 2.82.767.76 1.79 2.04 1.79 2.04 1.279 1.79 2.046 3.069 3.069 4.859 4.859 7.671 7.417 14.321 7.417 29.671 0 4.35-.256 10.739-1.79 15.09-.512 1.79-1.279 2.81-2.046 4.35-.768 1.53-1.023 2.81-1.535 4.339-1.279 2.821-1.023 2.311-4.092 6.141-4.092 5.63-5.626 7.42-11.253 12.02-1.278 1.28-2.557 2.299-3.58 3.07 0 0-13.299 6.91-19.948 8.18-5.883 1.28-10.23.52-16.368 1.03-1.535 0-2.814.25-4.348.25-1.79 0-2.813-.25-4.603-.25-1.535-.26-2.814-.51-4.348-.51-3.325-.261-5.882-.52-9.207-.77-1.535-.26-2.558-.26-4.092-.51-2.557-.771-5.626-2.05-6.394-2.561-4.603-2.3-4.603-3.84-4.603-6.139 0-2.56.256-4.35.256-6.651 0-3.069-.256-5.109-.256-7.929.256-3.581.767-5.88.767-9.46 0-2.04 0-1.281-.256-3.83-.255-1.281-.255-1.541-.255-2.05 0-1.281.511-2.56 1.023-2.81 1.534-2.56 4.603-2.82 7.672-3.07h3.58c3.069 0 6.394.51 9.463 1.28 3.069 1.02 4.604 2.04 7.928 2.04h6.394c.39 0 1.14.044 2.118.044 4.787 0 15.017-1.063 15.017-13.595 0-1.54 0-3.069-1.279-6.139-2.301-5.63-4.092-6.14-9.207-10.741-.255 0-3.324-3.33-5.115-4.609-2.301-1.53-4.092-2.04-6.137-3.58-2.046-1.79-3.325-3.32-5.371-4.86-1.79-1.531-2.813-2.3-4.348-3.83-1.279-1.02-2.046-2.05-3.325-3.071-2.557-2.559-4.603-4.09-7.161-6.909-2.813-3.06-4.603-6.391-4.859-7.16-3.324-5.62-3.069-5.11-5.37-13.55-.256-1.28-1.535-4.86-2.046-8.95-.256-2.3-.256-3.84-.256-6.141 0-10.739.511-13.04 3.069-19.439.767-2.04 3.836-10.99 13.043-17.641 4.348-3.069 10.997-5.369 11.509-5.63 1.79-.769 6.393-2.559 11.252-3.58 3.069-.509 16.113-1.529 19.181-1.529h1.279" fill="#fff" fill-rule="nonzero"/><path d="M1326.347 1121.599c4.11 3.73 8.5 5.631 12.95 7.08 4.47 1.391 9.06 1.931 13.67 2.381 4.61.46 9.25.649 13.95.539 4.7-.159 9.44-.56 14.28-1.72a4.372 4.372 0 003.24-5.28c-.28-1.189-1.05-2.159-2.03-2.75-4.29-2.539-8.7-4.319-13.14-5.85-4.45-1.49-8.94-2.679-13.48-3.62-4.54-.91-9.08-1.759-13.77-1.75-4.68.08-9.43.611-14.47 2.95a4.87 4.87 0 00-1.2 8.02M1322.177 1061.94c8.59 3.39 17.59 4.39 26.52 4.358 8.94-.089 17.8-1.62 26.45-3.75 8.66-2.13 17.12-5.069 25.2-8.799 8.05-3.76 15.76-8.27 22.7-13.84 1.8-1.43 2.07-4.04.64-5.83a4.148 4.148 0 00-4.25-1.42l-.04.01c-8.28 2.11-16.29 4.29-24.31 6.22-8 1.95-15.97 3.7-23.97 5.2-8 1.52-16.03 2.59-24.06 4.02-8.05 1.51-16.14 2.96-24.58 5.73l-.06.01c-2.25.75-3.49 3.17-2.75 5.42a4.297 4.297 0 002.51 2.67M1306.727 1007.31c7.55-.15 14.42-2.53 20.81-5.7 6.37-3.25 12.05-7.651 17.33-12.401 5.28-4.79 10.06-10.1 14.19-15.87 4.1-5.8 7.62-12 10.01-18.73a4.194 4.194 0 00-2.55-5.36 4.133 4.133 0 00-4.07.72l-.05.03c-5.24 4.3-10.08 8.61-15.01 12.73a442.957 442.957 0 01-14.72 12.04c-4.96 3.89-10.08 7.47-14.99 11.47-4.9 4.07-9.78 8.19-14.38 13.71l-.06.08a4.44 4.44 0 003.49 7.28M635.103 1113.929c-2.853 4.761-6.494 7.86-10.334 10.54-3.871 2.641-8.105 4.49-12.377 6.261a113.59 113.59 0 01-13.193 4.569c-4.542 1.221-9.192 2.21-14.167 2.521a4.378 4.378 0 01-4.631-4.111 4.36 4.36 0 011.142-3.219c3.364-3.68 7.066-6.67 10.862-9.43a116.996 116.996 0 0111.846-7.381c4.078-2.189 8.173-4.33 12.66-5.689 4.501-1.281 9.208-2.151 14.703-1.391 2.658.391 4.507 2.851 4.135 5.5a4.937 4.937 0 01-.646 1.83M621.724 1055.639c-7.233 5.74-15.554 9.32-24.104 11.891-8.581 2.509-17.495 3.63-26.395 4.109a140.65 140.65 0 01-26.67-1.079c-8.799-1.261-17.486-3.32-25.747-6.631-2.136-.85-3.153-3.26-2.307-5.399a4.15 4.15 0 013.652-2.59l.039-.011c8.537-.39 16.839-.63 25.072-1.119 8.218-.461 16.353-1.11 24.445-2 8.095-.881 16.089-2.191 24.19-3.16 8.139-.891 16.298-1.861 25.175-1.67h.062c2.377.05 4.264 2.01 4.216 4.369a4.338 4.338 0 01-1.628 3.29M620.602 998.869c-7.267 2.06-14.532 1.79-21.569.62-7.037-1.26-13.757-3.82-20.19-6.83-6.442-3.04-12.564-6.73-18.193-11.05-5.607-4.35-10.783-9.261-15.031-15a4.193 4.193 0 01.882-5.87 4.131 4.131 0 014.107-.5l.052.01c6.264 2.599 12.15 5.31 18.066 7.81a445.362 445.362 0 0017.59 7.24c5.871 2.28 11.813 4.21 17.683 6.61 5.865 2.46 11.737 4.98 17.748 8.93l.079.06c2.05 1.34 2.614 4.1 1.27 6.15a4.447 4.447 0 01-2.494 1.82" fill="#060608" fill-rule="nonzero"/></g></g></svg>