<svg viewBox="0 0 1089 716" xmlns="http://www.w3.org/2000/svg" fill-rule="evenodd" clip-rule="evenodd" stroke-linejoin="round" stroke-miterlimit="2"><g transform="translate(-367.442 -189.865)"><path fill="none" d="M367.442 189.865h1088.68V905H367.442z"/><clipPath id="a"><path d="M367.442 189.865h1088.68V905H367.442z"/></clipPath><g clip-path="url(#a)"><path d="M837.801 723.66c1.764-2.595 3.752-1.67 3.918 1.153.332 5.6-2.16 13.924-6.634 22.04-1.755 3.181-3.899 6.263-6.286 9.25 3.124-17.927 6.463-28.707 9.002-32.443m-21.472 49.947c.202-.194.405-.4.615-.607-.9 5.962-1.64 11.746-2.111 17.555-.28 3.44.258 5.876 3.509 5.364 1.652-.26 3.86-1.235 5.332-2.15 1.52-.943 1.647-1.792 1.965-3.26 3.186-14.769 9.316-28.872 16.044-33.334 1.774-1.176 3.994-1.406 3.727 2.625-.361 5.473-2.693 12.985-3.071 19.566-.672 11.704 9.849 12.396 17.309 8.8 1.368-.658 1.626-.909-.114-1.66-3.862-1.668-4.939-4.925-5.09-9.405-.125-3.69.797-9.088 1.443-14.533 1.8-15.156-8.985-16.57-17.029-8.665-6.363 6.255-9.063 12.503-12.563 20.514-.12.275-.286.234-.247-.063a453.21 453.21 0 011.748-12.19c9.222-9.865 19.065-23.048 17.935-36.285-.866-10.166-11.352-11.317-17.882.362-3.126 5.589-5.19 12.481-7.731 27.493-.84 4.96-1.773 10.105-2.513 14.702-1.264 1.323-2.34 2.225-3.627 3.417-1.789 1.653-.853 4.825 2.351 1.754M864.503 749.018a95.47 95.47 0 014.119-1.29c-1.352 8.995-2.838 19.144-3.12 22.332-.542 6.192.068 9.331 1.84 11.473 1.597 1.93 4.014 2.635 6.934 2.506 5.347-.236 11.316-3.582 12.457-6.273.373-.88-.109-.731-.758-.525-7.146 2.26-10.217.68-9.214-7.694.633-5.292 2.144-15.13 3.592-24.302 2.994-.422 6.202-.727 9.752-.913 1.938-.104 3.783-4.746 0-4.548a88.372 88.372 0 00-9.04.966c1.102-6.914 2.067-12.888 2.445-15.402.73-4.858-2.24-4.113-4.796-2.881-2.042.98-3.79 2.314-4.91 3.468-2.025 2.084-2.34 2.835-2.872 6.548-.17 1.18-.845 5.568-1.666 10.981-1.44.458-2.801.946-4.054 1.464-2.5 1.035-3.215 4.938-.709 4.09M764.766 892.908c-11.666 7.143-20.056-1.837-11.154-12.35a25.713 25.713 0 011.798-1.905c3.586 5.055 8.439 9.266 13.055 11.86a83.047 83.047 0 01-3.699 2.395m-5.125-40.885c1.473-2.426 3.764-3.393 5.929-2.767 2.425.702 3.846 4.645 2.003 9.646-1.176 3.193-2.83 5.704-6.735 9.122-2.63-6.157-3.295-12.55-1.197-16.001m29.895 39.874c-4.62-.954-7.287-2.117-9.425-3.276 3.187-4.646 5.541-9.44 6.962-13.269 1.608-4.327-1.136-5.272-2.846-2.4-3.213 5.396-6.103 9.245-9.494 12.504-5.86-3.895-9.166-8.662-11.532-12.793 1.715-1.19 3.395-2.383 4.924-3.708 3.734-3.239 7.346-7.283 8.344-12.56 1.186-6.27-2.985-12.706-12.285-11.3-10.14 1.531-14.269 11.295-14.269 18.197 0 3.844 1.115 7.633 2.93 11.158-6.99 6.206-10.812 13.487-11.299 18.458-.799 8.178 5.005 13.155 12.373 12.952 8.999-.25 16.511-5.535 22.223-12.098 4.205 1.33 8.833 2.13 12.636 1.58 2.981-.434 3.36-2.907.758-3.445M760.725 765.846c2.898-.41 6.232-2.172 8.17-4.544 2.407-2.944 1.54-5.173-1.417-6.102-4.428-1.393-9.524.975-11.362 4.538-1.726 3.343-.072 6.768 4.609 6.108" fill="#0a0707" fill-rule="nonzero"/><path d="M806.258 782.25c-1.01-2.017-2.706-2.725-4.743-1.118-3.368 2.658-5.969 7.45-10.7 10.556-2.969 1.947-5.484.892-5.529-3.703-.062-6.522 4.464-15.476 8.634-19.136 4.47-3.923 8.509-3.285 11.787 1.794 1.541 2.39 4.111 1.34 3.152-.998-6.568-16.024-33.357-5.584-35.557 20.782-.186 2.23.057 4.259.66 5.974-1.315 2.004-3.041 4.067-5.624 6.143-4.989 4.012-8.053 2.711-7.098-6.341.794-7.52 2.718-13.672 5.036-21.54.531-1.806-.048-2.882-2.095-2.401-3.318.777-6.047 2.138-7.977 3.158-2.832 1.494-3.75 3.549-4.619 6.693-1.4 5.057-2.784 13.022-3.017 18.873-.359 9.027 4.212 14.174 13.185 11.153 5.12-1.723 10.562-7.105 14.207-12.387 2.069 2.163 5.198 2.971 8.981 1.717 3.682-1.222 8.272-4.704 11.584-9.451 1.414 4.921 1.514 9.642 1.174 17.407-.541 12.362-5.604 22.14-11.696 26.459-5.48 3.885-8.198 1.356-6.35-4.257 1.477-4.482 5.936-12.377 14.009-18.112 2.655-1.886 2.38-9.946-.42-8.38-9.447 5.288-18.18 20.081-19.735 30.268-1.33 8.703 2.856 13.528 12.919 8.93 7.992-3.654 16.143-13.166 19.584-24.978 3.407-11.692 3.673-30.263.248-37.105M891.044 832.939c2.769-1.273 6.656-.25 4.472 4.785-2.233 5.148-8.091 7.352-14.058 8.044 2.744-8.479 6.664-11.486 9.586-12.83m31.023-3.86c3.088-1.405 4.696-.336 3.489 3.813-1.552 5.332-7.654 9.854-13.343 10.912 2.233-9.155 6.809-13.337 9.854-14.725m11.133 19.748c-10.969 14.225-22.265 10.045-21.609-1.203 8.435-1.03 15.834-5.084 18.794-10.986 4.49-8.957-1.342-14.45-10.16-12.426-10.038 2.303-18.104 13.018-19.055 23.528-.189 2.068-.14 3.93.109 5.597-.012.013-.023.025-.031.038-11.427 14.82-21.875 9.67-21.266-.907 8.743-.882 16.463-6.274 19.08-12.02 4.506-9.884-1.499-14.698-9.958-12.658-10.536 2.544-19.59 14.525-20.59 25.588-1.038 11.49 5.32 16.422 12.676 16.871 6.99.428 16.398-4.865 21.339-12.61 1.992 4.286 5.805 6.5 10.176 6.908 7.057.658 17.553-4.908 22.384-14.139 1.248-2.386-.37-3.554-1.89-1.58" fill="#0a0707" fill-rule="nonzero"/><path d="M872.333 831.023c3.35 2.971 7.69-.486 8.495-3.866.882-3.71-1.185-6.88-5.955-6.266-5.862.755-11.368 6.47-16.074 16.266-.215.448-.452.412-.343-.04.545-2.29 1.221-4.441 1.305-6.106.187-3.754-2.705-3.606-5.977-3.181-4.408.572-11.182 2.32-18.619 4.875 2.404-8.839 4.769-17.845 6.654-26.557 19.164-5.826 38.55-10.452 53.182-8.056 14.632 2.394 11.073 9.864 6.14 12.199-1.564.74-1.077 2.235 1.005 1.714 6.759-1.696 13.327-15.366-6.566-18.982-27.091-4.925-62.945 5.813-76.67 11.674-3.68 1.573-4.792 3.582-6.316 7.54-2.172 5.648 1.506 6.171 5.266 4.208a174.81 174.81 0 019.004-4.37c-1.621 7.406-4.139 16.78-6.85 26.665-4.99 2.286-9.783 4.818-13.885 7.493-3.366 2.194-2.79 10.497 1.377 7.668 2.832-1.922 6.275-4.077 10.053-6.237-4.262 15.514-8.49 31.218-10.115 41.78-.842 5.471.776 7.434 5.636 4.792 2.449-1.33 6.214-4.047 9.512-7.588.594-.64.625-1.31.702-2.402.804-11.312 5.219-27.308 9.928-44.44 4.388-1.874 8.765-3.434 12.821-4.415 1.648-.4 1.178.663 1.025 1.327-2.516 10.953-5.901 30.876-6.464 38.454-.251 3.398 1.957 4.123 3.87 3.662 3.871-.93 6.139-3.403 7.896-4.718 1.067-.797 1.023-1.41 1.125-2.857 1.074-15.267 5.224-28.427 9.143-34.195 3.037-4.472 6.615-8.772 9.695-6.041M746.998 755.211c-.267 3.815-4.565 12.583-11.326 18.267 2.05-10.053 3.526-17.244 5.421-20.486 1.977-3.378 6.173-1.613 5.905 2.22m18.061 75.784c1.903.209 2.756-.126 3.965-1.403 2.081-2.198 3.734-5.619 3.49-8.064-.15-1.48-1.409-2.32-3.8-2.309-12.237 0-31.235 11.02-48.364 24.489-1.256.987-1.722.656-1.29-1.424 1.068-5.121 10.595-41.671 10.595-41.671.493-2.016.986-4.056 1.473-6.109.939-3.967 1.77-7.729 2.522-11.261 7.527-5.63 11.886-9.453 16.163-16.326 7.448-11.974.665-20.58-6.599-21.058-5.136-.337-9.66 2.129-13.716 7.63-5.116 6.941-7.893 19.6-10.307 29.442l-1.143 4.662c-2.89 1.4-5.898 2.475-8.997 3.164-11.942 2.657-12.187-5.297-8.53-9.343 1.159-1.282.135-2.476-1.587-1.197-5.59 4.152-6.164 18.284 11.186 15.076 2.088-.386 4.268-1.042 6.496-1.925-.06.249-.115.498-.168.747-4.766 19.461-13.045 53.45-14.842 62.492-.855 4.31 2.782 6.375 7.179 2.905 27.14-21.43 47.627-29.638 56.274-28.517" fill="#0a0707" fill-rule="nonzero"/><path d="M1079.982 772.557c4.174-.41 7.223-.828 11.29-1.914-.088-2.361-.779-12.263-6.302-12.317-4.398-.045-5.13 5.684-5.17 9.73-.014 1.574.198 2.927.182 4.5m23.849 16.426c-2.388 2.114-7.952 5.992-17.307 5.9-12.059-.118-21.464-6.731-21.334-20 .138-13.828 9.897-20.364 21.847-20.248 13.749.136 16.357 10.17 16.753 15.57-6.904 2.856-15.268 5.023-23.174 6.631.735 5.29 3.262 12.062 13.517 12.277 4.85.047 7.68-1.5 9.039-2.047l.659 1.917z" fill="#080606" fill-rule="nonzero"/><path d="M1136.958 790.657c-.907.666-6.922 4.655-14.926 4.576-22.205-.22-22.045-16.296-22.012-19.78.054-5.51 5.166-20.752 23.54-20.57 11.272.11 11.802 3.376 12.816 3.5-.485 3.368-1.632 5.491-4.59 8.05l-1.237-.012c-1.113-1.587-4.893-6.907-9.176-6.95-4.397.07-6.707 5.558-6.776 12.64-.117 11.803 6.707 17.156 14.596 17.235 3.272.03 5.189-.287 6.884-.607l.881 1.918zM1176.924 773.511c4.173-.41 7.223-.828 11.291-1.914-.09-2.361-.781-12.263-6.304-12.317-4.398-.043-5.131 5.684-5.17 9.731-.016 1.575.198 2.926.183 4.5m23.734 16.424c-2.387 2.114-7.951 5.994-17.305 5.902-12.063-.118-21.467-6.733-21.334-20 .139-13.828 9.895-20.366 21.845-20.248 13.751.136 16.355 10.169 16.755 15.569-6.906 2.857-15.268 5.023-23.177 6.63.738 5.29 3.152 12.062 13.519 12.278 4.845.048 7.682-1.499 9.038-2.048l.66 1.917zM1060.19 767.526c-.202-2.363-2.5-9.358-8.023-9.412-.338-.003-4.284-.04-4.325 4.118-.02 2.024-.043 4.272 11.401 9.782 5.161 2.412 7.26 7.044 7.225 10.414-.089 9.108-8.238 12.29-17.595 12.196-4.957-.05-8.668-.984-12.821-2.937-.531-3.154-1.273-8.108-1.229-12.605l4.734.048c.827 7.54 5.521 11.746 9.466 11.786 4.171.04 4.87-2.314 4.893-4.562.016-1.8-1.422-4.4-6.02-6.92-5.493-2.863-12.683-5.52-12.604-13.615.07-7.083 5.526-11.527 16.799-11.416 5.636.056 9.117 1.438 11.248 2.472.755 3.493.717 7.315.682 10.802l-3.832-.038" fill="#080606" fill-rule="nonzero"/><path d="M1200.083 756.986l.04-3.934c.09-9.107 13.602-7.513 13.602-7.513l-.117 11.693c3.718.374 5.857.506 9.35.766l-.022 2.135c-2.71.424-6.656.723-9.364.808l-.135 13.605c-.087 8.768-.043 15.964 7.508 16.038 1.575.017 3.046-.42 3.95-.748l.545 2.142c-2.38 1.438-6.355 4.211-15.485 4.121-1.24-.013-10.257-.101-10.142-11.906l.234-23.496.036-3.711zM1139.39 795.403l.36-24.957c.056-5.622.086-8.657-2.282-8.68l-2.366-.023-.653-2.482c7.687-2.17 11.304-2.924 17.401-3.988.541 2.255.648 3.044.845 5.856 2.162-2.115 5.242-5.797 9.75-5.75 4.622.045 6.281 3.435 7.166 5.242-.709 3.029-2.649 5.482-5.934 7.361-2.371-.023-4.489-2.404-8.423-3.455-.675-.118-1.349-.35-2.024-.47l-.2 20.236-.147 3.485c.021 9.221-13.493 7.625-13.493 7.625M1117.299 840.723c-1.817 1.331-5.553 2.87-11.19 2.814-8.002-.079-16.295-4.884-16.195-15.004.133-13.49 9.77-19.13 18.225-19.046 3.38.033 6.53.852 8.096 2.103-.013 1.35-.824 3.48-1.855 5.152l-.452-.003c-1-1.47-3.57-3.859-8.188-3.903-5.076-.05-9.287 3.957-9.366 11.827-.108 11.13 5.59 16.36 13.593 16.439 2.818.027 5.765-1.519 6.784-2.07l.548 1.69z" fill="#080606" fill-rule="nonzero"/><path d="M1133.445 826.603c-4.057-.04-10.95 1.69-11.015 8.212-.04 4.046 2.417 6.434 6.473 6.475 3.046.03 4.869-2.09 5.328-2.875l.116-11.914-.9-.008-.002.11zm12.473 15.528c-.908.664-2.386 1.774-5.314 1.746-3.61-.036-4.833-1.508-5.495-2.98-2.271 1.442-4.877 2.879-10.398 2.823-5.186-.05-8.652-3.01-8.614-6.943.09-9.107 12.292-11.685 18.51-13.535l.017-1.574c.044-4.608-1.155-8.669-6.454-8.723-5.636-.054-7.483 4.313-8.749 6.998l-.564-.005c-.78-.794-1.338-1.588-1.775-2.827 2.168-2.791 6.724-7.468 14.164-7.395 8.003.077 9.654 4.256 9.581 11.452l-.097 10.005c-.05 4.946-.103 10.231 3.731 10.27.674.006 1.013-.104 1.241-.214l.216.902zM1181.822 825.28c5.083-.851 10.956-2.253 15.933-3.892-.972-4.395-2.623-8.57-8.03-8.622-5.976-.06-7.852 7.343-7.903 12.514m21.832 15.282c-1.14 1-6.016 3.877-12.325 3.815-8.908-.089-16.062-6.006-15.963-16.01.118-11.807 8.408-18.135 16.522-18.055 9.47.094 11.43 6.973 12.297 10.693-8.042 3.855-16.294 5.908-22.28 7.314.294 4.385 3.479 12.624 13.063 12.717 4.285.043 7.006-1.728 8.025-2.166l.661 1.692z" fill="#080606" fill-rule="nonzero"/><path d="M1220.529 821.165c.033-3.149-2.174-8.233-6.796-8.277-2.705-.026-4.528 1.868-4.558 4.903-.079 7.984 15.612 5.888 15.5 17.02-.065 6.633-5.62 9.726-12.269 9.66-4.622-.046-6.976-1.307-8.888-2.11-.982-3.159-1.284-6.649-1.256-9.46l1.917.019c1.417 4.626 3.739 9.147 9.377 9.201 3.158.031 4.988-2.65 5.013-5.123.094-9.556-15.609-6.338-15.495-17.806.057-5.733 5.274-8.83 11.36-8.769 3.72.036 5.85 1.18 7.42 2.096.65 2.48.853 4.73.817 8.44l-2.14-.02-.004.226h.002zM1043.322 820.43c6.888-1.169 14.912-3.112 21.582-5.187-1.294-5.856-3.604-11.615-10.817-11.686-8.118-.08-10.696 9.902-10.765 16.873m29.012 18.725c-1.591 1.445-6.72 7.017-16.19 7.037-11.949-.007-21.676-8.198-21.543-21.686.16-16.078 11.403-24.4 22.337-24.294 12.736.126 15.465 9.374 16.654 14.444-10.875 5.176-21.947 7.992-30.197 9.818.28 5.852 4.79 17.14 17.64 17.267 5.75.056 8.606-3.737 9.964-4.398" fill="#080606" fill-rule="nonzero"/><path d="M1086.503 819.844c.032-3.148-2.172-8.232-6.794-8.276-2.705-.027-4.528 1.868-4.558 4.903-.079 7.983 15.612 5.887 15.5 17.019-.066 6.633-5.62 9.726-12.27 9.66-4.623-.045-6.977-1.306-8.886-2.11-.983-3.158-1.288-6.648-1.26-9.459l1.918.018c1.418 4.626 3.742 9.148 9.378 9.202 3.157.03 4.985-2.65 5.01-5.123.094-9.556-15.607-6.339-15.492-17.807.056-5.733 5.273-8.829 11.358-8.768 3.721.036 5.852 1.179 7.42 2.096.65 2.48.854 4.73.82 8.44l-2.144-.021-.002.226h.002zM1158.889 841.584c-4.624-.046-5.96-1.41-7.754-2.664l.24-24.172c1.131-.438 2.948-1.545 5.878-1.517 6.312.064 12.356 4.507 12.264 13.728-.089 8.993-3.527 14.693-10.628 14.625m2.003-31.577c-4.734-.046-7.91 1.945-9.5 2.829.006-.563-.315-2.138-.872-2.93-2.48-.025-8.019 1.718-10.054 2.374l.21 1.69 1.58-.435c.112.001.677-.107 1.016-.104 1.917.018 1.898 1.932 1.829 8.903l-.359 36.2s6.192.734 6.233-3.423l.018-1.8.018-1.8.083-8.322c1.123.238 2.81.818 5.741.846 7.777.077 19.096-4.42 19.236-18.586.097-9.78-6.838-15.36-15.18-15.442" fill="#080606" fill-rule="nonzero"/><path d="M989.634 776.787l-10.294 15.617 10.876 16.137-3.783.02-9.093-13.65-8.936 13.751-3.662.021 10.694-16.256-10.47-15.502 3.742-.021 8.686 13.017 8.537-13.113 3.703-.02z" fill="#17120f" fill-rule="nonzero"/><g><path d="M858.591 204.436c19.563 2.619 25.863 6.881 35.346 14.64 3.367 2.754 5.788 4.969 7.685 6.943a74.914 74.914 0 015.765-4.59l.221-.156c5.579-3.938 14.531-8.059 18.986-10.001l.31-.155 1.351-.579.692-.279.341-.144-.172.076c3.743-1.561 11.645-4.49 20.823-6.422l1.045-.174c4.384-.731 23.016-2.215 27.4-2.215h1.279l5.081.124c4.994.235 9.603.766 12.727 1.247l-3.079-.554c7.484.832 14.676 2.325 21.12 4.139 5.045-1.863 10.819-2.91 20.927-2.91 3.681 0 6.278.202 9.552.512h2.724c5.626 0 9.463-.256 14.833-.256 4.604 0 7.673.256 12.276.256h1.279a69.25 69.25 0 003.253-.08l6.026-.352a69.25 69.25 0 013.253-.08c2.046 0 3.836.256 6.137.256 1.791 0 3.837-.256 5.883-.256h5.626c4.2 0 7.374-.143 11.049.153l1.262.083c1.502-.099 3.959-.236 5.591-.236 2.854 0 7.003.425 9.947.791 2.433-.268 5.433-.535 7.7-.535 4.897 0 11.018 1.201 16.389 2.639 5.728-1.988 12.253-3.151 19.671-3.151 3.581 0 6.138.256 9.974.256 5.371 0 9.207-.511 14.578-.511 4.603 0 7.928.511 12.532.511l8.439-.256h1.564l3.578-.511h4.321c.958 0 2.438.082 3.818.181 1.484-.085 3.472-.181 4.622-.181 1.534 0 2.957.048 4.323.12l7.976.527c1.367.072 2.79.12 4.324.12 3.836 0 6.65-.511 10.486-.511 16.242 0 29.446 5.826 39.191 14.353 11.052 9.67 19.504 23.568 19.504 43.831 0 2.988-.34 7.431-.491 9.196.038 4.068.747 6.829.747 11.008 0 12.389-1.485 18.456-4.906 24.773 3.704 7.647 4.65 14.568 4.65 23.563 0 .75-.37 6.927-.511 9.246v2.235l-.489 3.42c.042 10.957.603 4.548-1.037 15.187-.993 6.955-1.581 8.829-2.575 11.809l-.167.502a33.751 33.751 0 012.058 3.525l-1.207-1.887c5.877 11.182 9.299 26.388 9.299 34.221 0-.84-.277-1.45-.277-1.45s.611 3.402.914 5.99c.304 2.432.479 5.431.557 8.289 1.768.122 3.602.206 5.633.206 3.836 0 6.649-.512 10.485-.512 16.242 0 29.449 5.827 39.189 14.354 11.05 9.67 19.51 23.568 19.51 43.83 0 2.989-.34 7.432-.49 9.196.03 4.069.74 6.83.74 11.008 0 12.389-1.48 18.457-4.9 24.774 3.7 7.647 4.65 14.568 4.65 23.563 0 .75-.37 6.927-.51 9.246v2.235l-.49 3.42c.04 10.957.6 4.548-1.04 15.187-.99 6.955-1.58 8.829-2.58 11.809l-.16.501c.84 1.27 1.01 1.609 1.01 1.609 5.87 11.181 9.14 26.417 9.14 34.251 0-.84-.28-1.451-.28-1.451s.61 3.403.91 5.991c.49 3.885.65 9.221.65 13.107 0 14.859-5.36 31.578-18.73 43.635-8.12 7.317-20 14.804-39.969 14.804-2.973 0-5.128-.409-8.112-.476l-1.456.171-2.752.305h-2.77c-2.045 0-3.58.256-5.626.256-4.603 0-7.672-.511-12.02-.511-5.606 0-9.417.244-15.838.511h-1.041c-2.558 0-4.348.256-6.65.256-3.824 0-6.883-.206-10.198-.512h-6.681c-2.046 0-3.581-.255-5.627-.255-2.051 0-3.713.097-5.466.156l-.398.099h-10.759c-19.487 0-34.005-7.992-43.336-17.514l.052.057-.093-.098a46.927 46.927 0 01-2.514-2.718l1.094 1.181c-1.974-2.216-5.025-6.036-7.785-10.895-3.732-5.89-7.146-12.801-8.409-23.111l-5.104 1.203-1.452.332-1.469.245c-.902.151-1.498.326-2.25.477l-4.855.971h-2.581l-1.796.255c-1.35 8.448-4.538 18.277-11.756 27.293-6.209 7.754-15.446 16.108-32.391 20.175l-2.278.546-2.319.332c-2.942.42-10.085 1.269-18.069 1.269-4.585 0-7.804-.455-12.234-.492l-2.131.237h-5.071c-5.268 0-10.481-.655-15.945-2.363-5.167 1.132-10.142 1.595-14.489 1.595h-2.302c-5.115 0-8.695.768-13.555.768-5.061 0-24.048-1.902-29.11-3.589-7.612-2.538-14.523-5.902-20.631-11.217-8.382 7.97-12.095 8.882-19.099 11.217 0 0-12.863 3.333-22.717 3.333l-11.351-.237c-1.965.187-5.719.493-8.342.493-4.618 0-9.293-.697-12.43-1.309-2.431-.284-4.574-.627-6.506-1.05-9.939 3.129-18.365 3.382-20.449 3.382-2.813 0-5.115-.256-9.183-.256l-.999-.04c-8.854-.354-10.974-.404-20.28-1.835l-.097-.016c-8.794-1.388-13.822-2.611-17.988-4-1.276-.425-4.903-1.923-6.919-2.768l-2.379-.679-4.156-2.079c-4.065-2.032-7.952-3.899-11.001-5.932a87.401 87.401 0 01-3.128-2.22l-1.326-.795-1.852-1.482c-1.263-.879-3.375-2.393-5.215-3.865l-.83-.726a109.149 109.149 0 01-2.602-2.359c-1.555 1.44-3.32 2.961-5.435 4.703a84.437 84.437 0 01-6.785 5.653l-3.299 2.475-3.66 1.9s-22.462 10.778-32.368 12.668c-8.222 1.787-14.257 1.277-22.837 1.991l-2.072.173h-.909c-1.521.109-3.938.256-5.519.256-1.789 0-4.201-.147-5.682-.256h-3.059l-3.874-.645-.171-.014c-3.324-.255-5.882-.511-9.207-.767l-2.204-.169-1.48-.247c-1.121-.123-3.298-.379-4.793-.628l-3.119-.52-3.028-.909a62.647 62.647 0 01-3.118-1.029c-5.996 2.22-13.177 3.649-21.9 3.649-2.973 0-5.128-.409-8.111-.476l-1.456.171-2.753.305h-2.769l-5.626.256c-4.604 0-7.673-.511-12.02-.511-5.606 0-9.417.244-15.839.511h-1.041c-2.557 0-4.348.256-6.649.256-3.824 0-6.884-.206-10.199-.512h-6.681c-2.046 0-3.58-.255-5.626-.255-2.051 0-3.713.097-5.467.156l-.398.099h-10.759c-19.486 0-34.004-7.992-43.336-17.514l.053.057-.093-.098a46.949 46.949 0 01-2.515-2.718l1.094 1.181c-1.973-2.216-5.025-6.036-7.784-10.895-4.637-7.317-8.781-16.208-8.912-31.234-4.552.581-9.72 1.132-11.194 1.132-6.531 0-11.843-.854-16.285-2.191-8.597 1.587-18.261 2.191-19.78 2.191-3.39 0-8.658-.658-10.977-.972l-.465-.052c-9.911-1.101-9.806.247-24.236-5.389 0 0-5.818-2.244-9.469-4.069-1.585-.793-6.536-3.66-12.084-7.623l-3.367-2.405-2.627-2.627-1.231-1.148-2.631-2.564-3.108-3.35-2.663-3.259-1.836-2.422.065.091-.832-1.111-.216-.323c-2.151-2.874-7.081-9.764-10.12-16.302l-.727-1.646c.227.545.47 1.094.727 1.646l.118.267c-3.097-6.635-5.464-13.919-6.776-27.472-.357-3.572-.427-6.427-.427-9.999 0-10.673 1.779-16.919 5.437-27.474 1.277-3.833 2.274-6.456 3.869-9.717 2.405-5.46 4.268-8.326 8.563-13.479l-.475.628 1.415-1.687a32.196 32.196 0 01-.149-2.817v-2.769l.306-2.752c.089-.801.239-1.803.412-2.824v-2.605l1.037-3.628.004-.028c1.168-8.176 2.149-20.826 19.653-39.538l2.025-2.024c7.557-7.558 14.887-11.643 17.701-13.331l.728-.404c4.543-2.524 8.447-4.053 11.5-5.005 10.117-3.96 11.776-4.684 22.709-4.693 2.745-.191 9.512-.504 15.694.39l1.716.283c-.565-.106-1.138-.2-1.716-.283l-.428-.071c1.256.18 2.153.359 3.409.539l3.381.483 1.785.509c1.521.31 3.474.737 4.908 1.147l2.459.702 2.375.95c1.806.723 3.946 1.511 7.559 3.317 2.858 1.429 8.876 4.399 15.962 10.45l1.815 1.551 2.384 2.211.756.757c9.076-10.036 22.703-18.783 43.05-18.783 3.581 0 6.138.256 9.974.256 5.371 0 9.207-.512 14.578-.512 4.603 0 7.928.512 12.532.512 3.069 0 5.37-.256 8.439-.256h1.564l3.578-.511h4.321c.958 0 2.438.082 3.818.181l.599-.035 1.471-.054.085-1.149c.024-2.776.127-5.006.447-7.841l.061-1.45-.012-1.408v-27.468c-.314-3.138-.511-5.989-.511-9.36 0-3.674.551-9.226.767-11.192v-.958l.014-.175c-.111-1.679-.27-4.541-.27-6.6v-2.769l.244-2.196-.244-.731v-5.507c-9.382-3.073-16.876-7.985-21.131-11.389l-2.162-1.73-1.959-1.958c-6.161-6.161-10.691-13.854-11.923-16.319l-5.279-10.557v-8.853c-.29-2.224-.511-4.631-.511-6.531 0-3.872.458-6.829.493-10.82-.1-1.474-.238-3.887-.238-5.548v-5.626c0-2.274.114-4.412.346-6.419.415-10.856 2.749-16.814 8.819-25.92 3.509-5.263 8.907-10.321 11.418-12.547-.906.789-2.029 1.786-2.613 2.369l5.737-5.737 7.258-3.629c8.464-4.232 13.651-6.813 29.521-6.813 3.681 0 6.278.202 9.552.512h2.724c5.626 0 9.463-.256 14.833-.256 4.604 0 7.673.256 12.276.256h1.279a69.25 69.25 0 003.253-.08l6.026-.352a69.25 69.25 0 013.253-.08c2.046 0 3.836.256 6.137.256 1.791 0 3.837-.256 5.883-.256h5.626c1.804 0 3.285-.11 4.882-.113h.481c2.023.01 4.073.094 6.234.302l.714.047c1.502-.099 3.959-.236 5.591-.236 3.635 0 6.992.291 10.292.758 2.367-.259 5.194-.502 7.355-.502 9.016 0 22.181 4.072 27.174 6.204 7.14-3.667 15.239-5.948 29.602-5.948h2.155l1.386.077c3.564.198 5.938.434 9.502.434 1.343 0 2.605-.032 3.828-.08l7.177-.351a96.77 96.77 0 013.828-.08h1.285c2.237-.252 5.075-.512 7.155-.512 1.408 0 6.725.358 11.149 1.01zM716.81 702.257l-1.686-.12 1.552.12h.134c.579.012 1.161 0 1.786 0h-1.786zm-266.021-61.829l.219.024c-.047-.003-1.382-.186-1.382-.186s.437.064 1.163.162zm-58.284-28.171l.027.031-.153-.164.126.133zM520.723 434.94l-.56-.479 1.084.914-.524-.435zm111.49-81.892c.119.386.231.723.325.996.093.273.168.482.211.613l-.536-1.609zm694.699-7.136l-.276 1.812s.155-.654.276-1.812zM858.591 204.436l-.59-.078 1.753.26a61.026 61.026 0 00-1.163-.182z" fill="#fff"/></g><g><path d="M687.343 253.938c-4.603 0-7.672-.256-12.275-.256-5.371 0-9.207.256-14.834.256h-4.859c-2.813-.256-4.603-.512-7.417-.512-3.836 0-5.115.512-7.16 1.535-.512.511-1.535 1.023-2.558 2.557-.512.767-.512 1.279-.512 2.302-.255.511-.255 1.279-.255 2.302v5.626c0 1.79.255 3.069.255 4.86 0 4.347-.511 7.416-.511 11.508 0 1.534.511 3.069.511 3.58.256.512 1.28 2.046 2.558 3.325 1.279 1.023 3.836 3.325 7.16 3.325 1.535 0 2.558-.256 3.837-.512 1.023 0 3.07-.255 5.627-.255 10.997 0 19.18.511 21.994 7.416.767 1.79 1.279 4.092 1.279 5.882 0 1.023-.256 1.79-.256 3.07 0 1.534.256 2.813.256 4.347.255 2.046.255 3.58.255 5.627 0 5.37-.255 8.95-.255 14.066v4.859c.255.767.767 4.603.767 7.672-.256 2.302-.512 3.836-.767 6.138 0 3.325.511 5.37.255 8.696 0 3.836-.767 6.393-.767 10.23 0 2.557.256 4.603.512 7.16v29.667c0 2.558 0 4.604-.256 7.417-.256 2.046-.256 3.325-.256 5.37 0 1.024-.256 1.79-.256 3.07 0 1.278.512 2.045.768 3.324.255.767 1.278 5.882 6.137 5.882 1.535 0 3.07-.255 4.86-.511h.255c2.302 0 4.092.511 6.394.511 2.558.256 4.348 0 6.905 0h6.905c.512 0 2.814 0 5.115-.511 3.325-.767 5.627-2.813 6.394-4.604.512-1.023.767-1.278.767-3.069 0-3.068-.511-5.37-.511-8.183 0-2.814.511-4.86.511-7.417v-3.325c-.255-2.557 0-4.603 0-7.417 0-3.58-.511-6.137-.767-9.718 0-5.115.767-8.695.767-13.81 0-2.046 0-3.325-.255-5.115-.256-2.558 0-4.092 0-6.65 0-2.046-.256-3.58-.256-5.882-.256-4.86-.512-8.184-.512-13.043 0-2.557.256-4.603.256-7.417 0-3.069-.256-5.37-.256-8.44 0-2.557 0-4.091.256-6.649v-6.65c.256-2.557.512-4.091.767-6.649.512-2.813 0-2.813.512-4.859.256-1.534.256-1.279 2.046-3.58 1.279-1.535 1.534-2.046 2.557-2.814 3.837-3.068 9.463-2.813 18.414-2.813h4.092c3.325 0 7.161-.255 9.974-3.58 2.302-2.302 2.302-4.348 2.302-5.115 0-1.535-.256-2.813-.256-4.348v-3.58c0-3.837-.256-6.394-.256-10.23v-4.86c0-3.58-.767-6.649-2.813-7.928-.255-.255-3.836-1.534-6.138-1.534-2.813 0-4.603.767-7.672.767-3.58 0-6.394-1.023-9.974-1.023-1.79 0-3.325.256-4.86.256-2.045.256-3.58-.256-5.626-.256-2.557-.256-4.603 0-7.417 0h-5.626c-2.046 0-4.092.256-5.882.256-2.302 0-4.092-.256-6.138-.256-4.604 0-7.928.512-12.532.512h-1.279zM898.59 432.96c2.303 0 5.883.257 8.185-2.045 1.279-1.279 1.023-2.302 1.023-2.813 0-1.279-.256-2.302-.256-3.58-.767-7.162-1.279-4.604-2.557-9.975-.512-1.79-.768-3.069-1.023-4.603-.768-3.837-1.28-6.394-2.302-9.975 0 0-.767-2.557-1.279-3.836-1.79-4.347-.767-2.046-1.279-5.882-.255-1.279-.511-2.046-.767-3.325-.511-2.046-.511-3.58-1.79-7.928-.512-1.023-1.79-5.115-2.046-6.138-.767-2.813-.512-5.115-1.023-7.928-.512-1.534-.767-2.813-1.279-4.348-.511-1.79-.767-3.069-1.279-5.115-.255-1.023-.767-1.79-1.278-3.069-1.023-3.836-.767-6.649-1.535-10.485-.767-3.58-1.278-5.882-2.301-9.463-.512-1.79-1.023-3.325-1.535-5.115-.511-1.79-.511-3.069-.767-4.859-.512-2.302-1.279-7.417-3.325-13.299-1.023-2.813-1.534-3.325-1.79-6.138-.256-1.279-.256-2.046-.512-3.325 0-1.534-.511-2.557-1.023-4.091-.511-2.046-.767-3.837-1.278-5.883-1.28-4.347-2.558-7.16-3.58-11.508-.512-2.558-1.024-4.092-1.791-6.65-.767-2.813-1.535-6.138-3.325-8.95-1.023-1.535-1.79-2.558-4.603-4.86-2.813-2.302-4.86-3.07-10.742-3.836-1.534-.256-3.58-.512-4.092-.512-1.79 0-3.069.512-4.859.512h-3.58c-5.371 0-9.463.511-14.834.511-4.603 0-7.672-.256-12.275-.511h-.768c-5.626 0-7.928 1.023-10.741 2.813-3.07 1.79-4.86 3.836-6.65 8.951-2.557 5.882-3.324 13.299-3.58 14.578-.512 2.813-.512 4.603-1.279 7.416-.767 2.814-1.79 4.604-2.557 7.417-.512 1.279-.512 2.302-.767 3.836-.768 2.813-1.28 4.604-1.79 7.417-1.28 5.37-1.79 9.207-2.814 14.833-.256.767-.256 1.279-.256 2.046-.511 1.79 0 2.558-1.278 5.627-.768 1.534-1.28 2.301-1.535 3.836-.767 2.302-1.023 3.836-1.534 6.394-.768 3.836-1.79 6.649-2.558 10.741-.767 4.092-.767 6.905-1.79 11.253-.512 2.557-1.023 4.348-1.79 6.905-1.023 3.069-1.28 5.626-2.046 8.695-.512 2.814-1.023 4.86-1.535 7.673-.511 3.58-.511 6.138-1.023 9.718a73.242 73.242 0 01-1.79 7.161c-.256.767-1.279 6.138-1.535 7.417-.255 2.302 0 4.092-.767 6.138-.255 1.79-2.301 5.626-2.301 10.23 0 2.557.767 3.58 1.79 5.115 2.301 3.069 2.813 2.557 5.626 2.813 1.535.256 2.302.767 4.86.767 2.813 0 4.603-.511 7.416-.511 4.604 0 7.673.255 12.276.255 3.069 0 5.882 0 6.905-.767.767-.256 1.023-.511 2.046-1.534.512-.512 1.023-.768 1.79-1.79.512-.768.512-1.024.768-1.28v-2.045c.511-4.86 2.301-8.184 3.069-10.23 1.023-2.046 1.278-3.836 2.813-5.37 1.279-1.28 2.046-1.791 3.325-2.558 1.023-.512 1.278-.512 3.068-1.023 1.535-.512 2.558-.512 4.092-1.023 7.673-1.535 5.883-1.023 11.253-1.023h.768c1.278 0 2.557-.256 4.092-.256 5.882 0 13.81.767 15.089 1.279 1.278.255 2.301 1.278 2.813 1.278 2.557 1.535 3.069 1.79 4.86 5.627.766 1.79 1.534 2.813 2.3 4.603.512 1.79.768 3.07 1.28 5.115 2.046 5.882 4.091 8.951 7.928 10.23 2.301.767 10.997 1.023 13.299 1.023 4.859 0 8.44-.767 13.554-.767h2.302zm-66.493-129.919c2.813 0 4.603 2.558 5.37 3.836.256.768 1.279 5.371 1.535 6.138.511 1.535.767 2.558 1.278 4.092.768 2.558 1.535 4.092 2.302 6.65.512 3.069.512 5.115 1.279 7.928 1.279 5.882 4.092 10.23 5.115 21.227.256 2.046.511 3.58.511 5.37 0 .256.256 2.558-1.023 4.348-.511.768-1.278 1.023-2.046 1.28-1.534 1.022-7.928 2.045-14.066 2.045-7.16 0-16.112-1.79-16.112-12.276 0-3.836 1.79-9.718 2.813-13.554.256-1.79.256-2.814.512-4.604.511-2.557 1.023-4.348 1.534-6.905.512-2.302.512-3.836 1.023-6.138.256-.767.256-1.279.512-2.302.511-2.046 3.58-12.02 5.115-14.066 1.023-1.534 2.557-2.813 4.348-3.069zM978.384 251.38c-3.069 0-16.112 1.023-19.18 1.535-4.86 1.023-9.464 2.813-11.254 3.58-.511.256-7.16 2.558-11.508 5.627-9.207 6.649-12.276 15.6-13.044 17.646-2.557 6.394-3.069 8.696-3.069 19.437 0 2.302 0 3.836.256 6.138.512 4.092 1.79 7.672 2.046 8.951 2.302 8.44 2.046 7.928 5.37 13.555.257.767 2.047 4.092 4.86 7.16 2.558 2.814 4.604 4.348 7.161 6.906 1.279 1.023 2.046 2.046 3.325 3.069 1.534 1.534 2.557 2.301 4.347 3.836 2.046 1.534 3.325 3.069 5.371 4.86 2.046 1.534 3.836 2.045 6.138 3.58 1.79 1.278 4.86 4.603 5.115 4.603 5.115 4.604 6.905 5.115 9.207 10.742 1.279 3.068 1.279 4.603 1.279 6.137 0 15.09-14.834 13.555-17.135 13.555h-6.394c-3.325 0-4.86-1.023-7.928-2.046-3.07-.767-6.394-1.279-9.463-1.279h-3.58c-3.07.256-6.138.512-7.673 3.07-.511.255-1.023 1.534-1.023 2.813 0 .511 0 .767.256 2.046.256 2.557.256 1.79.256 3.836 0 3.58-.512 5.882-.768 9.462 0 2.814.256 4.86.256 7.929 0 2.301-.256 4.092-.256 6.649 0 2.302 0 3.836 4.604 6.138.767.511 3.836 1.79 6.394 2.557 1.534.256 2.557.256 4.092.512 3.324.256 5.882.511 9.206.767 1.535 0 2.814.256 4.348.512 1.79 0 2.813.255 4.604.255 1.534 0 2.813-.255 4.347-.255 6.138-.512 10.486.255 16.368-1.023 6.65-1.28 19.948-8.184 19.948-8.184 1.023-.768 2.302-1.79 3.58-3.07 5.627-4.603 7.162-6.393 11.254-12.02 3.069-3.836 2.813-3.324 4.092-6.137.511-1.535.767-2.814 1.534-4.348.768-1.535 1.535-2.557 2.046-4.348 1.535-4.347 1.79-10.741 1.79-15.089 0-15.345-2.557-21.994-7.416-29.667-1.023-1.79-1.79-3.069-3.07-4.859 0 0-1.022-1.278-1.79-2.046-1.022-1.023-1.79-1.79-3.068-2.813-1.535-1.534-2.302-2.557-4.092-4.092-.768-.767-3.325-2.557-5.883-5.115-1.534-2.046-2.046-2.813-3.58-3.836-1.023-.512-1.79-.767-2.813-1.535-1.279-1.023-2.046-2.301-3.325-3.58-1.279-.767-2.046-1.279-3.069-2.046-2.046-1.279-3.325-2.557-5.37-3.836-1.28-1.023-3.581-2.558-4.86-3.836-1.534-1.28-5.626-6.394-5.626-11.765 0-.256 0-4.092 1.79-6.393 1.79-2.558 6.905-4.604 8.951-5.115 1.535-.512 2.046-.256 2.813-.256 1.28 0 14.834 1.279 16.112 1.534 2.302.256 4.092 1.279 6.394 1.279 2.302 0 7.417-1.023 9.207-4.348 1.023-1.534 1.023-4.092 1.023-4.347 0-2.814-.256-4.86-.256-7.929v-4.603c0-1.79-.255-3.58-.255-5.37s.511-3.07.511-4.86c0-.256 0-3.325-2.046-4.86-3.069-2.3-11.764-3.835-20.971-4.858-1.023-.256-5.115-.512-9.207-.512h-1.279zM1075.824 253.938c-4.604 0-7.672-.256-12.276-.256-5.37 0-9.207.256-14.833.256h-4.86c-2.813-.256-4.603-.512-7.416-.512-3.836 0-5.115.512-7.161 1.535-.512.511-1.535 1.023-2.558 2.557-.511.767-.511 1.279-.511 2.302-.256.511-.256 1.279-.256 2.302v5.626c0 1.79.256 3.069.256 4.86 0 4.347-.512 7.416-.512 11.508 0 1.534.512 3.069.512 3.58.256.512 1.279 2.046 2.557 3.325 1.28 1.023 3.837 3.325 7.161 3.325 1.535 0 2.558-.256 3.837-.512 1.023 0 3.069-.255 5.626-.255 10.997 0 19.181.511 21.994 7.416.768 1.79 1.279 4.092 1.279 5.882 0 1.023-.256 1.79-.256 3.07 0 1.534.256 2.813.256 4.347.256 2.046.256 3.58.256 5.627 0 5.37-.256 8.95-.256 14.066v4.859c.256.767.767 4.603.767 7.672-.256 2.302-.511 3.836-.767 6.138 0 3.325.511 5.37.256 8.696 0 3.836-.767 6.393-.767 10.23 0 2.557.255 4.603.511 7.16v29.667c0 2.558 0 4.604-.256 7.417-.255 2.046-.255 3.325-.255 5.37 0 1.024-.256 1.79-.256 3.07 0 1.278.511 2.045.767 3.324.256.767 1.279 5.882 6.138 5.882 1.534 0 3.069-.255 4.86-.511h.255c2.302 0 4.092.511 6.394.511 2.557.256 4.347 0 6.905 0h6.905c.511 0 2.813 0 5.115-.511 3.325-.767 5.626-2.813 6.394-4.604.511-1.023.767-1.278.767-3.069 0-3.068-.512-5.37-.512-8.183 0-2.814.512-4.86.512-7.417v-3.325c-.256-2.557 0-4.603 0-7.417 0-3.58-.512-6.137-.767-9.718 0-5.115.767-8.695.767-13.81 0-2.046 0-3.325-.256-5.115-.256-2.558 0-4.092 0-6.65 0-2.046-.256-3.58-.256-5.882-.255-4.86-.511-8.184-.511-13.043 0-2.557.256-4.603.256-7.417 0-3.069-.256-5.37-.256-8.44 0-2.557 0-4.091.256-6.649v-6.65c.255-2.557.511-4.091.767-6.649.511-2.813 0-2.813.511-4.859.256-1.534.256-1.279 2.046-3.58 1.279-1.535 1.535-2.046 2.558-2.814 3.836-3.068 9.462-2.813 18.414-2.813h4.092c3.324 0 7.16-.255 9.974-3.58 2.301-2.302 2.301-4.348 2.301-5.115 0-1.535-.255-2.813-.255-4.348v-3.58c0-3.837-.256-6.394-.256-10.23v-4.86c0-3.58-.767-6.649-2.813-7.928-.256-.255-3.836-1.534-6.138-1.534-2.813 0-4.604.767-7.673.767-3.58 0-6.393-1.023-9.974-1.023-1.79 0-3.325.256-4.859.256-2.046.256-3.58-.256-5.626-.256-2.558-.256-4.604 0-7.417 0h-5.627c-2.046 0-4.092.256-5.882.256-2.301 0-4.092-.256-6.138-.256-4.603 0-7.928.512-12.531.512h-1.28zM1233.109 252.659c-1.79.256-3.07.511-5.115.511h-3.58c-3.07 0-5.371.256-8.44.256-4.604 0-7.929-.511-12.532-.511-5.37 0-9.207.511-14.578.511-3.836 0-6.393-.256-9.974-.256-3.069 0-5.115 1.28-6.394 2.814-3.068 3.069-3.836 7.16-3.836 14.322 0 4.859.768 7.928.768 12.787 0 1.79 0 3.325-.256 5.115v6.138c0 5.115-.512 8.695-.512 13.554 0 4.348.768 7.417.512 11.765 0 2.301-.256 4.092-.512 6.393-.255 2.302-.255 4.092-.255 6.394v10.486c0 4.859.255 8.44.255 13.299v2.557c0 3.325.512 5.882.512 9.463 0 2.302-.512 4.092-.512 6.393V394.6c0 1.79.256 3.069.256 4.859.256 2.302 0 3.836 0 6.138v.511c.256 3.07.767 6.138.767 9.463-.255 2.046-.511 4.348-.511 6.394 0 3.324 1.023 5.115 2.046 6.65.511 1.278 1.278 2.3 1.534 2.557 1.535 1.79 4.348 2.813 7.928 2.813h4.604c1.023-.256 1.79 0 3.069 0 3.325 0 5.626-.256 8.951-.256 2.046 0 3.58.256 5.626.256h8.696c2.813.256 5.115.511 8.184.511 2.302 0 4.092-.255 6.65-.255 6.137-.256 10.485-.512 16.879-.512 4.347 0 7.416.512 12.02.512 2.046 0 3.58-.256 5.626-.256 2.302-.256 3.836-.512 5.882-.512 3.58 0 5.883.512 9.207.512 7.928 0 8.696-4.86 8.696-8.44 0-2.046 0-4.859-.256-6.905-.512-4.348-1.023-4.092-1.023-10.741 0-2.302-.767-7.417-2.813-9.974-.256-.512-1.023-1.28-1.79-1.79-.768-.512-4.604-2.047-7.673-2.047-2.557 0-4.092.512-6.65.512-2.301.256-4.091.256-6.393.256-2.302 0-3.836.255-6.138.255s-4.86-.255-7.417-.255c-3.58 0-7.16.255-10.741.255-1.279 0-7.417 0-12.532-1.278-3.069-.768-7.416-2.046-8.44-9.207 0-.256-.255-7.417-.255-11.253 0-5.115.767-8.696 3.58-10.486 1.535-1.023 5.115-1.79 6.394-1.79h3.069c2.813-.256 4.603-.512 7.417-.512 2.301 0 4.603.768 6.905.768 1.79 0 3.58 0 5.37-.256 2.047 0 3.581.256 5.627.256h13.299c6.138 0 9.974-1.535 11.764-5.627.256-.767.256-1.279.512-3.069 1.023-6.65.511-2.302.511-9.974 0-2.557 0-1.534.512-5.115 0-.767.511-7.16.511-7.928 0-2.046-.511-3.325-2.046-5.37-2.302-3.325-4.603-2.814-9.718-2.814-3.836 0-7.673.767-11.253.511-4.092 0-6.905-1.022-10.997-1.022-5.115 0-8.44.767-13.555.767-4.859 0-10.23-1.023-11.764-1.279-1.279-.256-1.79-.767-2.558-1.279-4.092-2.813-3.58-7.928-3.58-15.856 0-10.741 4.348-12.787 18.414-12.787 1.023 0 4.092 0 7.16.511 4.86.512 4.093.767 8.952.767 4.347 0 7.16-.255 11.508-.255 2.814 0 4.604.255 7.417.255 1.023 0 3.069 0 5.882-1.278 1.279-.256 1.023-.256 2.046-.768a5.975 5.975 0 001.79-1.79c1.535-2.302 2.558-3.069 2.558-6.65 0-4.347-.767-7.16-.767-11.508 0-3.069.511-5.37.511-8.695 0-5.627-3.58-8.184-8.695-8.184-3.836 0-6.65.511-10.486.511-6.138 0-10.486-.767-16.623-.767-1.535 0-3.325.256-5.115.256-1.023 0-2.302-.256-3.325-.256h-.767z" fill-rule="nonzero"/><g><path d="M622.946 470.165c-1.79.256-3.069.511-5.115.511h-3.58c-3.069 0-5.37.256-8.44.256-4.603 0-7.928-.511-12.531-.511-5.371 0-9.207.511-14.578.511-3.836 0-6.394-.256-9.974-.256-3.069 0-5.115 1.28-6.394 2.814-3.069 3.069-3.836 7.16-3.836 14.322 0 4.859.767 7.928.767 12.787 0 1.79 0 3.325-.255 5.115v6.138c0 5.115-.512 8.695-.512 13.554 0 4.348.767 7.417.512 11.765 0 2.301-.256 4.092-.512 6.393-.256 2.302-.256 4.092-.256 6.394v10.486c0 4.859.256 8.44.256 13.299v2.557c0 3.325.512 5.882.512 9.463 0 2.302-.512 4.092-.512 6.393v19.949c0 1.79.256 3.069.256 4.859.256 2.302 0 3.836 0 6.138v.511c.256 3.07.767 6.138.767 9.463-.256 2.046-.511 4.348-.511 6.394 0 3.324 1.023 5.115 2.046 6.65.511 1.278 1.278 2.3 1.534 2.557 1.535 1.79 4.348 2.813 7.928 2.813h4.604c1.023-.256 1.79 0 3.069 0 3.324 0 5.626-.256 8.95-.256 2.047 0 3.581.256 5.627.256h8.696c2.813.256 5.115.511 8.184.511 2.301 0 4.092-.255 6.649-.255 6.138-.256 10.486-.512 16.88-.512 4.347 0 7.416.512 12.02.512 2.045 0 3.58-.256 5.626-.256 2.302-.256 3.836-.512 5.882-.512 3.58 0 5.882.512 9.207.512 7.928 0 8.695-4.86 8.695-8.44 0-2.046 0-4.859-.255-6.905-.512-4.348-1.023-4.092-1.023-10.741 0-2.302-.768-7.417-2.814-9.974-.255-.512-1.023-1.28-1.79-1.79-.767-.512-4.603-2.047-7.672-2.047-2.558 0-4.092.512-6.65.512-2.301.256-4.092.256-6.393.256-2.302 0-3.837.255-6.138.255-2.302 0-4.86-.255-7.417-.255-3.58 0-7.16.255-10.741.255-1.279 0-7.417 0-12.532-1.278-3.069-.768-7.417-2.046-8.44-9.207 0-.256-.255-7.417-.255-11.253 0-5.115.767-8.696 3.58-10.486 1.535-1.023 5.115-1.79 6.394-1.79h3.069c2.813-.256 4.603-.512 7.416-.512 2.302 0 4.604.768 6.906.768 1.79 0 3.58 0 5.37-.256 2.046 0 3.58.256 5.627.256h13.299c6.138 0 9.974-1.535 11.764-5.627.256-.767.256-1.279.512-3.069 1.023-6.65.511-2.302.511-9.974 0-2.557 0-1.534.512-5.115 0-.767.511-7.16.511-7.928 0-2.046-.511-3.325-2.046-5.37-2.302-3.325-4.603-2.814-9.718-2.814-3.837 0-7.673.767-11.253.511-4.092 0-6.905-1.022-10.997-1.022-5.115 0-8.44.767-13.555.767-4.86 0-10.23-1.023-11.764-1.279-1.28-.256-1.79-.767-2.558-1.279-4.092-2.813-3.58-7.928-3.58-15.856 0-10.741 4.347-12.787 18.413-12.787 1.023 0 4.092 0 7.161.511 4.86.512 4.092.767 8.952.767 4.347 0 7.16-.255 11.508-.255 2.813 0 4.604.255 7.417.255 1.023 0 3.069 0 5.882-1.278 1.279-.256 1.023-.256 2.046-.768a5.975 5.975 0 001.79-1.79c1.535-2.302 2.558-3.069 2.558-6.65 0-4.347-.767-7.16-.767-11.508 0-3.069.511-5.37.511-8.695 0-5.627-3.58-8.184-8.695-8.184-3.837 0-6.65.511-10.486.511-6.138 0-10.486-.767-16.624-.767-1.534 0-3.324.256-5.115.256-1.023 0-2.301-.256-3.324-.256h-.768zM751.332 468.886c-3.07 0-16.112 1.023-19.181 1.535-4.86 1.023-9.463 2.813-11.253 3.58-.512.256-7.161 2.558-11.509 5.627-9.207 6.649-12.276 15.6-13.043 17.646-2.557 6.394-3.069 8.696-3.069 19.437 0 2.302 0 3.836.256 6.138.511 4.092 1.79 7.672 2.046 8.951 2.301 8.44 2.046 7.928 5.37 13.555.256.767 2.046 4.092 4.86 7.16 2.557 2.814 4.603 4.348 7.16 6.906 1.28 1.023 2.047 2.046 3.325 3.069 1.535 1.534 2.558 2.301 4.348 3.836 2.046 1.534 3.325 3.069 5.37 4.86 2.047 1.534 3.837 2.045 6.139 3.58 1.79 1.278 4.859 4.603 5.115 4.603 5.115 4.604 6.905 5.115 9.206 10.742 1.28 3.068 1.28 4.603 1.28 6.137 0 15.09-14.834 13.555-17.136 13.555h-6.394c-3.324 0-4.859-1.023-7.928-2.046-3.069-.767-6.393-1.279-9.462-1.279h-3.58c-3.07.256-6.139.512-7.673 3.07-.512.255-1.023 1.534-1.023 2.813 0 .511 0 .767.255 2.046.256 2.557.256 1.79.256 3.836 0 3.58-.511 5.882-.767 9.462 0 2.814.256 4.86.256 7.929 0 2.301-.256 4.092-.256 6.649 0 2.302 0 3.836 4.603 6.138.768.511 3.837 1.79 6.394 2.557 1.535.256 2.558.256 4.092.512 3.325.256 5.882.511 9.207.767 1.534 0 2.813.256 4.348.512 1.79 0 2.813.255 4.603.255 1.535 0 2.813-.255 4.348-.255 6.138-.512 10.486.255 16.368-1.023 6.65-1.28 19.948-8.184 19.948-8.184 1.023-.768 2.302-1.79 3.58-3.07 5.627-4.603 7.161-6.393 11.253-12.02 3.07-3.836 2.814-3.324 4.092-6.137.512-1.535.768-2.814 1.535-4.348.767-1.535 1.534-2.557 2.046-4.348 1.534-4.347 1.79-10.741 1.79-15.089 0-15.345-2.557-21.994-7.417-29.667-1.023-1.79-1.79-3.069-3.069-4.859 0 0-1.023-1.278-1.79-2.046-1.023-1.023-1.79-1.79-3.069-2.813-1.534-1.534-2.302-2.557-4.092-4.092-.767-.767-3.324-2.557-5.882-5.115-1.534-2.046-2.046-2.813-3.58-3.836-1.023-.512-1.79-.767-2.814-1.535-1.278-1.023-2.046-2.301-3.324-3.58-1.28-.767-2.046-1.279-3.07-2.046-2.045-1.279-3.324-2.557-5.37-3.836-1.279-1.023-3.58-2.558-4.86-3.836-1.534-1.28-5.626-6.394-5.626-11.765 0-.256 0-4.092 1.79-6.393 1.79-2.558 6.906-4.604 8.952-5.115 1.534-.512 2.046-.256 2.813-.256 1.279 0 14.833 1.279 16.112 1.534 2.302.256 4.092 1.279 6.394 1.279 2.301 0 7.416-1.023 9.207-4.348 1.023-1.534 1.023-4.092 1.023-4.347 0-2.814-.256-4.86-.256-7.929v-4.603c0-1.79-.256-3.58-.256-5.37s.512-3.07.512-4.86c0-.256 0-3.325-2.046-4.86-3.07-2.3-11.765-3.835-20.972-4.858-1.023-.256-5.115-.512-9.207-.512h-1.278zM910.662 501.878c0-3.325-.255-5.627-.511-8.952-.256-4.603.511-7.672.511-12.275 0-3.07-.767-6.394-1.278-7.417-1.023-1.535-2.814-2.302-4.348-2.558-1.279-.511-2.046-.511-2.558-.511h-4.091c-2.046-.256-3.325-.512-5.371-.512-2.813 0-4.86.256-7.673.256-5.37 0-11.764.512-23.528 4.092 0 0-15.09 4.604-23.018 11.253-3.069 2.558-5.37 5.37-7.672 7.672-3.325 3.58-5.627 5.883-8.696 9.463a303.969 303.969 0 00-4.603 7.673c-1.279 2.046-3.836 6.649-5.626 12.275-2.046 6.65-3.07 16.624-3.07 17.647-.51 3.836-1.278 6.394-1.534 10.486 0 2.557.256 4.092.256 6.65 0 2.557-.512 4.347-.512 6.904 0 2.558.256 4.092.512 6.394.256 4.092 0 8.695 2.302 17.39 2.046 7.673 3.069 8.952 6.905 16.88 1.023 2.558 2.046 4.348 3.325 6.905 1.023 1.79 2.045 3.07 3.324 4.86 1.535 2.301 2.558 3.836 4.348 5.882 4.092 4.859 7.672 6.65 12.532 10.741 2.046 1.79 3.324 3.07 5.37 4.86 1.279 1.022 2.302 1.534 3.58 2.557 1.28.767 2.047 1.534 3.581 2.557 1.535 1.023 3.58 1.79 5.627 2.813 1.79.512 5.37 2.302 6.905 2.814 2.302.767 5.115 1.278 9.974 2.046 6.65 1.023 8.184 1.023 14.578 1.278 3.069 0 5.37.256 8.184.256.767 0 5.626.256 9.206-2.813 2.558-2.302 2.814-4.348 2.814-6.65v-1.023c0-4.603.767-7.672.767-12.275 0-1.79 0-1.79-.512-4.604-.255-2.813.256-4.603.256-7.417 0-5.626-2.302-7.928-5.882-7.928-1.279 0-2.302.512-3.836 1.023-.768.256-7.161.768-7.928.768-3.325 0-8.696-1.28-8.952-1.28-5.115-1.278-9.462-3.068-11.252-4.347-3.07-2.046-6.906-6.138-9.207-9.207-1.023-1.534-1.79-2.557-2.814-4.348-1.023-1.278-2.813-4.347-4.347-7.928-1.023-2.046-6.138-14.833-6.138-24.296 0-1.79 0-3.069.255-4.603.256-7.161 0-10.486 1.023-14.322 1.023-3.836 3.58-7.672 4.348-8.951 1.79-3.325 2.813-5.882 5.115-8.44 2.302-2.557 4.092-3.836 6.905-5.882 1.279-.767 3.07-2.046 5.882-3.58 2.558-1.28 10.23-4.092 18.159-4.092 3.069 0 5.626.511 6.905.767 2.301.511 2.813.511 4.347.511 1.535 0 2.558-.255 4.092-1.278.256 0 1.535-.512 2.302-1.79.767-1.535.767-4.604.767-5.883v-.511zM1064.878 650.467c2.302 0 5.882.256 8.184-2.046 1.279-1.279 1.023-2.302 1.023-2.813 0-1.279-.256-2.302-.256-3.58-.767-7.162-1.278-4.604-2.557-9.975-.512-1.79-.767-3.069-1.023-4.603-.767-3.837-1.279-6.394-2.302-9.975 0 0-.767-2.557-1.279-3.836-1.79-4.347-.767-2.046-1.278-5.882-.256-1.279-.512-2.046-.768-3.325-.511-2.046-.511-3.58-1.79-7.928-.511-1.023-1.79-5.115-2.046-6.138-.767-2.813-.511-5.115-1.023-7.928-.511-1.534-.767-2.813-1.279-4.348-.511-1.79-.767-3.069-1.278-5.115-.256-1.023-.768-1.79-1.279-3.069-1.023-3.836-.767-6.649-1.535-10.485-.767-3.58-1.278-5.882-2.301-9.463-.512-1.79-1.023-3.325-1.535-5.115-.511-1.79-.511-3.069-.767-4.859-.511-2.302-1.279-7.417-3.325-13.299-1.023-2.813-1.534-3.325-1.79-6.138-.256-1.279-.256-2.046-.511-3.325 0-1.534-.512-2.557-1.023-4.091-.512-2.046-.768-3.837-1.28-5.883-1.278-4.347-2.557-7.16-3.58-11.508-.511-2.558-1.023-4.092-1.79-6.65-.767-2.813-1.534-6.138-3.325-8.95-1.023-1.535-1.79-2.558-4.603-4.86-2.813-2.302-4.86-3.07-10.741-3.836-1.535-.256-3.58-.512-4.092-.512-1.79 0-3.07.512-4.86.512h-3.58c-5.37 0-9.463.511-14.833.511-4.604 0-7.673-.256-12.276-.511h-.768c-5.626 0-7.928 1.023-10.74 2.813-3.07 1.79-4.86 3.836-6.65 8.951-2.558 5.882-3.325 13.299-3.58 14.578-.512 2.813-.512 4.603-1.28 7.416-.767 2.814-1.79 4.604-2.557 7.417-.512 1.279-.512 2.302-.767 3.836-.768 2.813-1.279 4.604-1.79 7.417-1.28 5.37-1.79 9.207-2.814 14.833-.255.767-.255 1.279-.255 2.046-.512 1.79 0 2.558-1.28 5.627-.766 1.534-1.278 2.301-1.534 3.836-.767 2.302-1.023 3.836-1.534 6.394-.767 3.836-1.79 6.649-2.558 10.741-.767 4.092-.767 6.905-1.79 11.253-.511 2.557-1.023 4.348-1.79 6.905-1.023 3.069-1.279 5.626-2.046 8.695-.512 2.814-1.023 4.86-1.535 7.673-.511 3.58-.511 6.138-1.023 9.718a73.242 73.242 0 01-1.79 7.161c-.256.767-1.279 6.138-1.534 7.417-.256 2.302 0 4.092-.768 6.138-.255 1.79-2.301 5.626-2.301 10.23 0 2.557.767 3.58 1.79 5.115 2.302 3.069 2.813 2.557 5.626 2.813 1.535.256 2.302.767 4.86.767 2.813 0 4.603-.511 7.416-.511 4.604 0 7.673.255 12.276.255 3.07 0 5.882 0 6.905-.767.768-.256 1.023-.511 2.046-1.534.512-.512 1.023-.768 1.79-1.79.512-.768.512-1.024.768-1.28v-2.045c.511-4.86 2.302-8.184 3.069-10.23 1.023-2.046 1.279-3.836 2.813-5.37 1.279-1.28 2.046-1.791 3.325-2.558 1.023-.512 1.278-.512 3.069-1.023 1.534-.512 2.557-.512 4.092-1.023 7.672-1.535 5.882-1.023 11.253-1.023h.767c1.279 0 2.557-.256 4.092-.256 5.882 0 13.81.767 15.089 1.279 1.279.255 2.302 1.278 2.813 1.278 2.558 1.535 3.069 1.79 4.86 5.627.767 1.79 1.534 2.813 2.301 4.603.511 1.79.767 3.07 1.279 5.115 2.046 5.882 4.092 8.951 7.928 10.23 2.302.767 10.997 1.023 13.299 1.023 4.859 0 8.44-.767 13.554-.767h2.302zm-66.494-129.92c2.813 0 4.603 2.558 5.37 3.836.256.768 1.28 5.371 1.535 6.138.511 1.535.767 2.558 1.279 4.092.767 2.558 1.534 4.092 2.301 6.65.512 3.069.512 5.115 1.28 7.928 1.278 5.882 4.091 10.23 5.114 21.227.256 2.046.512 3.58.512 5.37 0 .256.255 2.558-1.023 4.348-.512.768-1.28 1.023-2.046 1.28-1.535 1.022-7.929 2.045-14.066 2.045-7.161 0-16.113-1.79-16.113-12.276 0-3.836 1.79-9.718 2.814-13.554.255-1.79.255-2.814.511-4.604.512-2.557 1.023-4.348 1.535-6.905.511-2.302.511-3.836 1.023-6.138.255-.767.255-1.279.511-2.302.512-2.046 3.58-12.02 5.115-14.066 1.023-1.534 2.558-2.813 4.348-3.069zM1089.686 616.964c0 2.813-.256 4.603-.256 7.417-.256 2.813-.256 4.859-.256 7.928 0 3.325-.256 5.882-.256 9.207 0 3.58.768 4.859 2.046 6.905 1.79 2.557 3.07 2.813 4.348 2.813h2.302c2.302-.256 2.813-.256 4.092-.256 4.859 0 8.184.512 13.043.512 4.86 0 9.207-.512 10.997-.767 6.394-1.535 6.394-5.627 6.65-8.184 0-1.023.255-1.79.255-2.813 0-.768-.256-2.302-.511-4.348v-4.86c0-2.813-.256-2.557-.512-5.37-.256-1.279-.256-2.046-.256-3.325-.255-1.79-.511-3.069-.511-4.603 0-.512 0-2.046.256-3.58.255-1.535.255-2.558.767-4.093.256-.767.511-1.278 1.79-2.813 1.279-1.279 2.046-1.79 2.558-2.302 1.023-.767 1.534-.767 3.324-1.023.768-.255 1.28-.511 2.046-.767 1.023-.256 7.417-.511 8.44-.511 4.604 0 7.928 1.023 12.532 1.023 3.58 0 6.138 0 9.718-.512 2.302 0 3.58-.511 5.882-.767 1.023-.256 1.79-.256 2.813-.256 1.28-.256 2.302-.511 3.837-.767 8.95-2.046 11.508-3.07 20.46-9.207 4.091-2.557 6.649-4.603 8.44-6.138.51-.511 1.022-.767 2.045-2.046 1.279-1.79 2.046-3.069 3.325-4.86 1.534-2.3 3.069-3.58 4.348-5.881 1.278-1.535 1.534-2.814 2.813-6.138 4.603-10.23 6.138-15.09 6.138-25.575 0-1.535 0-2.813-.256-4.603v-6.394c-.256-2.302-.767-3.836-1.023-6.138-.767-7.161-.256-8.951-3.836-16.112-2.558-5.115-2.813-5.115-8.184-13.043-4.604-6.905-13.299-11.765-14.833-12.532-2.558-1.534-4.348-2.557-6.906-4.092-2.046-1.023-5.882-2.557-10.997-4.092-12.531-4.348-17.135-3.836-24.04-3.836-4.348-.256-7.417-.512-11.764-.512-3.58 0-6.138.256-9.719.512-2.813 0-5.115 0-7.928.256-4.092.255-6.65.511-10.486.511-2.813 0-4.859-.256-7.672-.256-2.813 0-4.604.256-7.417.512-1.534.256-2.557.256-3.836.256-4.86 0-5.37.511-8.184 2.301-5.37 2.814-6.905 5.883-6.905 14.322 0 5.115 1.023 8.696 1.279 13.81v3.837c0 4.092.255 6.905.255 10.997 0 2.813-.255 5.626-.255 8.44 0 3.58.511 6.138.767 9.718.256 3.069 0 5.115 0 7.928 0 2.302.256 3.836.256 6.138 0 2.046-.256 3.58-.512 5.37-.511 3.837-.256 6.395-.256 9.975 0 8.695-.767 14.833-.767 23.529 0 3.58.256 5.882 0 9.207 0 3.069-.256 5.37-.256 8.44 0 4.091.512 6.905.768 10.996v.512zm42.71-85.675c0-.512.255-11.51.255-12.02 0 0 1.535-7.417 6.138-10.742.256-.256 1.279-.767 1.535-1.023.511 0 1.534-.511 2.813-.767 3.325-.767 3.325-1.279 5.626-1.279 1.79 0 3.07.512 5.115.512 5.371.255 6.394-.512 15.345 1.534 7.417 1.535 9.207 3.069 13.299 6.65 1.79 1.534 2.813 2.045 4.092 3.836 0 .255 1.023 1.79 1.023 2.046.767 1.278 1.023 2.557 1.534 4.092 1.023 2.813 2.558 4.603 2.558 7.672 0 2.046-.256 3.58-.256 5.627v.767c0 .767-.256 2.046-.256 2.557-.255 1.79-.511 3.58-1.534 7.161-.256.767-.512 3.07-2.813 5.37-.768.768-1.28 1.28-2.046 2.303-.256.255-1.79 2.557-3.58 3.836-1.535 1.279-2.558 1.534-4.348 2.302-.768.255-2.302 1.278-4.604 2.046-1.023.511-.256.255-1.79.511-1.79.256-3.325.256-5.115.511-2.558.256-4.348.512-6.65.512-7.16 0-8.695-.512-13.043-1.79-.255 0-3.069-.512-5.115-1.79-1.023-.768-2.046-1.79-3.58-3.58-4.604-6.65-4.092-9.975-4.092-13.044-.256-2.046-.767-3.325-.767-5.37 0-1.28.255-2.558.255-3.837v-4.603zM1314.488 470.165c-1.79.256-3.07.511-5.115.511h-3.58c-3.07 0-5.371.256-8.44.256-4.604 0-7.929-.511-12.532-.511-5.37 0-9.207.511-14.578.511-3.836 0-6.393-.256-9.974-.256-3.069 0-5.115 1.28-6.393 2.814-3.07 3.069-3.837 7.16-3.837 14.322 0 4.859.768 7.928.768 12.787 0 1.79 0 3.325-.256 5.115v6.138c0 5.115-.512 8.695-.512 13.554 0 4.348.768 7.417.512 11.765 0 2.301-.256 4.092-.512 6.393-.255 2.302-.255 4.092-.255 6.394v10.486c0 4.859.255 8.44.255 13.299v2.557c0 3.325.512 5.882.512 9.463 0 2.302-.512 4.092-.512 6.393v19.949c0 1.79.256 3.069.256 4.859.256 2.302 0 3.836 0 6.138v.511c.256 3.07.767 6.138.767 9.463-.255 2.046-.511 4.348-.511 6.394 0 3.324 1.023 5.115 2.046 6.65.511 1.278 1.279 2.3 1.534 2.557 1.535 1.79 4.348 2.813 7.928 2.813h4.604c1.023-.256 1.79 0 3.069 0 3.325 0 5.626-.256 8.951-.256 2.046 0 3.58.256 5.626.256h8.696c2.813.256 5.115.511 8.184.511 2.302 0 4.092-.255 6.65-.255 6.137-.256 10.485-.512 16.879-.512 4.347 0 7.416.512 12.02.512 2.046 0 3.58-.256 5.626-.256 2.302-.256 3.836-.512 5.882-.512 3.58 0 5.883.512 9.207.512 7.928 0 8.696-4.86 8.696-8.44 0-2.046 0-4.859-.256-6.905-.512-4.348-1.023-4.092-1.023-10.741 0-2.302-.767-7.417-2.813-9.974-.256-.512-1.023-1.28-1.79-1.79-.768-.512-4.604-2.047-7.673-2.047-2.557 0-4.092.512-6.65.512-2.301.256-4.091.256-6.393.256-2.302 0-3.836.255-6.138.255s-4.86-.255-7.417-.255c-3.58 0-7.16.255-10.741.255-1.279 0-7.417 0-12.532-1.278-3.069-.768-7.416-2.046-8.44-9.207 0-.256-.255-7.417-.255-11.253 0-5.115.767-8.696 3.58-10.486 1.535-1.023 5.115-1.79 6.394-1.79h3.069c2.813-.256 4.603-.512 7.417-.512 2.301 0 4.603.768 6.905.768 1.79 0 3.58 0 5.37-.256 2.047 0 3.581.256 5.627.256h13.299c6.138 0 9.974-1.535 11.764-5.627.256-.767.256-1.279.512-3.069 1.023-6.65.511-2.302.511-9.974 0-2.557 0-1.534.512-5.115 0-.767.511-7.16.511-7.928 0-2.046-.511-3.325-2.046-5.37-2.301-3.325-4.603-2.814-9.718-2.814-3.836 0-7.673.767-11.253.511-4.092 0-6.905-1.022-10.997-1.022-5.115 0-8.44.767-13.555.767-4.859 0-10.23-1.023-11.764-1.279-1.279-.256-1.79-.767-2.558-1.279-4.092-2.813-3.58-7.928-3.58-15.856 0-10.741 4.348-12.787 18.414-12.787 1.023 0 4.092 0 7.16.511 4.86.512 4.093.767 8.952.767 4.348 0 7.16-.255 11.508-.255 2.814 0 4.604.255 7.417.255 1.023 0 3.07 0 5.882-1.278 1.279-.256 1.023-.256 2.046-.768a5.975 5.975 0 001.79-1.79c1.535-2.302 2.558-3.069 2.558-6.65 0-4.347-.767-7.16-.767-11.508 0-3.069.511-5.37.511-8.695 0-5.627-3.58-8.184-8.695-8.184-3.836 0-6.65.511-10.486.511-6.138 0-10.485-.767-16.623-.767-1.535 0-3.325.256-5.115.256-1.023 0-2.302-.256-3.325-.256h-.767z" fill-rule="nonzero"/></g><g><path d="M515.415 589.427c1.973 0 2.87-.718 3.05-2.691.18-.898.359-1.615.359-2.512 0-.18 0-1.077-.359-1.795-.359-.717-.897-.897-1.077-1.435-.358-.538-.538-1.077-.897-1.615-.717-.897-1.256-1.435-1.973-2.332-1.615-2.333-5.562-7.895-5.562-10.228 0-1.076 1.435-2.153 2.69-4.126 1.077-1.615 1.436-2.871 2.333-4.665 1.077-1.795 1.795-3.05 2.692-4.845 1.076-2.512.717-2.153 1.973-5.742 1.256-4.306 1.795-4.665 1.795-11.483v-4.306c0-.18.18-.538-.18-1.076-.359-.718-2.332-1.795-4.126-1.795-1.795 0-1.436 0-2.871.18-1.436.18-2.333.18-3.768.18-2.333 0-3.948 0-6.28-.18-1.256-.18-2.153-.18-3.41-.18-2.511 0-3.947 1.436-4.126 2.871 0 1.077.359 1.794.718 2.87.18.54.538 1.436.538 2.692 0 1.615-.538 4.845-1.077 6.46-.358.717-1.435 2.153-1.973 2.69 0 0-.36.36-.718.36-.538 0-1.256-.36-1.794-.897-.18-.18-2.692-3.41-2.87-3.589-1.077-1.615-1.616-2.691-2.692-4.306-2.333-3.41-4.665-6.1-4.665-9.689 0-.359.18-1.794 1.256-3.23.358-.538.897-1.076 1.256-1.256.897-.717 1.614-1.076 2.512-1.794 3.23-2.153 6.818-6.1 7.535-7.177.18 0 .718-.897 1.077-1.615a88.614 88.614 0 001.974-4.485c1.794-5.204 2.512-6.46 2.512-11.663 0-.718.179-5.562-1.256-8.971-.539-1.256-1.077-1.974-1.436-3.23-.897-2.153-1.076-3.588-2.512-5.741-1.256-2.154-3.588-4.307-5.562-5.921-2.691-2.333-5.024-3.41-6.1-3.948-1.795-.897-2.871-1.256-3.768-1.615-1.256-.359-2.153-.359-3.41-.717-1.255-.18-2.152-.36-3.408-.539-2.871-.538-3.05.18-7.895.18-3.23 0-3.41.717-6.639 1.973-.718.18-1.974.539-3.588 1.436-.898.538-4.127 2.153-7.357 5.383l-1.435 1.435c-5.204 5.562-5.742 9.33-6.1 11.842-.18 1.435-.18 2.333-.539 3.589 0 .358-.538 2.332-.718 3.947 0 1.794.897 6.28 1.436 8.253.897 3.589 2.87 6.64 3.588 8.075.18.538.718 1.614.718 3.05 0 1.435-.718 2.153-1.256 2.87-1.794 1.974-3.947 2.154-6.1 3.59-1.256.717-1.795 1.255-3.948 3.05-.718.717-4.485 3.588-6.818 6.997-.897 1.076-1.256 1.615-1.794 2.87-.718 1.436-1.077 2.513-1.615 4.127-1.615 4.666-2.87 7.177-2.87 11.663 0 1.794 0 3.23.179 5.024.538 5.562 1.076 8.612 2.332 11.304 1.794 4.306 4.306 6.46 5.742 8.612.538.718 1.256 1.974 2.87 3.589 1.256 1.435 3.41 3.23 3.589 3.409 2.512 1.794 4.665 3.23 5.383 3.588 1.794.897 4.665 1.974 4.665 1.974 7.356 2.87 7.356 1.974 12.2 2.512 2.154.18 3.769.718 5.922.718.897 0 7.177-.539 12.021-1.615 1.615-.36 5.204-1.436 9.51-3.23 2.512-.897 4.126-2.153 5.382-2.153 1.436 0 3.41 1.435 4.666 3.23 1.794 2.332 1.255 3.768 4.485 3.768.897 0 5.742-.539 6.46-.718 3.767-.718 3.947-1.256 9.868-1.256h1.256zM469.123 488.23c.18 0 .538-.18.718-.18 5.024 0 8.253 3.59 8.074 8.613 0 2.333-.538 3.589-1.256 4.665-2.333 4.486-6.639 6.1-7.715 6.1-1.436 0-2.333-1.076-3.41-2.69-1.255-1.795-3.229-4.127-3.229-8.613 0-.18-.18-4.486 3.23-6.639 1.076-.718 2.332-1.256 3.588-1.256zm-13.816 50.777c1.615-.179 2.692.539 3.41 1.256 1.076.898 1.614 1.974 2.87 4.127 1.256 1.615 2.153 2.692 3.41 4.306.538.718 4.306 6.64 4.844 7.536.538 1.077.897 1.974 1.435 3.05.718 1.077 1.615 1.795 1.615 2.871 0 .36-.18 1.256-1.256 2.153a15.54 15.54 0 01-2.153.898c-.718.179-1.077.358-1.615.538-.359 0-1.435 0-1.794.18-1.077 0-1.794.179-2.87.179-2.692 0-5.563-.897-6.28-1.256-.539 0-2.154-.718-3.948-2.153-1.256-.898-2.153-1.795-3.05-3.23-1.795-2.153-3.23-7.356-3.23-9.689 0-4.127 4.127-8.433 5.024-9.33 1.076-.897 2.332-1.436 3.588-1.436z" fill-rule="nonzero"/></g></g><g><path d="M1317.698 371.085c4.116 3.726 8.5 5.63 12.956 7.081 4.47 1.39 9.06 1.931 13.662 2.38 4.61.456 9.252.645 13.953.534 4.7-.156 9.438-.557 14.285-1.717a4.371 4.371 0 003.235-5.276 4.367 4.367 0 00-2.03-2.748c-4.288-2.54-8.7-4.32-13.135-5.857a116.895 116.895 0 00-13.483-3.62c-4.54-.908-9.078-1.755-13.766-1.751-4.68.087-9.437.618-14.472 2.95a4.878 4.878 0 00-2.355 6.463c.284.61.688 1.14 1.15 1.56M1313.532 311.428c8.59 3.386 17.592 4.388 26.52 4.356 8.94-.094 17.795-1.618 26.449-3.747a141.1 141.1 0 0025.2-8.797c8.052-3.766 15.762-8.27 22.702-13.842 1.797-1.431 2.066-4.039.635-5.836a4.154 4.154 0 00-4.249-1.42l-.038.01c-8.281 2.11-16.293 4.297-24.313 6.225-7.996 1.95-15.967 3.7-23.968 5.201-8.001 1.516-16.03 2.59-24.063 4.015-8.047 1.517-16.133 2.966-24.571 5.73l-.061.016c-2.259.743-3.494 3.165-2.759 5.416a4.343 4.343 0 002.516 2.673M1298.08 256.79c7.552-.145 14.423-2.52 20.814-5.69 6.365-3.254 12.05-7.654 17.329-12.41 5.277-4.785 10.06-10.098 14.188-15.864 4.098-5.797 7.62-12.004 10.013-18.728a4.2 4.2 0 00-2.554-5.364 4.16 4.16 0 00-4.074.718l-.044.032c-5.238 4.304-10.08 8.612-15.01 12.732a439.284 439.284 0 01-14.724 12.037c-4.952 3.892-10.073 7.476-14.992 11.473-4.894 4.066-9.779 8.185-14.38 13.713l-.058.078a4.439 4.439 0 00.574 6.251 4.451 4.451 0 002.918 1.023" fill="#060608" fill-rule="nonzero"/><g><path d="M626.459 363.414c-2.854 4.763-6.494 7.86-10.334 10.546-3.871 2.631-8.105 4.485-12.378 6.254a114.15 114.15 0 01-13.193 4.572c-4.542 1.219-9.192 2.214-14.166 2.516a4.371 4.371 0 01-4.632-4.106 4.367 4.367 0 011.142-3.22c3.364-3.678 7.066-6.666 10.862-9.427a116.895 116.895 0 0111.846-7.388c4.079-2.19 8.173-4.321 12.66-5.683 4.502-1.279 9.208-2.155 14.704-1.39a4.878 4.878 0 014.135 5.498 4.968 4.968 0 01-.646 1.828M613.079 305.128c-7.232 5.74-15.553 9.319-24.103 11.886-8.581 2.513-17.496 3.632-26.395 4.115a141.1 141.1 0 01-26.67-1.08c-8.8-1.26-17.486-3.325-25.748-6.635-2.136-.847-3.152-3.263-2.306-5.398a4.154 4.154 0 013.652-2.595l.038-.003c8.537-.391 16.84-.631 25.073-1.121 8.217-.462 16.353-1.107 24.444-2.001 8.096-.879 16.09-2.188 24.19-3.164 8.14-.89 16.298-1.858 25.175-1.67l.063-.002c2.377.053 4.263 2.01 4.216 4.378a4.343 4.343 0 01-1.629 3.29M611.957 248.359c-7.267 2.059-14.532 1.786-21.568.613-7.037-1.26-13.757-3.814-20.191-6.827-6.442-3.042-12.564-6.733-18.192-11.048-5.608-4.353-10.784-9.266-15.031-15.002a4.2 4.2 0 01.882-5.875 4.16 4.16 0 014.106-.499l.052.018c6.264 2.592 12.15 5.305 18.066 7.811a439.284 439.284 0 0017.59 7.23c5.871 2.282 11.814 4.22 17.683 6.613 5.865 2.465 11.738 4.983 17.748 8.933l.08.057a4.439 4.439 0 011.27 6.148 4.451 4.451 0 01-2.495 1.828" fill="#060608" fill-rule="nonzero"/></g></g></g></g></svg>