<svg viewBox="0 0 372 261" xmlns="http://www.w3.org/2000/svg" fill-rule="evenodd" clip-rule="evenodd" stroke-linejoin="round" stroke-miterlimit="2"><path d="M111.539 232.345c-1.033.914-3.373 2.569-7.338 2.553-5.131-.02-9.118-2.835-9.095-8.458.024-5.878 4.144-8.726 9.236-8.706 5.839.024 6.989 4.314 7.156 6.575-2.907 1.228-6.483 2.17-9.815 2.865.345 2.23 1.395 5.136 5.785 5.193 2.052.009 3.26-.661 3.825-.903l.246.88zm-10.164-6.98c1.77-.204 3.082-.375 4.82-.833-.068-.99-.367-5.205-2.705-5.215-1.875-.007-2.166 2.436-2.174 4.167-.008.642.062 1.245.059 1.88z" fill="#fff" fill-rule="nonzero"/><path d="M125.637 232.965c-.389.28-2.945 2.007-6.306 1.993-9.45-.038-9.423-6.905-9.418-8.354.01-2.334 2.16-8.839 9.945-8.808 4.816.02 5.02 1.402 5.446 1.438-.215 1.414-.684 2.369-1.926 3.46l-.531-.003c-.496-.677-2.112-2.912-3.92-2.919-1.842-.008-2.808 2.323-2.82 5.33-.02 5.027 2.874 7.306 6.236 7.32a13.56 13.56 0 002.904-.271l.39.814zm27.097-.455c-1.032.914-3.373 2.569-7.338 2.553-5.13-.02-9.118-2.834-9.095-8.458.024-5.878 4.138-8.726 9.236-8.705 5.84.023 6.99 4.313 7.157 6.575-2.908 1.228-6.484 2.17-9.815 2.865.344 2.23 1.395 5.136 5.784 5.193 2.053.007 3.261-.662 3.826-.903l.245.88zm-10.164-6.98c1.77-.203 3.082-.375 4.82-.833-.067-.99-.366-5.205-2.705-5.214-1.875-.008-2.166 2.436-2.173 4.167-.008.64.061 1.244.058 1.88zm-49.603-2.251c-.1-.99-1.078-4.003-3.417-4.012-.144 0-1.809-.007-1.816 1.762-.003.852-.007 1.841 4.866 4.129 2.191 1.037 3.102 2.987 3.096 4.435-.016 3.86-3.455 5.262-7.454 5.246-2.123-.008-3.68-.401-5.446-1.227-.233-1.35-.546-3.436-.537-5.388l2.018.007c.374 3.22 2.386 5.003 4.05 5.01 1.77.007 2.055-.982 2.06-1.976.002-.741-.629-1.878-2.571-2.914-2.334-1.215-5.405-2.322-5.391-5.756.012-3.008 2.32-4.945 7.098-4.926 2.405.01 3.89.58 4.812 1.009.348 1.489.341 3.115.335 4.602l-1.703-.006" fill="#fff" fill-rule="nonzero"/><path d="M152.415 218.452l-.005-1.68c.016-3.899 5.78-3.262 5.78-3.262l-.014 4.96c1.559.15 2.515.188 3.963.298l-.003.918c-1.167.173-2.833.343-3.966.37l-.023 5.807c-.015 3.716.006 6.796 3.23 6.809.674.002 1.271-.21 1.665-.314l.246.919c-1.032.632-2.696 1.83-6.594 1.814-.53 0-4.352-.017-4.332-5.043l.04-9.998.007-1.597h.006zm-25.73 16.514l.092-10.633c.01-2.373.015-3.683-.975-3.687l-.99-.005-.277-1.062c3.26-.943 4.815-1.291 7.405-1.74.245.958.277 1.273.378 2.479.92-.914 2.204-2.468 4.151-2.46 1.98.007 2.682 1.426 3.071 2.207-.287 1.31-1.104 2.368-2.523 3.175-1.028-.004-1.91-1.036-3.605-1.468a6.408 6.408 0 00-.85-.181l-.036 8.61-.056 1.503c-.02 3.899-5.785 3.262-5.785 3.262zm81.562-1.194c-.92.672-2.765 1.477-5.603 1.466-4.035-.017-8.234-2.406-8.213-7.504.027-6.796 4.854-9.68 9.134-9.663 1.698.008 3.289.401 4.105 1.046-.003.707-.4 1.767-.929 2.579l-.216-.001c-.527-.744-1.833-1.954-4.133-1.964-2.55-.01-4.681 2-4.696 5.997-.023 5.591 2.83 8.257 6.867 8.274 1.416.005 2.906-.802 3.405-1.088l.279.858z" fill="#fff" fill-rule="nonzero"/><path d="M222.621 234.433c-.46.318-1.209.88-2.696.874-1.802-.007-2.441-.75-2.792-1.498-1.137.735-2.45 1.476-5.209 1.465-2.621-.01-4.385-1.504-4.377-3.45.019-4.601 6.145-5.96 9.268-6.864l.003-.813c.009-2.334-.618-4.355-3.273-4.365-2.83-.012-3.724 2.213-4.405 3.521l-.282-.001c-.385-.428-.671-.783-.912-1.42 1.068-1.41 3.344-3.774 7.094-3.758 4.036.015 4.874 2.142 4.859 5.752l-.02 5.06c-.01 2.478-.02 5.132 1.925 5.14.354.001.499-.07.637-.141l.18.498zm-6.305-7.816c-2.018-.009-5.489.862-5.502 4.191-.008 2.018 1.259 3.229 3.277 3.237 1.559.006 2.448-1.091 2.698-1.444l.025-5.983-.498-.001zm35.33 6.832c-.566.529-2.984 1.973-6.202 1.96-4.462-.018-8.094-3.007-8.074-8.034.024-5.982 4.179-9.151 8.248-9.134 4.745.018 5.754 3.457 6.205 5.372-4.044 1.969-8.152 3.047-11.202 3.742.136 2.196 1.816 6.378 6.594 6.397 2.156.01 3.509-.87 4.002-1.117l.428.814zm-11.018-7.653a63.073 63.073 0 008.009-1.986c-.488-2.197-1.365-4.324-4.052-4.335-3.008-.012-3.947 3.739-3.957 6.321z" fill="#fff" fill-rule="nonzero"/><path d="M260.073 223.607c.007-1.593-1.117-4.146-3.417-4.155-1.344-.006-2.27.947-2.277 2.501-.017 4.037 7.846 2.896 7.823 8.564-.013 3.361-2.78 4.944-6.141 4.93-2.3-.01-3.536-.618-4.492-1.047-.524-1.595-.655-3.364-.65-4.747l.957.004c.698 2.303 1.895 4.608 4.726 4.62 1.592.006 2.515-1.367 2.521-2.612.02-4.81-7.845-3.145-7.822-8.917.012-2.903 2.6-4.485 5.68-4.473 1.875.008 2.973.576 3.751 1.043.348 1.274.45 2.407.442 4.288l-1.1-.004v.005zm-74.496 9.554c-.765.716-3.342 3.56-8.131 3.584-6.028.032-10.938-4.064-10.911-10.86.027-8.084 5.645-12.37 11.148-12.347 6.408.026 7.778 4.671 8.392 7.256-5.463 2.66-11.02 4.119-15.138 5.06.181 2.964 2.453 8.619 8.912 8.645 2.92.011 4.315-1.901 4.985-2.23l.743.892zm-14.632-9.409c3.447-.611 7.471-1.596 10.822-2.683-.658-2.966-1.84-5.847-5.479-5.86-4.07-.017-5.329 5.049-5.343 8.543z" fill="#fff" fill-rule="nonzero"/><path d="M192.673 223.337c.006-1.594-1.117-4.147-3.417-4.156-1.344-.005-2.272.948-2.278 2.5-.016 4.038 7.846 2.897 7.824 8.565-.013 3.362-2.779 4.944-6.141 4.93-2.3-.01-3.537-.617-4.491-1.047-.525-1.595-.662-3.364-.657-4.746l.957.003c.7 2.303 1.896 4.608 4.727 4.62 1.592.006 2.516-1.367 2.52-2.611.02-4.811-7.845-3.145-7.822-8.918.012-2.903 2.6-4.485 5.68-4.473 1.875.008 2.973.577 3.751 1.044.35 1.274.45 2.407.442 4.287l-1.095-.004v.006zm37.357-5.16c-2.405-.009-3.969 1.013-4.75 1.47 0-.282-.173-1.096-.42-1.49-1.239-.005-4.04.902-5.065 1.218l.135.853.781-.208c.071 0 .32-.031.497-.03.99.003.986.993.973 4.466l-.074 18.242h-.016s3.106.344 3.114-1.757l-.001-.907-.002-.918.016-4.175c.57.146 1.415.398 2.901.404 3.894.016 9.566-2.262 9.594-9.411.02-4.966-3.469-7.74-7.683-7.757zm-.877 15.929c-2.3-.01-3.005-.687-3.926-1.293l.049-12.177c.57-.247 1.452-.807 2.978-.801 3.185.013 6.218 2.22 6.2 6.854-.02 4.534-1.762 7.43-5.301 7.417zm103.132-19.46l.204-.208c-.297 2.086-.566 4.109-.732 6.144-.097 1.21.074 2.062 1.145 1.887a5.25 5.25 0 001.76-.741c.504-.33.546-.626.655-1.14 1.079-5.169 3.126-10.099 5.351-11.651.572-.409 1.318-.486 1.223.915-.13 1.918-.913 4.534-1.051 6.852-.246 4.098 3.218 4.36 5.686 3.116.452-.231.538-.319-.034-.585-1.268-.591-1.618-1.734-1.657-3.302-.036-1.295.28-3.185.502-5.09.626-5.31-2.925-5.824-5.589-3.058-2.11 2.18-3.011 4.365-4.18 7.167l-.081-.025c.198-1.518.396-2.942.594-4.27 3.06-3.438 6.32-8.037 5.978-12.676-.264-3.563-3.713-3.988-5.89.094-1.04 1.951-1.736 4.362-2.6 9.62-.296 1.736-.591 3.534-.857 5.14-.419.46-.775.776-1.202 1.204-.591.575-.295 1.687.773.61l.002-.004zm7.17-17.457c.575-.905 1.237-.578 1.286.413.1 1.96-.738 4.873-2.229 7.71a23.386 23.386 0 01-2.091 3.226c1.065-6.276 2.185-10.047 3.03-11.353m8.75 8.938c.452-.16.904-.31 1.357-.446-.462 3.148-.974 6.704-1.07 7.82-.19 2.168.003 3.271.584 4.022.52.68 1.315.933 2.275.893 1.764-.074 3.735-1.234 4.117-2.176.124-.302-.033-.254-.25-.183-2.357.777-3.363.217-3.019-2.714.22-1.854.738-5.297 1.232-8.508a34.578 34.578 0 013.216-.302c.636-.033 1.252-1.658.01-1.595-1 .053-1.995.161-2.982.322.375-2.42.706-4.511.837-5.394.249-1.7-.73-1.442-1.575-1.017a5.84 5.84 0 00-1.623 1.2c-.671.727-.775.99-.96 2.287-.056.414-.296 1.95-.569 3.845-.455.149-.901.318-1.34.507-.825.36-1.068 1.726-.24 1.433m-24.979 49.929a10.153 10.153 0 01-3.096-1.164 22.602 22.602 0 002.308-4.635c.539-1.51-.362-1.85-.933-.847a20.045 20.045 0 01-3.162 4.36 12.397 12.397 0 01-3.773-4.502 19.186 19.186 0 001.65-1.277c1.238-1.128 2.435-2.54 2.774-4.385.404-2.197-.958-4.459-4.024-3.983-3.342.516-4.722 3.931-4.735 6.348a9.001 9.001 0 00.943 3.916c-2.316 2.162-3.588 4.706-3.743 6.445-.28 2.865 1.622 4.622 4.049 4.563 2.963-.068 5.449-1.906 7.345-4.194 1.38.473 2.903.763 4.157.577.982-.146 1.112-1.011.254-1.21l-.014-.012zm-9.764-14.027c.49-.848 1.245-1.183 1.956-.958.8.25 1.257 1.633.642 3.385-.38 1.111-.955 1.992-2.237 3.183-.843-2.163-1.06-4.404-.36-5.61zm1.607 14.335c-3.859 2.484-6.604-.679-3.651-4.349.187-.23.386-.452.597-.662a14.006 14.006 0 004.276 4.18c-.382.276-.79.553-1.222.831zm-1.078-44.53a4.466 4.466 0 002.698-1.577c.799-1.027.518-1.812-.452-2.142a3.119 3.119 0 00-2.13.104 3.36 3.36 0 00-1.624 1.466c-.577 1.168-.036 2.37 1.508 2.149zm14.967 5.834c-.33-.71-.887-.961-1.56-.401-1.115.925-1.98 2.6-3.546 3.677-.983.678-1.81.293-1.812-1.305-.01-2.285 1.5-5.418 2.89-6.69 1.482-1.368 2.812-1.137 3.88.648.503.841 1.352.48 1.04-.342-2.143-5.628-10.988-2.02-11.768 7.208-.07.704.001 1.415.205 2.093a8.871 8.871 0 01-1.863 2.14c-1.65 1.398-2.657.938-2.325-2.234.277-2.631.923-4.785 1.703-7.538.18-.63.006-1.01-.686-.845-.92.24-1.804.608-2.633 1.093-.935.518-1.244 1.233-1.536 2.337a35.655 35.655 0 00-1.03 6.606c-.138 3.161 1.358 4.976 4.318 3.934 1.691-.595 3.496-2.47 4.705-4.316.677.764 1.704 1.051 2.956.623 1.252-.43 2.733-1.634 3.831-3.289.458 1.727.48 3.382.354 6.1-.204 4.332-1.89 7.748-3.906 9.25-1.81 1.351-2.703.46-2.081-1.504.493-1.568 1.978-4.325 4.65-6.329.876-.654.804-3.481-.124-2.936-3.121 1.834-6.028 7.002-6.559 10.555-.454 3.047.914 4.747 4.237 3.156 2.64-1.269 5.345-4.585 6.5-8.718 1.157-4.133 1.27-10.584.157-13.012m41.673 23.606c-3.639 4.964-7.352 3.478-7.113-.461 2.78-.347 5.226-1.752 6.211-3.814 1.497-3.132-.413-5.068-3.32-4.377-3.31.79-5.99 4.53-6.322 8.21a8.875 8.875 0 00.027 1.962c-3.791 5.174-7.223 3.35-7.003-.343 2.882-.286 5.43-2.17 6.298-4.176 1.503-3.457-.463-5.148-3.253-4.456-3.477.888-6.484 5.053-6.834 8.929-.364 4.025 1.719 5.759 4.142 5.937 2.3.16 5.41-1.676 7.052-4.382.294.69.76 1.282 1.349 1.712.588.43 1.275.681 1.988.729 2.322.242 5.793-1.687 7.402-4.912.416-.833-.115-1.247-.621-.557h-.003zm-3.625-6.941c1.021-.484 1.55-.107 1.133 1.34-.52 1.868-2.54 3.442-4.419 3.804.757-3.207 2.27-4.663 3.275-5.144h.01zm-10.234 1.293c.915-.439 2.19-.075 1.462 1.688-.729 1.764-2.678 2.56-4.647 2.792.921-2.967 2.219-4.012 3.185-4.48z" fill="#fff" fill-rule="nonzero"/><path d="M350.615 234.861c1.098 1.048 2.534-.154 2.806-1.336.292-1.3-.377-2.423-1.95-2.208-1.932.252-3.758 2.245-5.325 5.67-.072.158-.15.142-.115 0 .2-.698.348-1.414.444-2.137.07-1.312-.883-1.27-1.965-1.124-1.449.185-3.675.777-6.14 1.67.81-3.093 1.606-6.242 2.245-9.292 6.323-2.006 12.717-3.589 17.532-2.723 4.814.866 3.628 3.477 1.997 4.288-.518.254-.358.778.327.607 2.23-.593 4.423-5.359-2.123-6.67-8.913-1.776-20.743 1.918-25.275 3.947-1.218.544-1.587 1.247-2.098 2.63-.723 1.975.484 2.167 1.73 1.483a53.893 53.893 0 012.97-1.513c-.547 2.593-1.395 5.871-2.309 9.33a35.458 35.458 0 00-4.577 2.599c-1.113.765-.942 3.674.439 2.69a52.547 52.547 0 013.322-2.167c-1.434 5.44-2.86 10.924-3.414 14.621-.296 1.917.24 2.608 1.847 1.691a13.651 13.651 0 003.152-2.64c.198-.222.208-.458.236-.842.288-3.963 1.766-9.559 3.356-15.554a26.529 26.529 0 014.236-1.522c.543-.137.387.236.334.468-.852 3.832-2.004 10.807-2.204 13.463-.093 1.189.633 1.447 1.264 1.29 1.277-.32 2.029-1.18 2.61-1.638.355-.279.339-.493.377-.999.383-5.35 1.768-9.952 3.08-11.966 1.01-1.562 2.196-3.062 3.205-2.1m-35.347-.216c.24.061.491.047.724-.037.233-.086.438-.24.59-.447.693-.768 1.245-1.963 1.158-2.82-.048-.517-.46-.816-1.25-.818-4.03-.022-10.308 3.806-15.976 8.495-.416.343-.572.224-.422-.506.36-1.792 3.57-14.58 3.57-14.58.168-.705.334-1.42.498-2.137.318-1.387.585-2.72.855-3.929 2.49-1.956 3.934-3.289 5.354-5.69 2.48-4.18.26-7.21-2.131-7.39-1.684-.151-3.183.716-4.526 2.632-1.7 2.412-2.64 6.855-3.453 10.3-.099.423-.23.976-.386 1.628-.942.486-1.94.853-2.971 1.094-3.935.907-4.002-1.88-2.788-3.29.381-.448.042-.869-.53-.424-1.84 1.443-2.056 6.395 3.677 5.305.734-.15 1.45-.37 2.14-.663l-.057.26c-1.607 6.812-4.405 18.708-5.012 21.872-.295 1.511.902 2.239 2.357 1.03 8.983-7.456 15.744-10.292 18.594-9.88l-.015-.005zm-5.796-26.588c-.094 1.334-1.528 4.4-3.767 6.379.696-3.52 1.198-6.046 1.828-7.169.658-1.182 2.035-.554 1.939.79zM38.838 222.408l2.453.014.785 3.868c.064.415.124.824.177 1.228.054.404.113.818.178 1.244h.067c.08-.424.156-.844.226-1.258.08-.414.172-.817.275-1.208l.946-3.859 2.135.012.917 3.87c.1.414.187.824.262 1.228.076.404.158.818.246 1.244h.066c.081-.424.146-.839.192-1.241.059-.404.128-.812.209-1.226l.812-3.86 2.284.014-2.046 8.322-2.89-.018-.737-3.33c-.087-.39-.163-.783-.228-1.178l-.211-1.26-.068-.001-.225 1.258c-.058.393-.128.784-.208 1.175l-.76 3.323-2.82-.016-2.037-8.345zm14.966-1.14c-.415-.003-.756-.123-1.024-.36a1.225 1.225 0 01-.398-.942c.003-.382.139-.688.409-.922.27-.234.613-.35 1.027-.347.426.002.766.121 1.022.358.269.237.4.546.398.927-.001.38-.138.693-.408.938-.259.234-.6.35-1.026.347zm-1.234 1.218l2.47.014-.048 8.333-2.47-.014.048-8.333zm4.968 1.96l-1.143-.005.011-1.832 1.277-.093.298-2.216 2.05.011-.013 2.218 2 .011-.012 1.933-2-.012-.017 3.343c-.003.47.09.813.28 1.026.2.204.462.305.787.308.136 0 .272-.016.404-.05.145-.032.274-.07.386-.114l.376 1.8c-.224.065-.488.131-.79.196-.35.07-.704.103-1.06.095-.515-.002-.956-.084-1.325-.243a2.384 2.384 0 01-.886-.66 2.826 2.826 0 01-.499-1.01 5.467 5.467 0 01-.144-1.329l.02-3.376zm6.126-5.34l2.47.014-.017 2.89-.126 1.494a6.243 6.243 0 011.095-.766c.417-.245.91-.365 1.481-.362.908.005 1.56.306 1.961.902.41.595.613 1.42.607 2.473l-.03 5.174-2.469-.014.028-4.855c.003-.605-.078-1.02-.245-1.245-.155-.225-.413-.338-.771-.34a1.446 1.446 0 00-.807.213 4.362 4.362 0 00-.743.585l-.032 5.627-2.47-.014.068-11.777zm212.112 6.7l-2.44-3.976 2.655-.023.751 1.336c.115.235.23.474.343.72l.376.702h.068c.087-.237.18-.473.279-.709.098-.247.19-.49.278-.725l.559-1.35 2.554-.022-2.38 4.305 2.608 4.026-2.655.024-.819-1.37a41.455 41.455 0 01-.41-.718 15.538 15.538 0 00-.393-.72h-.067c-.098.238-.203.479-.313.726-.11.239-.215.48-.312.726l-.642 1.383-2.554.023 2.514-4.357zm-3.828-209.12l-.951.109-1.662-.125-1.9.104-6.887-.27-.594-.003c-.356-.002-.832.226-5.345.2l-2.019-.01-2.256-.014c-.95-.12-1.781-.126-2.494-.13-3.8-.02-5.596 2.506-5.626 7.811-.001.231-.003.577.114.808l.107 1.962c.113 1.038.105 2.538.095 4.383l-.013 2.19c-.018 3.23-.15 5.536-.159 6.92a36.66 36.66 0 00-.135 3.113l.108 1.846c0 .115.116.347.115.577-.003.577-.125 1.038-.126 1.384l-.246 1.498-.263 4.38.094 4.269.104 2.768-.016 2.768-.006.923c-.005.923.112 1.269.108 1.96l.113.924.115.693c-.123.807-.127 1.383-.247 1.728-.006.923-.128 1.499-.13 1.845l-.011 1.96-.035 6.228c-.003.347.114.808.11 1.386.213 4.499.434 7.383.427 8.536-.003.577-.126 1.152-.129 1.845-.123.69-.126 1.268-.128 1.614-.018 3.23 2.346 5.203 6.265 5.225l.712.004 1.068.007c.239-.115.595-.113 1.07.006l1.306.007 2.732-.1.712.004 1.9.01c.43.085.869.126 1.307.124l3.8.022c.355.002.95.005 1.78.125 1.068.121 1.9.126 2.73.13l2.97.018c.475-.113 2.257-.103 5.464-.2 1.426-.107 2.494-.1 3.207-.097.831.005 1.544.01 2.968.133 1.662.125 2.375.128 3.087.132.832.005 2.138-.103 3.802-.209 1.07-.11 1.425-.107 1.901-.104.475.002 1.306.007 2.137.127 1.186.123 2.018.127 2.73.131 3.088.018 4.282-1.128 4.3-4.358.002-.346-.114-.692-.112-.923l.001-.462.252-2.42c.122-.576.008-1.384-.105-2.308-.23-1.385-.343-2.423-.34-3l.004-.576.004-.692.001-.23c.006-1.154-.34-2.886-1.045-4.159-.704-1.388-1.535-1.739-4.146-1.753l-.476-.003-3.563.095c-.237-.002-.594.111-.95.11l-.832-.005-1.425-.008-1.425-.124-1.544-.008-1.069-.007-.831-.005-3.563.096-1.426-.008c-6.175-.036-9.136-1.321-9.596-3.976l-.23-1.27-.233-.81.001-.23c.018-3.229 1.928-4.948 5.135-4.93l1.425.008 4.274.14 3.207.019 1.782-.106.594.004c.356.002.713.004 1.187.121l1.069.007 1.306.007 1.187.007c.356.118.83.12 1.187.122 4.394.025 5.944-1.004 6.557-4.345.097-.726.14-1.458.13-2.19l.005-.693.003-.576.004-.692.125-1.153.022-3.69c.003-.577.125-1.154.128-1.73.005-.807.126-1.268.128-1.614.013-2.191-1.76-3.7-4.254-3.715-1.306-.007-2.02.104-2.138.103l-.596.228-1.069-.006-.95-.006-.593-.118-1.661-.125-1.069-.122c-.83-.004-1.424-.123-2.018-.127-.712-.004-1.306.109-2.732.216-1.427.108-2.14.103-3.207.096-1.307-.007-3.088-.016-4.156-.253l-1.186-.238c-2.373-.475-3.792-1.521-3.783-3.135l.01-1.5c.125-1.268.248-1.96.249-2.19.121-.345.48-.804.839-1.264.596-.573 1.074-1.032 1.55-1.144.238-.114.952-.225 1.902-.335 1.189-.224 1.784-.336 2.259-.334.356.004 1.068.122 2.136.244 1.543.24 3.917.368 5.58.377.593.004.95.006 2.257-.102 1.069.006 2.137-.102 2.494-.101h.12l1.186.122 1.068.007 1.425.008c.357.002.594.119.95.12 3.8.021 5.949-1.925 5.97-5.387a10.066 10.066 0 00-.227-2.076l-.347-1.618c-.118-.115-.115-.577-.112-1.153a6.007 6.007 0 01-.111-1.27v-.23l.13-1.845.127-1.383.008-1.499c.013-2.306-1.287-3.467-4.137-3.484l-1.425-.008c-1.425-.008-2.494.1-3.682.095l-2.02-.012-2.491-.245-.951-.006-1.067-.12-4.039-.023-1.306-.008-1.426.108-1.425.106-1.069-.005zm-73.353 31.173l-.006.98-.008 1.305c.104 1.198.099 1.96.095 2.504l-.133 4.245-.011 1.85.307 3.812-.134 4.462-.001.108c-.224.87-.34 2.066-.35 3.808-.005.762-.013 2.068.09 3.266-.005.98.102 1.524.1 1.85l-.045 7.838-.009 1.415c.106.653.102 1.415.099 2.069-.009 1.523-.13 3.373-.36 5.44-.114.652-.118 1.306-.119 1.632-.012 2.068 1.294 3.6 3.157 3.61l.329.002 1.753-.099 1.754.01 2.191.121 2.96-.201 1.644.01 1.315.008c1.862.01 3.177.126 3.944.13 1.863.011 3.51-.524 4.39-1.389.883-.866 1.109-2.062 1.128-5.437l.011-2.068-.186-5.77-.102-1.306-.101-1.415.26-7.075c.002-.435-.103-1.198-.097-2.177a8.84 8.84 0 01-.101-1.524l.119-1.632-.206-2.505.127-2.938-.103-1.307.004-.654c.012-2.068.242-4.026.143-5.877-.1-1.524-.096-2.395-.095-2.612.037-6.314 1.477-9.135 5.209-10.094l.877-.212 4.493.026c4.055.022 5.707-1.492 5.728-5.193.004-.544.006-1.088-.1-1.633l.022-3.918-.098-1.851.008-1.634.007-1.196c.023-4.027-.847-5.23-3.805-5.246l-.439-.004-2.521.204-1.863-.01-2.847-.344-4.932-.028c-1.643-.01-2.85.093-3.617.09-1.532-.119-2.518-.234-2.847-.126l-2.414.312-3.614-.347-3.617.198-3.178-.019c-.986-.115-2.3-.122-3.834-.13-1.425-.008-2.74.093-4.056.085l-3.616-.02c-1.096-.007-1.424-.008-2.52-.124-.8-.084-1.605-.125-2.41-.123-3.835-.02-5.266 1.06-5.283 3.998l-.012 2.286.098 1.851c.1 1.742.088 3.81-.255 6.203l-.006 1.197c-.017 2.83 1.944 5.018 4.464 5.033.22 0 .878-.104 1.864-.099.438-.106.986-.102 1.534-.1 4.494.026 7.448.805 8.644 2.335.762.984 1.195 2.076 1.183 4.144zm-44.1 49.442l2.193.013c1.096.006 2.793-.382 4.589-.77 2.296-.586 4.992-1.367 6.292-1.957.599-.295 2-1.184 3-1.875 3.202-2.173 5.509-4.55 6.515-6.14l.603-.991.906-1.59c.1-.098.506-1.191 1.115-3.08.102-.498.303-.895.306-1.293.204-.896.314-2.588.328-4.98.025-4.58-.754-7.872-2.333-10.47-.395-.6-.79-1.3-1.385-2-.593-.9-.988-1.4-1.186-1.601-.694-.7-2.084-1.804-3.868-3.409-.496-.5-.992-.902-1.488-1.303-.893-.802-1.489-1.203-1.588-1.304-.297-.3-.793-.701-1.289-1.103-3.276-2.409-5.063-3.714-5.36-3.915-2.881-1.71-3.674-2.51-3.667-3.706.005-1.095 1.006-1.787 2.6-1.778.4.002 1.196.106 1.993.21.997.006 1.793.21 2.391.313l2.588.612 1.494.308.895.204c.797.204 1.494.307 1.893.31 1.694.01 3.693-.976 4.198-1.969.402-.595.61-2.387.622-4.38l.003-.596-.182-2.99.115-2.589-.09-1.594a2.765 2.765 0 01.104-.796c.101-.398.103-.697.105-1.095.005-.797-.093-1.096-.489-1.596-.496-.402-.893-.703-1.988-1.008-3.881-1.018-7.367-1.536-10.657-1.555l-2.192-.013c-1.197-.006-1.995.089-2.393.087l-1.695.09c-1.296.092-2.094.186-2.493.185-.598.095-1.097.093-1.596.19l-1.497.29-1.995.287a16.2 16.2 0 00-2.098.685c-2.497.983-4.195 1.67-4.896 2.065-1.799.985-4.505 3.56-5.612 5.446-.705 1.191-1.008 1.887-1.72 4.373a21.32 21.32 0 00-.713 2.585l-.009 1.594-.003.598-.013 2.49-.005.796c-.01 1.494-.013 2.291.281 2.99l.687 1.996.489 1.696.79 1.3.691 1.1c.79 1.199 2.077 2.7 2.872 3.403l1.587 1.303 3.868 3.309c.397.4 1.39 1.104 2.78 2.107.992.703 1.688 1.106 2.085 1.307l1.49.805 1.787 1.306.795.602c1.388 1.104 2.575 2.803 2.569 3.9-.01 1.891-1.811 3.076-4.802 3.06-.897-.006-1.694-.01-1.894-.112l-1.096-.105-.896-.104-1.393-.307-1.195-.306-1.093-.504-1.891-.509-.995-.304c-.896-.305-1.593-.309-2.192-.312-3.09-.017-4.792 1.367-4.807 3.957l-.003.498.096.697-.006 1.097-.209 1.692c-.207 1.293-.11 1.592-.112 2.09l-.008 1.394c-.007 1.295.085 2.592.081 3.288l-.006 1.096-.106 1.195-.002.299c-.016 2.788 2.966 4.1 9.443 4.535l1.495.108.897.006 1.095.205c.996.205 1.695.11 2.193.112l.398.002 3.89-.177zm-52.38-71.611l-2.66-.015-3.274.082-7.262-.244-1.125-.007c-.819-.106-1.637-.11-2.352-.114-2.047-.012-3.07.185-4.096.585-.924.4-2.053 1.104-2.567 1.609-.412.505-1.136 1.82-1.653 2.934-.311.708-.623 1.619-.73 2.228l-.63 2.837c-.313 1.217-.627 2.432-1.146 3.647-.416 1.418-.728 2.33-.833 2.735l-.315 1.317c-.001.203-.105.507-.312.81-.104.405-.208.709-.209.81l-.21 1.014c0 .102-.105.405-.311.81-.104.202-.105.406-.21.71-.519 1.417-.729 2.43-.936 2.835l-.312.912c-.106.506-.312.81-.312.91-.311.608-.517.912-.517 1.013l-.111 1.521-.832 2.228-.312.912-.314 1.215-.107 1.014-1.143 3.038-.21.912-.73 2.431-.107.81c-.001.204-.105.508-.21 1.015l-.417 1.215c-.104.405-.21 1.013-.416 1.418-.105.304-.106.507-.209.608l-.106.608c0 .101-.105.405-.312.912-.208.607-.418 1.52-.732 2.735-.212 1.42-.423 2.534-.632 3.244 0 .101-.312.911-.626 2.229l-.315 1.317-.52 1.62-.107.71-1.26 5.675-.518 1.113a4.177 4.177 0 00-.316 1.622c-.011 2.13 1.412 3.56 3.56 3.572 1.125.108 1.534.212 2.147.215.308.002.716.004 1.126-.095.82.005 1.228-.094 1.33-.094l1.126.007.819.005c3.682.02 5.932.135 6.444.138l.613.002 2.558.117.92.005c.441-.065.885-.096 1.33-.094.41-.098.924-.4 1.336-.905.31-.404.515-.707.618-.91l.317-1.622c.002-.507.42-1.723.937-2.937.163-.393.372-.768.621-1.113.515-.707 1.132-1.211 2.261-1.813.922-.401 1.538-.6 1.947-.598l1.33.008c.204 0 .409.002.921-.096.614.003 1.126-.096 1.74.01l1.738.009 1.33.007.92.107 2.456.014 2.045.012 1.126.007c.307.001.715.105 1.226.31.714.31 1.224.617 1.631.923.713.613 1.321 1.53 1.623 2.547-.002.203.098.609.299 1.32.6 2.236 1.715 4.07 2.839 4.583a8.56 8.56 0 002.657.421c.92.005 1.841.01 3.07-.084l1.84.112 3.07.017 3.58.02.92-.095 2.456.014c3.273.019 4.198-.585 4.21-2.716.007-1.117-.194-1.828-.9-3.456-.404-1.017-.605-1.83-.803-2.744l-.199-1.016-.2-.71-.302-1.017-.302-1.017-.701-2.54c0-.102 0-.203-.1-.305-.1-.407-.2-.712-.2-.915l-.098-.812-.4-1.424c-.103-.102-.1-.304-.202-.71-.098-.712-.4-1.627-.601-2.135l-.1-.305-.605-1.627-1-4.166-1.803-6.606-1.398-5.995-1.506-5.082-.5-2.134a16.172 16.172 0 00-.805-2.338c-.1-.204-.201-.509-.2-.61l-.3-1.32-.604-1.73-1.101-4.268c-.1-.203-.2-.71-.504-1.321-.43-.993-.8-2.013-1.107-3.051-1.204-4.37-1.506-5.082-2.116-5.897-.507-.612-1.118-1.224-1.933-1.737-1.019-.716-2.04-1.229-2.755-1.335l-2.043-.417-.614-.104-4.501-.026zM90.967 61.04l.21-.912c0-.101.105-.406.208-.71.107-.709.42-1.824.942-3.546.522-2.026.73-2.736 1.664-4.759l.207-.608c.621-1.214 1.136-1.921 1.75-1.918.614.004 1.327.617 1.426 1.124l.502 1.728.403 1.119.1.407.202.507.2.712c.201.712.3 1.118.403 1.22l.198 1.016.5 2.134.2.914.502 1.424c.304.61.502 1.728.7 3.149.098.61.096.813.094 1.218-.012 2.131-1.14 2.53-6.46 2.5-3.068-.017-4.597-1.04-4.586-2.968l.001-.203.005-.914c.105-.405.105-.405.106-.71.002-.101.003-.304.106-.608l.417-1.317zM22.204 33.82l-.008 1.234-.008 1.645c.128 1.509.123 2.469.12 3.154l-.169 5.348-.013 2.33.386 4.802-.17 5.62-.001.138c-.281 1.096-.428 2.603-.44 4.797-.006.96-.016 2.605.114 4.114-.008 1.234.126 1.92.124 2.332l-.057 9.872-.01 1.783c.134.823.128 1.783.123 2.606-.01 1.919-.162 4.25-.452 6.853-.142.822-.146 1.645-.148 2.056-.015 2.605 1.624 4.535 3.963 4.548l.412.002 2.201-.125 2.203.013 2.75.152 3.715-.252 2.064.012 1.65.01c2.339.012 3.988.159 4.952.165 2.338.013 4.405-.661 5.512-1.752 1.106-1.09 1.39-2.598 1.415-6.848l.015-2.605-.234-7.269-.128-1.646-.128-1.783.326-8.911c.004-.548-.129-1.51-.122-2.744-.132-.823-.129-1.509-.126-1.92l.149-2.056-.257-3.155.158-3.701-.128-1.646.005-.823c.015-2.605.304-5.072.18-7.404-.126-1.92-.12-3.017-.119-3.292.045-7.952 1.854-11.508 6.538-12.715l1.102-.268 5.64.033c5.09.029 7.164-1.88 7.19-6.54.004-.686.008-1.372-.126-2.058l.029-4.937-.125-2.332.012-2.056.009-1.51C72.32 2.02 71.228.506 67.514.484l-.55-.003L63.8.737 61.46.723 57.887.29l-6.19-.035c-2.065-.011-3.578.117-4.54.111C45.231.22 43.993.075 43.58.21l-3.03.394-4.535-.438-4.542.25-3.989-.024C26.247.248 24.596.24 22.67.228c-1.788-.01-3.44.117-5.09.108L13.04.31C11.665.302 11.252.3 9.877.155A28.053 28.053 0 006.852 0C2.037-.027.241 1.334.22 5.036l-.016 2.88.124 2.33c.125 2.196.11 4.802-.32 7.815L0 19.57c-.02 3.564 2.44 6.322 5.604 6.34.275 0 1.1-.132 2.34-.124.55-.134 1.238-.13 1.925-.127 5.64.032 9.349 1.012 10.851 2.941.956 1.24 1.499 2.615 1.484 5.22zm330.461 64.849l4.741-.138 3.327-.146 2.329-.069c1.747-.073 2.5-.81 2.508-2.293.006-1.071-.404-2.061-1.643-3.552l-3.303-4.056-.329-.66c-.33-.58-.411-.745-.41-.992a.744.744 0 01.253-.575c.083-.082.25-.328.67-.738.25-.328.587-.902 1.09-1.724.336-.574.587-.902.672-1.15.503-.738.755-1.148.839-1.23l.42-.904.505-.986.508-1.48.255-1.07.17-.74c.172-.822.428-2.14.434-3.128l.002-.33-.075-1.4c-.077-1.154-.903-2.066-2.068-1.99l-1.33.075-2.08-.012-.998-.006h-.166c-.582-.004-1.58-.01-4.157-.189a18.843 18.843 0 00-1.996-.094c-.997-.005-1.833.65-1.839 1.638-.002.411.158 1.566.316 3.132.082.165.08.33.08.495-.004.741-.256 1.07-.672 1.067-.166-.001-.332-.001-.498-.085l-.332-.167-.495-.744-.248-.249c-.082-.083-.33-.331-.577-.745-.083-.083-.248-.248-.495-.58-1.405-1.737-2.063-2.977-2.056-4.048.005-.906.507-1.398 2.258-2.376 1.168-.57 1.419-.816 2.506-1.798.92-.9 1.42-1.31 1.504-1.393.419-.491.923-1.395 1.428-2.545l.506-1.151c.843-1.972 1.012-2.63 1.022-4.36.01-1.73-.313-3.297-.807-4.207l-.576-1.074a11.354 11.354 0 01-.411-.908c-.82-2.065-1.48-2.81-3.882-4.554-2.154-1.577-4.56-2.497-7.135-3.007l-.914-.17-2.825-.427-2.91.147-.916-.005c-1.164-.006-2.245.07-2.829.231-.083.082-.417.162-.833.408-.167-.002-.584.16-1.25.405-2.5.891-4.67 2.28-6.679 4.41-1.589 1.64-2.346 3.282-2.61 5.587-.002.412-.086.66-.087.742l-.254.904c-.085.33-.088.823-.092 1.483-.015 2.636.72 5.112 2.449 8.088.248.413.328.743.327.907-.004.742-.84 1.643-1.84 1.968l-.668.325c-.666.244-2.167 1.059-3.17 1.795-.417.328-.835.654-1.17.9l-.835.818-.837.82c-.92.9-2.177 2.707-2.936 4.514a4.434 4.434 0 00-.51 2.057c-.001.083-.086.411-.09.906l-.266 3.046c-.267 3.13.962 6.433 2.28 8.5 1.978 3.059 2.886 4.3 3.882 4.8l1.657.916c.083.083.497.332 1.327.831 2.982 1.913 5.142 2.337 10.547 2.367 3.41.02 6.239-.293 9.654-1.18.447-.125.89-.26 1.332-.405.083 0 .667-.326 1.668-.814.834-.407 1.5-.65 2.083-.647.914.005 1.99.835 2.732 2.24.494.744.825.993 1.657.998l.166-.082 2.995-.147zM338.88 51.71c1.745.175 2.985 1.418 2.975 3.148-.009 1.648-1.35 3.37-3.183 4.101-.25.081-.5.08-.665.079-.583-.003-1.327-.666-2.235-2.073a4.641 4.641 0 01-.568-2.227c.01-1.895 1.264-3.04 3.343-3.03l.333.002zm-3.27 33.596l-.5.327-.665.16-.916.16c-.25.081-.5.08-.75.078-3.16-.018-5.806-2.587-5.789-5.635.008-1.318.682-2.962 1.436-3.864.418-.41.919-.654 1.335-.651.748.003 1.162.335 1.987 1.411.165.165.331.414.414.497l.744.745.413.415.33.496.908 1.158.742 1.076.165.166c.082.165.165.247.248.495.164.249.329.497.412.58.495.744.66.992.659 1.157-.003.33-.338.821-.671.985l-.501.244zM43.334 108.035l-1.02.12-1.784-.136-2.04.114-7.388-.292-.637-.004c-.382-.003-.894.245-5.735.217l-2.167-.012-2.42-.014c-1.02-.13-1.911-.135-2.676-.14-4.078-.023-6.005 2.72-6.037 8.478-.002.25-.003.626.122.877l.116 2.129c.12 1.127.112 2.754.1 4.757l-.014 2.378c-.02 3.505-.162 6.008-.17 7.51a40.273 40.273 0 00-.147 3.38l.116 2.003c0 .124.126.376.124.626-.004.626-.134 1.125-.136 1.502l-.264 1.625-.282 4.756.1 4.63.112 3.006-.018 3.004-.005 1.001c-.006 1.002.12 1.378.115 2.13l.121 1.002.124.752c-.132.875-.136 1.5-.265 1.876-.006 1-.138 1.626-.14 2.002l-.011 2.128-.04 6.758c-.001.377.123.878.12 1.504.227 4.883.464 8.014.457 9.265-.004.627-.135 1.251-.14 2.002a10.012 10.012 0 00-.137 1.752c-.02 3.505 2.517 5.648 6.722 5.671l.764.005 1.147.007c.255-.124.638-.122 1.146.006l1.403.007 2.93-.108.765.005 2.039.011c.461.092.93.136 1.4.134l4.078.023c.382.002 1.02.005 1.91.136 1.147.132 2.039.136 2.931.142l3.185.018c.51-.122 2.422-.112 5.864-.217 1.529-.116 2.675-.11 3.44-.106a33.186 33.186 0 013.185.144c1.783.135 2.548.14 3.313.144.891.004 2.294-.112 4.078-.228 1.148-.118 1.53-.116 2.04-.113.51.004 1.401.008 2.293.139 1.273.131 2.165.137 2.93.141 3.313.019 4.594-1.226 4.614-4.73.002-.375-.123-.752-.122-1.003l.003-.5.27-2.628c.13-.624.009-1.501-.114-2.503-.245-1.504-.367-2.631-.363-3.257l.003-.626.005-.751.001-.25c.007-1.252-.364-3.132-1.12-4.514-.757-1.505-1.647-1.886-4.45-1.902l-.51-.003-3.823.103c-.255-.001-.637.122-1.02.12l-.892-.006-1.529-.009-1.528-.133-1.656-.01-1.148-.006-.891-.005-3.824.103-1.529-.009c-6.626-.037-9.803-1.432-10.297-4.314l-.247-1.379-.25-.877.002-.25c.02-3.505 2.069-5.371 5.51-5.352l1.529.008 4.586.152 3.44.02 1.913-.115.637.005c.381 0 .764.003 1.273.131l1.147.007 1.402.008 1.274.007c.381.128.89.13 1.273.133 4.715.027 6.378-1.09 7.035-4.717.134-1.126.136-1.501.141-2.377l.005-.751.003-.627.005-.75.134-1.251.023-4.006c.004-.626.134-1.25.139-1.877.004-.876.134-1.376.137-1.752.013-2.378-1.889-4.016-4.565-4.03-1.401-.009-2.167.112-2.294.11l-.639.247-1.146-.006-1.02-.006-.637-.128-1.783-.135-1.146-.132c-.892-.005-1.528-.135-2.165-.138-.764-.004-1.402.117-2.933.234-1.529.116-2.294.111-3.44.105-1.401-.008-3.313-.019-4.459-.275l-1.272-.258c-2.546-.515-4.069-1.65-4.059-3.403l.01-1.627c.135-1.376.267-2.126.268-2.377.13-.375.515-.873.9-1.372.64-.622 1.153-1.12 1.664-1.243.255-.124 1.02-.244 2.04-.363 1.276-.243 1.914-.365 2.423-.363.383.003 1.147.133 2.293.264 1.655.26 4.203.4 5.987.41.637.004 1.018.006 2.421-.112 1.147.007 2.295-.111 2.677-.11l.128.001 1.273.133 1.146.006 1.53.01c.381 0 .636.128 1.018.13 4.078.023 6.383-2.092 6.405-5.847.005-.875-.119-1.628-.242-2.254l-.373-1.755c-.127-.126-.123-.627-.12-1.252a6.694 6.694 0 01-.12-1.378l.002-.25.139-2.003.136-1.5.009-1.628c.014-2.503-1.38-3.763-4.438-3.78l-1.529-.01c-1.53-.008-2.677.11-3.952.103l-2.165-.012-2.675-.266-1.02-.006-1.145-.132-4.333-.024-1.401-.008-1.53.116-1.53.117-1.146-.007zm53.325 74.952l2.295.013c1.147.007 2.924-.4 4.804-.807 2.402-.612 5.223-1.43 6.583-2.049.628-.309 2.093-1.239 3.14-1.964 3.352-2.276 5.765-4.765 6.817-6.429l.633-1.039.948-1.664c.104-.103.528-1.248 1.166-3.226.107-.522.318-.938.32-1.355.214-.938.329-2.71.343-5.213.027-4.8-.788-8.246-2.441-10.967-.414-.63-.827-1.362-1.449-2.096-.62-.941-1.034-1.465-1.242-1.675-.726-.735-2.18-1.89-4.048-3.57-.518-.525-1.038-.945-1.557-1.365-.934-.84-1.558-1.26-1.661-1.366-.311-.314-.83-.734-1.35-1.155-3.427-2.523-5.298-3.89-5.61-4.1-3.014-1.79-3.844-2.63-3.837-3.882.007-1.147 1.054-1.871 2.723-1.862.417.003 1.251.112 2.085.22 1.043.006 1.876.22 2.502.328l2.708.641 1.563.322.938.214c.833.213 1.563.322 1.98.324 1.773.01 3.865-1.02 4.393-2.061.42-.624.64-2.5.652-4.586l.004-.626-.192-3.131.12-2.71-.094-1.67a2.886 2.886 0 01.109-.834c.106-.417.108-.73.111-1.148.004-.834-.098-1.148-.512-1.671-.52-.42-.935-.735-2.081-1.055-4.062-1.067-7.71-1.609-11.152-1.628l-2.295-.014c-1.252-.007-2.086.093-2.504.09l-1.774.094c-1.356.098-2.192.196-2.609.195-.627.1-1.148.098-1.67.199l-1.566.304-2.088.301c-.419.102-1.15.306-2.195.717-2.614 1.028-4.392 1.748-5.124 2.162-1.884 1.032-4.716 3.728-5.874 5.703-.738 1.248-1.055 1.977-1.8 4.58a22.559 22.559 0 00-.746 2.709l-.008 1.668-.005.626-.015 2.608-.004.834c-.009 1.565-.014 2.4.295 3.131l.718 2.09.512 1.777.827 1.36.723 1.153c.827 1.256 2.175 2.828 3.005 3.563l1.662 1.366 4.048 3.465c.414.42 1.454 1.156 2.908 2.208 1.04.735 1.766 1.157 2.183 1.368l1.56.844 1.87 1.366.83.63c1.454 1.157 2.696 2.937 2.69 4.084-.011 1.983-1.897 3.223-5.025 3.206-.94-.006-1.774-.01-1.982-.116l-1.147-.11-.938-.11-1.458-.322-1.251-.32-1.144-.528-1.979-.533-1.042-.318c-.936-.319-1.667-.323-2.293-.326-3.233-.019-5.015 1.431-5.03 4.143l-.003.521.1.732-.006 1.147-.22 1.772c-.215 1.355-.113 1.668-.117 2.19l-.007 1.46c-.008 1.357.088 2.713.085 3.443l-.007 1.148-.112 1.25-.002.314c-.016 2.92 3.105 4.295 9.883 4.75l1.564.114.939.005 1.147.215c1.041.215 1.772.114 2.294.118l.416.001 4.07-.185zM126 136.317c0 .313-.106.521-.107.625 0 .105-.002.314-.108.625-.536 2.501-.644 3.23-.65 4.379-.003.312-.005.73.096 1.251l-.006 1.044c-.002.416-.004.625-.114 1.668-.004.73-.112 1.46-.114 1.773l-.003.626.3 2.088.195 2.504c.197 1.984 1.013 5.221 2.045 7.314.206.418.515 1.15 1.03 2.092a65.919 65.919 0 002.686 4.71c.103.313.31.523.621.838l1.244 1.571 1.45 1.678c.414.524 1.14 1.258 2.075 1.993.831.631 1.351.947 1.558 1.157l1.557 1.47 3.326 2 1.663 1.053c2.287 1.474 2.6 1.58 5.41 2.639 1.04.423 1.562.53 2.707.85.52.21.833.213 1.04.319.21 0 .627.107 1.356.215.209.002.626.004 1.043.11 2.293.327 3.127.436 3.857.44.209 0 .833.11 1.98.116l2.712.12 2.4.013.417.003c3.234.018 5.224-1.327 5.238-3.83.007-1.148.113-1.668.226-3.128.159-.86.234-1.733.223-2.607.006-.94-.094-1.67-.19-3.13-.203-1.045-.201-1.462-.197-2.088.003-.626.008-1.356.117-2.19l.008-1.46c.014-2.295-.815-3.448-2.588-3.457-.522-.004-1.148.097-1.775.198-1.879.302-3.236.399-4.07.394-.418-.002-.939-.006-1.669-.114-.937-.11-1.668-.218-2.187-.43l-2.708-.85-1.562-.426-1.35-1.155-2.077-1.681-1.035-1.258-1.243-1.675c-.207-.106-.415-.42-.62-.943l-.722-1.36c-.722-1.464-1.435-4.493-1.425-6.372.002-.313.003-.52.114-1.564l.015-2.815.004-.522c.007-1.252.112-1.565.429-2.189.212-.52.317-.832.318-.937l.424-1.04c.108-.625.528-1.145 1.052-1.559.314-.206.419-.415.524-.518l.633-1.145 1.153-.932 1.257-1.035c.21-.209.628-.415.942-.517.313-.102.94-.307 1.673-.616a29.611 29.611 0 011.672-.617c1.046-.41 1.882-.72 2.403-.716l1.67-.095 1.253-.202.728.214 1.671-.2c.209.001 1.042.11 2.293.326.417.107.834.11 1.146.111 2.4.014 3.658-1.022 3.67-3.109v-.104l-.19-3.235.22-1.98c.106-.208.107-.626.007-1.253l.006-1.043c.007-1.147.123-3.337.237-4.9.075-.272.113-.553.109-.834.002-.313-.1-.732-.202-1.253l-.204-.836c-.306-1.15-.409-1.463-1.345-1.782-.73-.212-1.458-.425-1.876-.427l-1.774-.01-2.293-.222-1.773.094-2.817-.016c-2.503-.014-4.8.286-8.351 1.1-3.865.812-4.597 1.12-7.316 2.253-1.253.41-2.195.927-3.032 1.235-1.778.824-2.72 1.654-5.867 4.452-2.202 1.969-3.355 3.006-4.3 4.148-1.471 1.765-3.259 4.363-4.21 6.444-.739 1.455-1.164 2.914-1.484 4.164-.214.937-.322 1.667-.649 3.96zm88.304-27.373l-2.404-.015-2.958.076-6.562-.222-1.017-.005c-.739-.096-1.479-.101-2.125-.104-1.85-.01-2.775.168-3.701.53-.834.363-1.854 1-2.32 1.458-.372.457-1.025 1.65-1.494 2.657-.28.643-.563 1.469-.658 2.02l-.57 2.57c-.283 1.103-.566 2.204-1.036 3.304-.376 1.286-.658 2.111-.753 2.478l-.284 1.194c0 .184-.095.46-.281.734-.095.368-.189.642-.19.735l-.19.918c0 .092-.094.367-.28.734-.094.183-.095.367-.189.642-.47 1.285-.66 2.203-.847 2.57l-.282.826c-.095.46-.281.733-.282.826-.28.55-.467.825-.467.916l-.1 1.379-.752 2.018-.282.826-.284 1.102-.097.918-1.032 2.753-.19.826-.66 2.203-.097.735c0 .184-.095.46-.19.918l-.376 1.101c-.094.368-.19.918-.377 1.286-.094.275-.095.459-.187.55l-.096.551c0 .092-.094.367-.282.825-.188.551-.378 1.377-.662 2.48-.192 1.285-.383 2.296-.571 2.938 0 .092-.282.826-.566 2.02l-.284 1.193-.47 1.47-.097.642-1.139 5.141-.467 1.01a3.798 3.798 0 00-.286 1.47c-.011 1.93 1.276 3.224 3.217 3.235 1.016.097 1.386.192 1.94.195.278.001.647.004 1.017-.086.74.004 1.11-.086 1.202-.085l1.017.005.74.005c3.327.019 5.36.122 5.822.125l.555.003 2.31.106.833.004c.647-.088 1.017-.086 1.202-.085.37-.09.834-.363 1.206-.82.28-.367.466-.642.56-.825l.285-1.47c.003-.459.378-1.56.848-2.66.187-.46.373-.734.56-1.01.465-.64 1.023-1.097 2.043-1.643.833-.363 1.39-.543 1.759-.54l1.201.006c.186.001.37.002.833-.087.555.003 1.017-.086 1.572.009l1.571.009 1.202.006.831.097 2.219.013 1.849.01 1.016.006c.277.002.646.095 1.108.282a7.014 7.014 0 011.474.836c.644.556 1.193 1.386 1.466 2.307-.001.184.09.552.27 1.197.543 2.026 1.55 3.686 2.565 4.152a7.727 7.727 0 002.4.381c.833.005 1.665.01 2.775-.077l1.663.102 2.773.016 3.235.018.833-.087 2.218.013c2.959.017 3.793-.53 3.804-2.46.006-1.012-.175-1.657-.814-3.131-.365-.921-.545-1.658-.725-2.487l-.18-.92-.181-.645-.272-.921-.273-.92-.633-2.303c0-.091.001-.184-.091-.276-.09-.369-.181-.644-.18-.829l-.088-.735-.363-1.29c-.092-.093-.091-.276-.181-.644-.089-.644-.361-1.473-.544-1.934l-.09-.277-.546-1.474-.904-3.775-1.63-5.985-1.262-5.432-1.36-4.604-.452-1.933c-.09-.369-.362-1.29-.728-2.119-.091-.184-.182-.46-.181-.553l-.27-1.196-.546-1.567-.996-3.867c-.09-.184-.18-.644-.454-1.197-.39-.9-.724-1.823-1.002-2.764-1.086-3.96-1.36-4.605-1.91-5.343-.46-.556-1.01-1.11-1.748-1.573-.92-.65-1.842-1.114-2.488-1.21l-1.847-.379-.555-.095-4.066-.022zm-10.074 32.029l.19-.826c0-.092.094-.368.188-.643.096-.643.38-1.653.85-3.213.473-1.836.662-2.479 1.504-4.312l.188-.551c.561-1.1 1.027-1.741 1.58-1.738.556.004 1.2.559 1.29 1.019l.452 1.565.365 1.014.09.368.182.46.182.646c.181.644.271 1.012.363 1.104l.18.92.45 1.934.18.828.456 1.29c.274.554.454 1.566.63 2.854.09.553.089.736.087 1.104-.012 1.93-1.03 2.293-5.837 2.266-2.772-.017-4.154-.944-4.144-2.69l.001-.184.005-.828c.094-.367.094-.367.096-.643 0-.188.032-.374.096-.55l.376-1.194zm132.434-31.333l-.746.087-1.301-.1-1.49.084-5.395-.214-.465-.002c-.279-.002-.652.179-4.187.159l-1.582-.01-1.768-.01c-.743-.095-1.395-.1-1.953-.102-2.977-.017-4.384 1.986-4.409 6.191 0 .183-.002.458.09.641l.084 1.555c.088.823.082 2.011.073 3.474l-.01 1.737c-.014 2.56-.117 4.387-.124 5.484a29.444 29.444 0 00-.107 2.468l.085 1.463c0 .092.09.275.09.459-.003.456-.098.821-.1 1.096l-.192 1.187-.206 3.473.074 3.383.08 2.195-.013 2.194-.003.73c-.004.733.088 1.007.084 1.555l.089.733.09.548c-.097.64-.1 1.097-.195 1.37-.003.732-.1 1.19-.1 1.463l-.009 1.554-.028 4.937c-.002.274.089.64.086 1.098.166 3.565.34 5.852.334 6.767-.003.457-.098.913-.102 1.462a7.43 7.43 0 00-.1 1.279c-.015 2.56 1.838 4.124 4.908 4.142l.558.003.837.005c.187-.09.466-.09.838.005l1.023.006 2.14-.08.559.003 1.488.01c.465.093.837.095 1.024.097l2.976.016c.279.002.745.004 1.396.1.836.096 1.488.1 2.138.103l2.327.013c.372-.089 1.768-.081 4.28-.158 1.117-.085 1.955-.08 2.513-.077a23.76 23.76 0 012.326.105c1.301.098 1.86.101 2.418.105.65.003 1.675-.082 2.979-.166.837-.087 1.116-.085 1.489-.083.371.002 1.023.006 1.674.1.711.074 1.425.108 2.14.104 2.417.014 3.354-.895 3.368-3.455.002-.274-.09-.548-.089-.731l.002-.366.197-1.919c.096-.457.007-1.097-.083-1.828-.18-1.099-.267-1.922-.265-2.379l.003-.457.002-.549.001-.183c.006-.914-.265-2.286-.818-3.296-.551-1.1-1.201-1.377-3.248-1.39h-.373l-2.79.074c-.187-.001-.467.088-.746.088l-.651-.004-1.117-.007-1.115-.098-1.21-.006-.837-.005-.652-.004-2.792.076-1.116-.007c-4.838-.027-7.158-1.046-7.518-3.151l-.18-1.006-.182-.642v-.183c.015-2.56 1.511-3.922 4.023-3.908l1.117.007 3.348.11 2.513.014 1.395-.083.466.003c.28.002.558.002.93.096l.837.005 1.023.006.93.006c.28.093.652.094.93.096 3.443.02 4.657-.796 5.138-3.445.098-.822.1-1.096.102-1.736l.003-.549.003-.457.004-.549.098-.912.017-2.926c.002-.457.098-.914.1-1.371.004-.64.1-1.005.1-1.28.01-1.737-1.378-2.933-3.332-2.944-1.023-.005-1.582.082-1.675.082l-.467.18-.837-.005-.744-.004-.465-.094-1.302-.099-.836-.096c-.652-.003-1.117-.098-1.582-.1-.558-.004-1.024.085-2.141.17-1.117.086-1.675.082-2.512.077-1.024-.006-2.42-.014-3.255-.201l-.93-.188c-1.86-.376-2.97-1.206-2.963-2.486l.006-1.188c.099-1.005.195-1.553.196-1.736.095-.273.376-.638.657-1.002.468-.455.843-.817 1.216-.907.186-.09.744-.179 1.49-.266.931-.177 1.396-.266 1.769-.264.279.002.837.096 1.673.192 1.209.19 3.07.292 4.371.3.466.003.745.004 1.769-.082.837.005 1.675-.082 1.954-.08h.093l.93.098.837.004 1.117.006c.28.002.464.095.743.097 2.978.016 4.661-1.528 4.677-4.27a8.016 8.016 0 00-.177-1.647l-.272-1.282c-.092-.092-.09-.457-.087-.915-.09-.458-.088-.823-.087-1.006v-.183l.102-1.462.099-1.097.006-1.188c.011-1.828-1.007-2.749-3.24-2.761l-1.117-.007c-1.116-.006-1.954.081-2.884.076l-1.582-.01-1.952-.193-.745-.005-.837-.096-3.163-.018-1.023-.006-1.118.086-1.116.084-.837-.004zm-58.147-.304l-2.128-.118c-.85-.005-1.595-.114-2.446-.12-1.17-.006-2.767.197-4.895.184l-1.383-.007-1.17-.007-2.129.198-2.021-.011-1.596.097c-.32-.003-1.17-.113-2.553-.12l-.958-.007c-.85-.004-1.383.099-2.554.197-.957.1-1.276.098-2.021.094l-.958-.005-.213-.002c-1.596-.009-3.515.824-5.012 2.187-.855.734-1.29 2.103-1.302 4.318-.003.738.097 1.688.095 2.11l.308 2.006.102.739.102.633-.005.95-.007 1.371-.01 1.582.091 2.638-.003.739c-.003.421-.005.738-.116 1.686l-.01 1.689c-.005.843-.008 1.37.2 2.321.1.95.098 1.372.095 1.794l-.005.95-.004.633-.006 1.266-.006.948c.103.528.1 1.056.099 1.372-.003.317-.004.634-.112.95l-.112.842c-.11.844-.219 1.265-.223 2.003-.003.423-.008 1.266.09 2.533 0 .21-.119 2.425-.25 6.75l-.145 6.856-.228 2.74.102.635.191 3.692-.015 2.637-.006 1.16-.134 4.958c-.007 1.16-.118 1.898-.12 2.425-.015 2.532 1.04 4.015 2.743 4.024l.85.005c.213.002.426.003.745-.101 1.24-.07 2.482-.098 3.724-.084l3.512.02 1.276-.099c.533-.102 1.278-.098 2.34.12 1.701.22 3.19.334 4.36.341 1.595.01 2.982-.617 3.732-1.561.323-.526.646-1.368.55-3.162l-.096-1.688.014-2.532-.098-1.372-.103-.633-.203-1.69.003-.632c.017-2.954 1.41-4.634 4.072-5.146l1.17-.204c.64-.207 1.173-.204 1.492-.202.107 0 .426.002.85.11 1.17.112 1.809.115 2.34.119l3.405.019 3.512-.402 1.81-.2c2.342-.304 5.539-1.235 7.246-2.069.64-.313 1.494-.835 2.562-1.462 1.58-.95 3.147-1.927 4.698-2.927.32-.315.64-.63.962-1.05l.751-.945.963-1.049c1.499-1.679 3.11-4.518 4.515-8.202.864-2.21 1.194-4.107 1.216-8.116.007-1.16-.094-2.005-.09-2.849l-.505-4.644c-.102-.844-.098-1.477-.202-1.9.003-.527-.206-1.16-.309-1.795-.313-1.057-1.049-2.537-1.892-4.02-1.369-2.433-3.376-4.976-4.646-6.144-1.27-1.061-2.86-2.126-5.3-3.511-3.181-1.706-4.348-2.346-7.322-3.101l-3.718-.97c-.85-.322-1.593-.431-2.124-.54l-5.424-.242zm-9.74 28.953l.12-2.53.004-.633.115-1.477c.231-3.268 2.052-5.367 4.71-5.352l.32.001 1.488.22c.426.002.958.005 1.81-.095.426-.103.957-.1 1.49-.097 1.063.006 1.914.116 2.657.436.107.001.424.215.954.533l2.65 1.598c1.273.746 1.59 1.17 2.428 3.39.106.21.21.423.21.528l.315.635c.21.423.098 1.477.091 2.849l-.003.421c-.01 1.9-.766 3.899-1.515 4.528-.535.524-.643.735-1.07 1.26-1.286 1.47-3.419 2.3-6.079 2.391l-3.617.085c-.426-.003-1.17-.112-1.7-.326l-1.168-.323-.957-.217c-.85-.216-2.118-1.7-2.536-3.074-.525-1.268-.732-2.22-.727-3.062l.004-.634.006-1.055z" fill="#fff" fill-rule="nonzero"/></svg>