<svg viewBox="0 0 600 600" xmlns="http://www.w3.org/2000/svg" fill-rule="evenodd" clip-rule="evenodd"><path fill="none" d="M0 0h600v600H0z"/><g transform="translate(-1014.13 -557.609) scale(3.26087)"><circle cx="403" cy="263" r="92" fill="#fff"/><clipPath id="a"><circle cx="403" cy="263" r="92"/></clipPath><g clip-path="url(#a)"><g transform="matrix(.30667 0 0 .30667 219 171)"><path fill="#012169" fill-rule="nonzero" d="M0 0h1200v600H0z"/><path d="M0 0l1200 600m0-600L0 600" fill-rule="nonzero" stroke="#fff" stroke-width="120"/><clipPath id="b"><path d="M600 300h600v300L600 300zm0 0v300H0l600-300zm0 0H0V0l600 300zm0 0V0h600L600 300z"/></clipPath><g clip-path="url(#b)"><path d="M0 0l1200 600m0-600L0 600" fill-rule="nonzero" stroke="#c8102e" stroke-width="80"/></g><path d="M600 0v600M0 300h1200" fill-rule="nonzero" stroke="#fff" stroke-width="200"/><path d="M600 0v600M0 300h1200" fill-rule="nonzero" stroke="#c8102e" stroke-width="120"/></g></g></g></svg>